<svg viewBox="-250 -250 500 500" width="500" height="500" xmlns="http://www.w3.org/2000/svg"><path d="M28.932695986337396,-39.31513629979251L15.514308803479791,-67.91415548667489L30.19867692433946,-36.474580199642496z" style="fill:rgb(243,180,133)"/><path d="M30.19867692433946,-36.474580199642496L16.766592211815734,-65.09901852707138L29.11529109716253,-32.99273664041446z" style="fill:rgb(243,133,180)"/><path d="M17.175397354819342,-27.499808440343923L3.365980966456271,-55.95083450729301L13.937893536125172,-28.99124404066416z" style="fill:rgb(42,41,169)"/><path d="M29.11529109716253,-32.99273664041446L15.614827568275787,-61.60867847542352L25.958410127198757,-29.81036517488702z" style="fill:rgb(212,85,213)"/><path d="M21.580406690363755,-27.79667629239553L7.861158494923146,-56.3119296379431L17.175397354819342,-27.499808440343923z" style="fill:rgb(96,32,206)"/><path d="M25.958410127198757,-29.81036517488702L12.352618211814834,-58.38615052160297L21.580406690363755,-27.79667629239553z" style="fill:rgb(158,48,222)"/><path d="M30.19867692433946,-36.474580199642496L15.514308803479791,-67.91415548667489L16.766592211815734,-65.09901852707138z" style="fill:rgb(243,180,133)"/><path d="M13.937893536125172,-28.99124404066416L3.365980966456271,-55.95083450729301L0.0863918108382778,-57.39163645773727z" style="fill:rgb(42,41,169)"/><path d="M3.3286508735187486,-66.8767141720581L12.21532216221276,-69.3089423848201L7.7604640457280425,-68.92640741023425zM12.21532216221276,-69.3089423848201L3.3286508735187486,-66.8767141720581L0.08583778524135562,-63.700207366673546z" style="fill:rgb(83,212,212)"/><path d="M29.11529109716253,-32.99273664041446L16.766592211815734,-65.09901852707138L15.614827568275787,-61.60867847542352z" style="fill:rgb(243,133,180)"/><path d="M12.21532216221276,-69.3089423848201L0.08583778524135562,-63.700207366673546L15.514308803479791,-67.91415548667489z" style="fill:rgb(83,212,212)"/><path d="M17.175397354819342,-27.499808440343923L7.861158494923146,-56.3119296379431L3.365980966456271,-55.95083450729301z" style="fill:rgb(96,32,206)"/><path d="M15.514308803479791,-67.91415548667489L0.08583778524135562,-63.700207366673546L-1.106223485887541,-60.231334344094826z" style="fill:rgb(83,212,212)"/><path d="M25.958410127198757,-29.81036517488702L15.614827568275787,-61.60867847542352L12.352618211814834,-58.38615052160297z" style="fill:rgb(212,85,213)"/><path d="M21.580406690363755,-27.79667629239553L12.352618211814834,-58.38615052160297L7.861158494923146,-56.3119296379431z" style="fill:rgb(158,48,222)"/><path d="M15.514308803479791,-67.91415548667489L-1.106223485887541,-60.231334344094826L16.766592211815734,-65.09901852707138zM16.766592211815734,-65.09901852707138L-1.106223485887541,-60.231334344094826L0.0863918108382778,-57.39163645773727zM16.766592211815734,-65.09901852707138L0.0863918108382778,-57.39163645773727L15.614827568275787,-61.60867847542352zM15.614827568275787,-61.60867847542352L0.0863918108382778,-57.39163645773727L3.365980966456271,-55.95083450729301zM15.614827568275787,-61.60867847542352L3.365980966456271,-55.95083450729301L12.352618211814834,-58.38615052160297zM12.352618211814834,-58.38615052160297L3.365980966456271,-55.95083450729301L7.861158494923146,-56.3119296379431z" style="fill:rgb(83,212,212)"/><path d="M51.41624041007365,-105.7085722708354L28.0750697924299,-160.96190577717402L56.61459259253452,-11.135712898822613z" style="fill:rgb(247,158,158)"/><path d="M-68.73690477902393,-40.095161877063155L28.0750697924299,-160.96190577717402L-62.268191897250794,-134.29959602957146z" style="fill:rgb(83,212,212)"/><path d="M56.61459259253452,-11.135712898822613L28.0750697924299,-160.96190577717402L31.064817755290793,-67.23315518198012z" style="fill:rgb(247,158,158)"/><path d="M56.61459259253452,-11.135712898822613L31.064817755290793,-67.23315518198012L-38.84963997106917,13.35603746654315z" style="fill:rgb(127,37,217)"/><path d="M28.0750697924299,-160.96190577717402L-68.73690477902393,-40.095161877063155L31.064817755290793,-67.23315518198012z" style="fill:rgb(83,212,212)"/><path d="M-38.84963997106917,13.35603746654315L31.064817755290793,-67.23315518198012L-68.73690477902393,-40.095161877063155z" style="fill:rgb(127,37,217)"/><path d="M-53.13078806542697,-43.568817588295595L-53.07114382077413,-44.417299599423764L-53.08917690475221,-44.35008070632772zM-64.7434764287179,121.63931158262572L-53.08917690475221,-44.35008070632772L-56.13298667573516,-33.000183071431415zM-64.7434764287179,121.63931158262572L-53.13078806542697,-43.568817588295595L-53.08917690475221,-44.35008070632772z" style="fill:rgb(3,148,148)"/><path d="M36.36887264636262,-45.62980458800537L42.02342192539823,109.14619412425802L40.180819022791155,-34.292198550167974z" style="fill:rgb(250,151,151)"/><path d="M-53.13078806542697,-43.568817588295595L-61.311892827290286,110.34757874965071L-53.07114382077413,-44.417299599423764z" style="fill:rgb(3,148,148)"/><path d="M-53.07114382077413,-44.417299599423764L-61.311892827290286,110.34757874965071L-44.94535652501009,-54.54837275862388z" style="fill:rgb(19,175,175)"/><path d="M27.57234035170422,-55.54053746418714L31.904444799818876,99.31098460844463L36.36887264636262,-45.62980458800537z" style="fill:rgb(232,178,178)"/><path d="M-44.94535652501009,-54.54837275862388L-51.99968159442586,100.2968454793681L-32.555541879651535,-62.189583286711084z" style="fill:rgb(47,197,197)"/><path d="M17.07180258940913,91.04717213003796L27.57234035170422,-55.54053746418714L14.751993485336461,-62.79738327421952zM17.00003732805722,92.04904258318234L14.751993485336461,-62.79738327421952L14.676349941640304,-62.84021219609387z" style="fill:rgb(203,199,199)"/><path d="M-32.555541879651535,-62.189583286711084L-37.70650035376033,92.69692690148447L-17.272379559778532,-66.39202635914361z" style="fill:rgb(83,212,212)"/><path d="M-0.8793681728852781,-66.61865535449697L-1.0191494862011354,88.28412737082911L14.676349941640304,-62.84021219609387z" style="fill:rgb(166,213,213)"/><path d="M-17.272379559778532,-66.39202635914361L-20.01728635030357,88.51006421443586L-0.8793681728852781,-66.61865535449697z" style="fill:rgb(125,217,217)"/><path d="M40.180819022791155,-34.292198550167974L42.02342192539823,109.14619412425802L46.35288247825125,120.36332701316731z" style="fill:rgb(250,151,151)"/><path d="M-53.13078806542697,-43.568817588295595L-64.7434764287179,121.63931158262572L-61.332136210590434,110.4141740296909z" style="fill:rgb(3,148,148)"/><path d="M25.081495689284715,150.03524677098386L-25.29069515728845,155.68294764653618L-7.805131613754568,157.23597909150638zM25.081495689284715,150.03524677098386L-7.805131613754568,157.23597909150638L9.5503230740821,155.2977906449698z" style="fill:rgb(127,37,217)"/><path d="M-53.13078806542697,-43.568817588295595L-61.332136210590434,110.4141740296909L-61.311892827290286,110.34757874965071z" style="fill:rgb(3,148,148)"/><path d="M37.21377450850749,141.91355074027058L-25.29069515728845,155.68294764653618L25.081495689284715,150.03524677098386z" style="fill:rgb(127,37,217)"/><path d="M36.36887264636262,-45.62980458800537L31.904444799818876,99.31098460844463L42.02342192539823,109.14619412425802z" style="fill:rgb(232,178,178)"/><path d="M-44.94535652501009,-54.54837275862388L-61.311892827290286,110.34757874965071L-51.99968159442586,100.2968454793681z" style="fill:rgb(19,175,175)"/><path d="M44.61744635136105,131.68605273096756L-41.203117159539275,150.77222079571519L-25.29069515728845,155.68294764653618zM44.61744635136105,131.68605273096756L-25.29069515728845,155.68294764653618L37.21377450850749,141.91355074027058z" style="fill:rgb(127,37,217)"/><path d="M17.07180258940913,91.04717213003796L31.904444799818876,99.31098460844463L27.57234035170422,-55.54053746418714z" style="fill:rgb(203,199,199)"/><path d="M-32.555541879651535,-62.189583286711084L-51.99968159442586,100.2968454793681L-37.70650035376033,92.69692690148447z" style="fill:rgb(47,197,197)"/><path d="M46.35288247825125,120.36332701316731L-53.9401400355649,142.9361108565654L-41.203117159539275,150.77222079571519z" style="fill:rgb(127,37,217)"/><path d="M17.00003732805722,92.04904258318234L17.07180258940913,91.04717213003796L14.751993485336461,-62.79738327421952z" style="fill:rgb(203,199,199)"/><path d="M46.35288247825125,120.36332701316731L-41.203117159539275,150.77222079571519L44.61744635136105,131.68605273096756z" style="fill:rgb(127,37,217)"/><path d="M14.676349941640304,-62.84021219609387L-1.0191494862011354,88.28412737082911L17.00003732805722,92.04904258318234z" style="fill:rgb(166,213,213)"/><path d="M-17.272379559778532,-66.39202635914361L-37.70650035376033,92.69692690148447L-20.01728635030357,88.51006421443586z" style="fill:rgb(83,212,212)"/><path d="M-0.8793681728852781,-66.61865535449697L-20.01728635030357,88.51006421443586L-1.0191494862011354,88.28412737082911z" style="fill:rgb(125,217,217)"/><path d="M42.02342192539823,109.14619412425802L-62.12366734059207,132.89698656888933L-53.9401400355649,142.9361108565654zM42.02342192539823,109.14619412425802L-53.9401400355649,142.9361108565654L46.35288247825125,120.36332701316731zM42.02342192539823,109.14619412425802L-64.7434764287179,121.63931158262572L-62.12366734059207,132.89698656888933zM31.904444799818876,99.31098460844463L-64.7434764287179,121.63931158262572L42.02342192539823,109.14619412425802zM-61.332136210590434,110.4141740296909L-64.7434764287179,121.63931158262572L16.508466413229485,92.22698931438863zM16.508466413229485,92.22698931438863L-64.7434764287179,121.63931158262572L31.904444799818876,99.31098460844463zM-61.311892827290286,110.34757874965071L-61.332136210590434,110.4141740296909L16.508466413229485,92.22698931438863zM-51.99968159442586,100.2968454793681L-61.311892827290286,110.34757874965071L-1.0191494862011354,88.28412737082911zM-61.311892827290286,110.34757874965071L16.508466413229485,92.22698931438863L17.00003732805722,92.04904258318234zM-61.311892827290286,110.34757874965071L17.00003732805722,92.04904258318234L-1.0191494862011354,88.28412737082911z" style="fill:rgb(127,37,217)"/><path d="M17.07180258940913,91.04717213003796L17.087552667521045,92.09169403759111L31.904444799818876,99.31098460844463z" style="fill:rgb(203,199,199)"/><path d="M16.508466413229485,92.22698931438863L31.904444799818876,99.31098460844463L17.087552667521045,92.09169403759111zM-20.01728635030357,88.51006421443586L-37.70650035376033,92.69692690148447L-51.99968159442586,100.2968454793681z" style="fill:rgb(127,37,217)"/><path d="M17.07180258940913,91.04717213003796L17.00003732805722,92.04904258318234L17.087552667521045,92.09169403759111z" style="fill:rgb(203,199,199)"/><path d="M-51.99968159442586,100.2968454793681L-1.0191494862011354,88.28412737082911L-20.01728635030357,88.51006421443586zM16.508466413229485,92.22698931438863L17.087552667521045,92.09169403759111L17.00003732805722,92.04904258318234z" style="fill:rgb(127,37,217)"/></svg>