<svg viewBox="-250 -250 500 500" width="500" height="500" xmlns="http://www.w3.org/2000/svg"><path d="M28.439977254788126,-56.37564096740903L15.243234162106212,-84.91849660988588L29.682662503035235,-53.64122039776869z" style="fill:rgb(243,180,133)"/><path d="M29.682662503035235,-53.64122039776869L16.47262212827508,-82.21161930202221L28.616387235786892,-50.267402916908715z" style="fill:rgb(243,133,180)"/><path d="M16.881273476974254,-44.85771211954124L3.3068323819186825,-73.26262769990059L13.6999355565624,-46.270994926211365z" style="fill:rgb(42,41,169)"/><path d="M28.616387235786892,-50.267402916908715L15.340259990700993,-78.83212925248232L25.512935311468976,-47.1654920957492z" style="fill:rgb(212,85,213)"/><path d="M21.21014832628156,-45.18236628864509L7.7227500711756925,-73.65101214411719L16.881273476974254,-44.85771211954124z" style="fill:rgb(96,32,206)"/><path d="M25.512935311468976,-47.1654920957492L12.135079068284858,-75.69279418462037L21.21014832628156,-45.18236628864509z" style="fill:rgb(158,48,222)"/><path d="M29.682662503035235,-53.64122039776869L15.243234162106212,-84.91849660988588L16.47262212827508,-82.21161930202221z" style="fill:rgb(243,180,133)"/><path d="M13.6999355565624,-46.270994926211365L3.3068323819186825,-73.26262769990059L0.08487842228323844,-74.6242680640701z" style="fill:rgb(42,41,169)"/><path d="M3.270795702270272,-83.80995168106003L12.002550275597109,-86.23631546965656L7.625548263588006,-85.82794998801808zM12.002550275597109,-86.23631546965656L3.270795702270272,-83.80995168106003L0.08434357713078693,-80.71443535649455z" style="fill:rgb(83,212,212)"/><path d="M28.616387235786892,-50.267402916908715L16.47262212827508,-82.21161930202221L15.340259990700993,-78.83212925248232z" style="fill:rgb(243,133,180)"/><path d="M12.002550275597109,-86.23631546965656L0.08434357713078693,-80.71443535649455L15.243234162106212,-84.91849660988588z" style="fill:rgb(83,212,212)"/><path d="M16.881273476974254,-44.85771211954124L7.7227500711756925,-73.65101214411719L3.3068323819186825,-73.26262769990059z" style="fill:rgb(96,32,206)"/><path d="M15.243234162106212,-84.91849660988588L0.08434357713078693,-80.71443535649455L-1.0869118003122986,-77.35495355564281z" style="fill:rgb(83,212,212)"/><path d="M25.512935311468976,-47.1654920957492L15.340259990700993,-78.83212925248232L12.135079068284858,-75.69279418462037z" style="fill:rgb(212,85,213)"/><path d="M21.21014832628156,-45.18236628864509L12.135079068284858,-75.69279418462037L7.7227500711756925,-73.65101214411719z" style="fill:rgb(158,48,222)"/><path d="M15.243234162106212,-84.91849660988588L-1.0869118003122986,-77.35495355564281L16.47262212827508,-82.21161930202221zM16.47262212827508,-82.21161930202221L-1.0869118003122986,-77.35495355564281L0.08487842228323844,-74.6242680640701zM16.47262212827508,-82.21161930202221L0.08487842228323844,-74.6242680640701L15.340259990700993,-78.83212925248232zM15.340259990700993,-78.83212925248232L0.08487842228323844,-74.6242680640701L3.3068323819186825,-73.26262769990059zM15.340259990700993,-78.83212925248232L3.3068323819186825,-73.26262769990059L12.135079068284858,-75.69279418462037zM12.135079068284858,-75.69279418462037L3.3068323819186825,-73.26262769990059L7.7227500711756925,-73.65101214411719z" style="fill:rgb(83,212,212)"/><path d="M51.41624041007365,-105.7085722708354L28.0750697924299,-160.96190577717402L56.61459259253452,-11.135712898822613z" style="fill:rgb(247,158,158)"/><path d="M-68.73690477902393,-40.095161877063155L28.0750697924299,-160.96190577717402L-62.268191897250794,-134.29959602957146z" style="fill:rgb(83,212,212)"/><path d="M56.61459259253452,-11.135712898822613L28.0750697924299,-160.96190577717402L31.064817755290793,-67.23315518198012z" style="fill:rgb(247,158,158)"/><path d="M56.61459259253452,-11.135712898822613L31.064817755290793,-67.23315518198012L-38.84963997106917,13.35603746654315z" style="fill:rgb(127,37,217)"/><path d="M28.0750697924299,-160.96190577717402L-68.73690477902393,-40.095161877063155L31.064817755290793,-67.23315518198012z" style="fill:rgb(83,212,212)"/><path d="M-38.84963997106917,13.35603746654315L31.064817755290793,-67.23315518198012L-68.73690477902393,-40.095161877063155z" style="fill:rgb(127,37,217)"/><path d="M-53.13078806542697,-43.568817588295595L-53.07114382077413,-44.417299599423764L-53.08917690475221,-44.35008070632772zM-64.7434764287179,121.63931158262572L-53.08917690475221,-44.35008070632772L-56.13298667573516,-33.000183071431415zM-64.7434764287179,121.63931158262572L-53.13078806542697,-43.568817588295595L-53.08917690475221,-44.35008070632772z" style="fill:rgb(3,148,148)"/><path d="M36.36887264636262,-45.62980458800537L42.02342192539823,109.14619412425802L40.180819022791155,-34.292198550167974z" style="fill:rgb(250,151,151)"/><path d="M-53.13078806542697,-43.568817588295595L-61.311892827290286,110.34757874965071L-53.07114382077413,-44.417299599423764z" style="fill:rgb(3,148,148)"/><path d="M-53.07114382077413,-44.417299599423764L-61.311892827290286,110.34757874965071L-44.94535652501009,-54.54837275862388z" style="fill:rgb(19,175,175)"/><path d="M27.57234035170422,-55.54053746418714L31.904444799818876,99.31098460844463L36.36887264636262,-45.62980458800537z" style="fill:rgb(232,178,178)"/><path d="M-44.94535652501009,-54.54837275862388L-51.99968159442586,100.2968454793681L-32.555541879651535,-62.189583286711084z" style="fill:rgb(47,197,197)"/><path d="M17.07180258940913,91.04717213003796L27.57234035170422,-55.54053746418714L14.751993485336461,-62.79738327421952zM17.00003732805722,92.04904258318234L14.751993485336461,-62.79738327421952L14.676349941640304,-62.84021219609387z" style="fill:rgb(203,199,199)"/><path d="M-32.555541879651535,-62.189583286711084L-37.70650035376033,92.69692690148447L-17.272379559778532,-66.39202635914361z" style="fill:rgb(83,212,212)"/><path d="M-0.8793681728852781,-66.61865535449697L-1.0191494862011354,88.28412737082911L14.676349941640304,-62.84021219609387z" style="fill:rgb(166,213,213)"/><path d="M-17.272379559778532,-66.39202635914361L-20.01728635030357,88.51006421443586L-0.8793681728852781,-66.61865535449697z" style="fill:rgb(125,217,217)"/><path d="M40.180819022791155,-34.292198550167974L42.02342192539823,109.14619412425802L46.35288247825125,120.36332701316731z" style="fill:rgb(250,151,151)"/><path d="M-53.13078806542697,-43.568817588295595L-64.7434764287179,121.63931158262572L-61.332136210590434,110.4141740296909z" style="fill:rgb(3,148,148)"/><path d="M25.081495689284715,150.03524677098386L-25.29069515728845,155.68294764653618L-7.805131613754568,157.23597909150638zM25.081495689284715,150.03524677098386L-7.805131613754568,157.23597909150638L9.5503230740821,155.2977906449698z" style="fill:rgb(127,37,217)"/><path d="M-53.13078806542697,-43.568817588295595L-61.332136210590434,110.4141740296909L-61.311892827290286,110.34757874965071z" style="fill:rgb(3,148,148)"/><path d="M37.21377450850749,141.91355074027058L-25.29069515728845,155.68294764653618L25.081495689284715,150.03524677098386z" style="fill:rgb(127,37,217)"/><path d="M36.36887264636262,-45.62980458800537L31.904444799818876,99.31098460844463L42.02342192539823,109.14619412425802z" style="fill:rgb(232,178,178)"/><path d="M-44.94535652501009,-54.54837275862388L-61.311892827290286,110.34757874965071L-51.99968159442586,100.2968454793681z" style="fill:rgb(19,175,175)"/><path d="M44.61744635136105,131.68605273096756L-41.203117159539275,150.77222079571519L-25.29069515728845,155.68294764653618zM44.61744635136105,131.68605273096756L-25.29069515728845,155.68294764653618L37.21377450850749,141.91355074027058z" style="fill:rgb(127,37,217)"/><path d="M17.07180258940913,91.04717213003796L31.904444799818876,99.31098460844463L27.57234035170422,-55.54053746418714z" style="fill:rgb(203,199,199)"/><path d="M-32.555541879651535,-62.189583286711084L-51.99968159442586,100.2968454793681L-37.70650035376033,92.69692690148447z" style="fill:rgb(47,197,197)"/><path d="M46.35288247825125,120.36332701316731L-53.9401400355649,142.9361108565654L-41.203117159539275,150.77222079571519z" style="fill:rgb(127,37,217)"/><path d="M17.00003732805722,92.04904258318234L17.07180258940913,91.04717213003796L14.751993485336461,-62.79738327421952z" style="fill:rgb(203,199,199)"/><path d="M46.35288247825125,120.36332701316731L-41.203117159539275,150.77222079571519L44.61744635136105,131.68605273096756z" style="fill:rgb(127,37,217)"/><path d="M14.676349941640304,-62.84021219609387L-1.0191494862011354,88.28412737082911L17.00003732805722,92.04904258318234z" style="fill:rgb(166,213,213)"/><path d="M-17.272379559778532,-66.39202635914361L-37.70650035376033,92.69692690148447L-20.01728635030357,88.51006421443586z" style="fill:rgb(83,212,212)"/><path d="M-0.8793681728852781,-66.61865535449697L-20.01728635030357,88.51006421443586L-1.0191494862011354,88.28412737082911z" style="fill:rgb(125,217,217)"/><path d="M42.02342192539823,109.14619412425802L-62.12366734059207,132.89698656888933L-53.9401400355649,142.9361108565654zM42.02342192539823,109.14619412425802L-53.9401400355649,142.9361108565654L46.35288247825125,120.36332701316731zM42.02342192539823,109.14619412425802L-64.7434764287179,121.63931158262572L-62.12366734059207,132.89698656888933zM31.904444799818876,99.31098460844463L-64.7434764287179,121.63931158262572L42.02342192539823,109.14619412425802zM-61.332136210590434,110.4141740296909L-64.7434764287179,121.63931158262572L16.508466413229485,92.22698931438863zM16.508466413229485,92.22698931438863L-64.7434764287179,121.63931158262572L31.904444799818876,99.31098460844463zM-61.311892827290286,110.34757874965071L-61.332136210590434,110.4141740296909L16.508466413229485,92.22698931438863zM-51.99968159442586,100.2968454793681L-61.311892827290286,110.34757874965071L-1.0191494862011354,88.28412737082911zM-61.311892827290286,110.34757874965071L16.508466413229485,92.22698931438863L17.00003732805722,92.04904258318234zM-61.311892827290286,110.34757874965071L17.00003732805722,92.04904258318234L-1.0191494862011354,88.28412737082911z" style="fill:rgb(127,37,217)"/><path d="M17.07180258940913,91.04717213003796L17.087552667521045,92.09169403759111L31.904444799818876,99.31098460844463z" style="fill:rgb(203,199,199)"/><path d="M16.508466413229485,92.22698931438863L31.904444799818876,99.31098460844463L17.087552667521045,92.09169403759111zM-20.01728635030357,88.51006421443586L-37.70650035376033,92.69692690148447L-51.99968159442586,100.2968454793681z" style="fill:rgb(127,37,217)"/><path d="M17.07180258940913,91.04717213003796L17.00003732805722,92.04904258318234L17.087552667521045,92.09169403759111z" style="fill:rgb(203,199,199)"/><path d="M-51.99968159442586,100.2968454793681L-1.0191494862011354,88.28412737082911L-20.01728635030357,88.51006421443586zM16.508466413229485,92.22698931438863L17.087552667521045,92.09169403759111L17.00003732805722,92.04904258318234z" style="fill:rgb(127,37,217)"/></svg>