<svg viewBox="-250 -250 500 500" width="500" height="500" xmlns="http://www.w3.org/2000/svg"><path d="M29.344468246995735,-25.05742043615085L15.74103731315599,-53.6916458510614L30.629963514957748,-22.126626601215854z" style="fill:rgb(243,180,133)"/><path d="M30.629963514957748,-22.126626601215854L17.012498430760946,-50.7843321793624L29.532313864227632,-18.55321846730912z" style="fill:rgb(243,133,180)"/><path d="M17.421244556539587,-12.990979902637116L3.4154624338958097,-41.46846191045785L14.136774078214073,-14.549168895077658z" style="fill:rgb(42,41,169)"/><path d="M29.532313864227632,-18.55321846730912L15.8445252683541,-47.199908983985814L26.330790563759102,-15.302874420647894z" style="fill:rgb(212,85,213)"/><path d="M21.889910246940506,-13.263768819215192L7.976953172972442,-41.8057787685704L17.421244556539587,-12.990979902637116z" style="fill:rgb(96,32,206)"/><path d="M26.330790563759102,-15.302874420647894L12.53461637117615,-43.9070493993496L21.889910246940506,-13.263768819215192z" style="fill:rgb(158,48,222)"/><path d="M30.629963514957748,-22.126626601215854L15.74103731315599,-53.6916458510614L17.012498430760946,-50.7843321793624z" style="fill:rgb(243,180,133)"/><path d="M14.136774078214073,-14.549168895077658L3.4154624338958097,-41.46846191045785L0.08765772529000886,-42.97696249469516z" style="fill:rgb(42,41,169)"/><path d="M3.3770330148413215,-52.71610001274126L12.39326788859346,-55.15223365734724L7.873289774174221,-54.792159131582395zM12.39326788859346,-55.15223365734724L3.3770330148413215,-52.71610001274126L0.08708739785909721,-49.47115874905159z" style="fill:rgb(83,212,212)"/><path d="M29.532313864227632,-18.55321846730912L17.012498430760946,-50.7843321793624L15.8445252683541,-47.199908983985814z" style="fill:rgb(243,133,180)"/><path d="M12.39326788859346,-55.15223365734724L0.08708739785909721,-49.47115874905159L15.74103731315599,-53.6916458510614z" style="fill:rgb(83,212,212)"/><path d="M17.421244556539587,-12.990979902637116L7.976953172972442,-41.8057787685704L3.4154624338958097,-41.46846191045785z" style="fill:rgb(96,32,206)"/><path d="M15.74103731315599,-53.6916458510614L0.08708739785909721,-49.47115874905159L-1.1223754390563994,-45.90946419295596z" style="fill:rgb(83,212,212)"/><path d="M26.330790563759102,-15.302874420647894L15.8445252683541,-47.199908983985814L12.53461637117615,-43.9070493993496z" style="fill:rgb(212,85,213)"/><path d="M21.889910246940506,-13.263768819215192L12.53461637117615,-43.9070493993496L7.976953172972442,-41.8057787685704z" style="fill:rgb(158,48,222)"/><path d="M15.74103731315599,-53.6916458510614L-1.1223754390563994,-45.90946419295596L17.012498430760946,-50.7843321793624zM17.012498430760946,-50.7843321793624L-1.1223754390563994,-45.90946419295596L0.08765772529000886,-42.97696249469516zM17.012498430760946,-50.7843321793624L0.08765772529000886,-42.97696249469516L15.8445252683541,-47.199908983985814zM15.8445252683541,-47.199908983985814L0.08765772529000886,-42.97696249469516L3.4154624338958097,-41.46846191045785zM15.8445252683541,-47.199908983985814L3.4154624338958097,-41.46846191045785L12.53461637117615,-43.9070493993496zM12.53461637117615,-43.9070493993496L3.4154624338958097,-41.46846191045785L7.976953172972442,-41.8057787685704z" style="fill:rgb(83,212,212)"/><path d="M51.41624041007365,-105.7085722708354L28.0750697924299,-160.96190577717402L56.61459259253452,-11.135712898822613z" style="fill:rgb(247,158,158)"/><path d="M-68.73690477902393,-40.095161877063155L28.0750697924299,-160.96190577717402L-62.268191897250794,-134.29959602957146z" style="fill:rgb(83,212,212)"/><path d="M56.61459259253452,-11.135712898822613L28.0750697924299,-160.96190577717402L31.064817755290793,-67.23315518198012z" style="fill:rgb(247,158,158)"/><path d="M56.61459259253452,-11.135712898822613L31.064817755290793,-67.23315518198012L-38.84963997106917,13.35603746654315z" style="fill:rgb(127,37,217)"/><path d="M28.0750697924299,-160.96190577717402L-68.73690477902393,-40.095161877063155L31.064817755290793,-67.23315518198012z" style="fill:rgb(83,212,212)"/><path d="M-38.84963997106917,13.35603746654315L31.064817755290793,-67.23315518198012L-68.73690477902393,-40.095161877063155z" style="fill:rgb(127,37,217)"/><path d="M-53.13078806542697,-43.568817588295595L-53.07114382077413,-44.417299599423764L-53.08917690475221,-44.35008070632772zM-64.7434764287179,121.63931158262572L-53.08917690475221,-44.35008070632772L-56.13298667573516,-33.000183071431415zM-64.7434764287179,121.63931158262572L-53.13078806542697,-43.568817588295595L-53.08917690475221,-44.35008070632772z" style="fill:rgb(3,148,148)"/><path d="M36.36887264636262,-45.62980458800537L42.02342192539823,109.14619412425802L40.180819022791155,-34.292198550167974z" style="fill:rgb(250,151,151)"/><path d="M-53.13078806542697,-43.568817588295595L-61.311892827290286,110.34757874965071L-53.07114382077413,-44.417299599423764z" style="fill:rgb(3,148,148)"/><path d="M-53.07114382077413,-44.417299599423764L-61.311892827290286,110.34757874965071L-44.94535652501009,-54.54837275862388z" style="fill:rgb(19,175,175)"/><path d="M27.57234035170422,-55.54053746418714L31.904444799818876,99.31098460844463L36.36887264636262,-45.62980458800537z" style="fill:rgb(232,178,178)"/><path d="M-44.94535652501009,-54.54837275862388L-51.99968159442586,100.2968454793681L-32.555541879651535,-62.189583286711084z" style="fill:rgb(47,197,197)"/><path d="M17.07180258940913,91.04717213003796L27.57234035170422,-55.54053746418714L14.751993485336461,-62.79738327421952zM17.00003732805722,92.04904258318234L14.751993485336461,-62.79738327421952L14.676349941640304,-62.84021219609387z" style="fill:rgb(203,199,199)"/><path d="M-32.555541879651535,-62.189583286711084L-37.70650035376033,92.69692690148447L-17.272379559778532,-66.39202635914361z" style="fill:rgb(83,212,212)"/><path d="M-0.8793681728852781,-66.61865535449697L-1.0191494862011354,88.28412737082911L14.676349941640304,-62.84021219609387z" style="fill:rgb(166,213,213)"/><path d="M-17.272379559778532,-66.39202635914361L-20.01728635030357,88.51006421443586L-0.8793681728852781,-66.61865535449697z" style="fill:rgb(125,217,217)"/><path d="M40.180819022791155,-34.292198550167974L42.02342192539823,109.14619412425802L46.35288247825125,120.36332701316731z" style="fill:rgb(250,151,151)"/><path d="M-53.13078806542697,-43.568817588295595L-64.7434764287179,121.63931158262572L-61.332136210590434,110.4141740296909z" style="fill:rgb(3,148,148)"/><path d="M25.081495689284715,150.03524677098386L-25.29069515728845,155.68294764653618L-7.805131613754568,157.23597909150638zM25.081495689284715,150.03524677098386L-7.805131613754568,157.23597909150638L9.5503230740821,155.2977906449698z" style="fill:rgb(127,37,217)"/><path d="M-53.13078806542697,-43.568817588295595L-61.332136210590434,110.4141740296909L-61.311892827290286,110.34757874965071z" style="fill:rgb(3,148,148)"/><path d="M37.21377450850749,141.91355074027058L-25.29069515728845,155.68294764653618L25.081495689284715,150.03524677098386z" style="fill:rgb(127,37,217)"/><path d="M36.36887264636262,-45.62980458800537L31.904444799818876,99.31098460844463L42.02342192539823,109.14619412425802z" style="fill:rgb(232,178,178)"/><path d="M-44.94535652501009,-54.54837275862388L-61.311892827290286,110.34757874965071L-51.99968159442586,100.2968454793681z" style="fill:rgb(19,175,175)"/><path d="M44.61744635136105,131.68605273096756L-41.203117159539275,150.77222079571519L-25.29069515728845,155.68294764653618zM44.61744635136105,131.68605273096756L-25.29069515728845,155.68294764653618L37.21377450850749,141.91355074027058z" style="fill:rgb(127,37,217)"/><path d="M17.07180258940913,91.04717213003796L31.904444799818876,99.31098460844463L27.57234035170422,-55.54053746418714z" style="fill:rgb(203,199,199)"/><path d="M-32.555541879651535,-62.189583286711084L-51.99968159442586,100.2968454793681L-37.70650035376033,92.69692690148447z" style="fill:rgb(47,197,197)"/><path d="M46.35288247825125,120.36332701316731L-53.9401400355649,142.9361108565654L-41.203117159539275,150.77222079571519z" style="fill:rgb(127,37,217)"/><path d="M17.00003732805722,92.04904258318234L17.07180258940913,91.04717213003796L14.751993485336461,-62.79738327421952z" style="fill:rgb(203,199,199)"/><path d="M46.35288247825125,120.36332701316731L-41.203117159539275,150.77222079571519L44.61744635136105,131.68605273096756z" style="fill:rgb(127,37,217)"/><path d="M14.676349941640304,-62.84021219609387L-1.0191494862011354,88.28412737082911L17.00003732805722,92.04904258318234z" style="fill:rgb(166,213,213)"/><path d="M-17.272379559778532,-66.39202635914361L-37.70650035376033,92.69692690148447L-20.01728635030357,88.51006421443586z" style="fill:rgb(83,212,212)"/><path d="M-0.8793681728852781,-66.61865535449697L-20.01728635030357,88.51006421443586L-1.0191494862011354,88.28412737082911z" style="fill:rgb(125,217,217)"/><path d="M42.02342192539823,109.14619412425802L-62.12366734059207,132.89698656888933L-53.9401400355649,142.9361108565654zM42.02342192539823,109.14619412425802L-53.9401400355649,142.9361108565654L46.35288247825125,120.36332701316731zM42.02342192539823,109.14619412425802L-64.7434764287179,121.63931158262572L-62.12366734059207,132.89698656888933zM31.904444799818876,99.31098460844463L-64.7434764287179,121.63931158262572L42.02342192539823,109.14619412425802zM-61.332136210590434,110.4141740296909L-64.7434764287179,121.63931158262572L16.508466413229485,92.22698931438863zM16.508466413229485,92.22698931438863L-64.7434764287179,121.63931158262572L31.904444799818876,99.31098460844463zM-61.311892827290286,110.34757874965071L-61.332136210590434,110.4141740296909L16.508466413229485,92.22698931438863zM-51.99968159442586,100.2968454793681L-61.311892827290286,110.34757874965071L-1.0191494862011354,88.28412737082911zM-61.311892827290286,110.34757874965071L16.508466413229485,92.22698931438863L17.00003732805722,92.04904258318234zM-61.311892827290286,110.34757874965071L17.00003732805722,92.04904258318234L-1.0191494862011354,88.28412737082911z" style="fill:rgb(127,37,217)"/><path d="M17.07180258940913,91.04717213003796L17.087552667521045,92.09169403759111L31.904444799818876,99.31098460844463z" style="fill:rgb(203,199,199)"/><path d="M16.508466413229485,92.22698931438863L31.904444799818876,99.31098460844463L17.087552667521045,92.09169403759111zM-20.01728635030357,88.51006421443586L-37.70650035376033,92.69692690148447L-51.99968159442586,100.2968454793681z" style="fill:rgb(127,37,217)"/><path d="M17.07180258940913,91.04717213003796L17.00003732805722,92.04904258318234L17.087552667521045,92.09169403759111z" style="fill:rgb(203,199,199)"/><path d="M-51.99968159442586,100.2968454793681L-1.0191494862011354,88.28412737082911L-20.01728635030357,88.51006421443586zM16.508466413229485,92.22698931438863L17.087552667521045,92.09169403759111L17.00003732805722,92.04904258318234z" style="fill:rgb(127,37,217)"/></svg>