<?xml version="1.0" encoding="UTF-8"?>
<!-- Generated by jsxcad -->
<!DOCTYPE svg PUBLIC "-//W3C//DTD SVG 1.1 Tiny//EN" "http://www.w3.org/Graphics/SVG/1.1/DTD/svg11-tiny.dtd">
<svg viewBox="-250 -250 500 500" width="500" height="500" xmlns="http://www.w3.org/2000/svg"><path d="M10.215469850630694,-31.774979382236687L-3.2076614085543733,-58.16603798333553L9.18966317185172,-32.88468260491731z" style="fill:rgb(21,57,142)"/><path d="M18.095687184607133,-68.5471503207835L30.26837517006237,-41.528336636432L30.01017756455604,-43.01232360718898z" style="fill:rgb(246,167,149)"/><path d="M11.593767954134963,-30.925274181378917L-2.17819255564713,-57.07201363105121L10.215469850630694,-31.774979382236687z" style="fill:rgb(34,46,160)"/><path d="M30.26837517006237,-41.528336636432L18.15294520696328,-65.46976006868036L30.102944410767453,-39.92700380738744z" style="fill:rgb(246,149,167)"/><path d="M13.272617290623458,-30.369760006309846L-0.7868525715258499,-56.242040786951705L11.593767954134963,-30.925274181378917z" style="fill:rgb(51,38,177)"/><path d="M30.102944410767453,-39.92700380738744L17.53830722729702,-63.80855896918093L29.51844618795845,-38.2701144396596z" style="fill:rgb(242,130,183)"/><path d="M2.8592463786231104,-55.4967267503202L13.272617290623458,-30.369760006309846L15.187772236706024,-30.13132768087846z" style="fill:rgb(71,33,192)"/><path d="M29.51844618795845,-38.2701144396596L16.51889070161773,-62.15092484695777L28.536052209551865,-36.62216854954195z" style="fill:rgb(233,112,197)"/><path d="M4.973654693558639,-55.612930516548474L15.187772236706024,-30.13132768087846L17.265103882451314,-30.220441132885163z" style="fill:rgb(92,32,204)"/><path d="M28.536052209551865,-36.62216854954195L15.133289689870216,-60.56186268124615L27.19294034308094,-35.04777336874134z" style="fill:rgb(220,94,208)"/><path d="M7.1746534122702315,-56.05460625736612L17.265103882451314,-30.220441132885163L19.42352572757424,-30.63453547691975z" style="fill:rgb(115,34,214)"/><path d="M27.19294034308094,-35.04777336874134L13.435005334322183,-59.104019049034385L25.540953948395874,-33.608977622513684z" style="fill:rgb(203,77,216)"/><path d="M9.375798272042871,-56.805043294797535L19.42352572757424,-30.63453547691975L21.578301558875214,-31.357981278882992z" style="fill:rgb(139,40,220)"/><path d="M13.435005334322183,-59.104019049034385L23.644574759466817,-32.36263436044179L25.540953948395874,-33.608977622513684z" style="fill:rgb(183,62,221)"/><path d="M11.490363519823466,-57.83502724208921L21.578301558875214,-31.357981278882992L23.644574759466817,-32.36263436044179z" style="fill:rgb(162,50,222)"/><path d="M2.816945830587759,-70.07828856442976L15.957176065389062,-71.15069644617286L4.895536191658924,-71.09170471855275zM0.9018074814966446,-68.83331910952761L15.957176065389062,-71.15069644617286L2.816945830587759,-70.07828856442976zM4.895536191658924,-71.09170471855275L15.957176065389062,-71.15069644617286L7.0597136146843145,-71.83555496243171zM-0.7779354299214102,-67.40330161521993L15.957176065389062,-71.15069644617286L0.9018074814966446,-68.83331910952761z" style="fill:rgb(83,212,212)"/><path d="M-3.2076614085543733,-58.16603798333553L10.215469850630694,-31.774979382236687L-2.17819255564713,-57.07201363105121z" style="fill:rgb(21,57,142)"/><path d="M7.0597136146843145,-71.83555496243171L15.957176065389062,-71.15069644617286L9.228380273655173,-72.28162373941174zM15.957176065389062,-71.15069644617286L-0.7779354299214102,-67.40330161521993L-1.753673681051355,-66.29978979141555z" style="fill:rgb(83,212,212)"/><path d="M30.26837517006237,-41.528336636432L18.095687184607133,-68.5471503207835L18.340518608677773,-67.06986181711576z" style="fill:rgb(246,167,149)"/><path d="M9.228380273655173,-72.28162373941174L15.957176065389062,-71.15069644617286L11.320014675144057,-72.41253789961884zM11.320014675144057,-72.41253789961884L15.957176065389062,-71.15069644617286L13.255530823540822,-72.22245412325837z" style="fill:rgb(83,212,212)"/><path d="M-2.17819255564713,-57.07201363105121L11.593767954134963,-30.925274181378917L-0.7868525715258499,-56.242040786951705z" style="fill:rgb(34,46,160)"/><path d="M18.15294520696328,-65.46976006868036L30.26837517006237,-41.528336636432L18.340518608677773,-67.06986181711576z" style="fill:rgb(246,149,167)"/><path d="M13.255530823540822,-72.22245412325837L15.957176065389062,-71.15069644617286L14.961121902910326,-71.71739855685775zM-2.158780924443907,-65.84163423696539L-2.17819255564713,-57.07201363105121L-1.753673681051355,-66.29978979141555zM-3.1879486641838457,-64.20678452574502L-2.17819255564713,-57.07201363105121L-2.158780924443907,-65.84163423696539zM-3.825363504781007,-62.56029187398637L-3.2076614085543733,-58.16603798333553L-3.1879486641838457,-64.20678452574502z" style="fill:rgb(83,212,212)"/><path d="M-0.7868525715258499,-56.242040786951705L13.272617290623458,-30.369760006309846L0.9139799244476633,-55.7096000007036z" style="fill:rgb(51,38,177)"/><path d="M17.53830722729702,-63.80855896918093L30.102944410767453,-39.92700380738744L18.15294520696328,-65.46976006868036z" style="fill:rgb(242,130,183)"/><path d="M-3.8374021939219847,-59.48070574580354L-3.825363504781007,-62.56029187398637L-4.045268411314751,-60.96458090060274z" style="fill:rgb(83,212,212)"/><path d="M13.272617290623458,-30.369760006309846L2.8592463786231104,-55.4967267503202L0.9139799244476633,-55.7096000007036z" style="fill:rgb(71,33,192)"/><path d="M-1.753673681051355,-66.29978979141555L-0.7868525715258499,-56.242040786951705L15.957176065389062,-71.15069644617286z" style="fill:rgb(83,212,212)"/><path d="M16.51889070161773,-62.15092484695777L29.51844618795845,-38.2701144396596L17.53830722729702,-63.80855896918093z" style="fill:rgb(233,112,197)"/><path d="M-3.825363504781007,-62.56029187398637L-3.8374021939219847,-59.48070574580354L-3.2076614085543733,-58.16603798333553z" style="fill:rgb(83,212,212)"/><path d="M15.187772236706024,-30.13132768087846L4.973654693558639,-55.612930516548474L2.8592463786231104,-55.4967267503202z" style="fill:rgb(92,32,204)"/><path d="M-3.1879486641838457,-64.20678452574502L-3.2076614085543733,-58.16603798333553L-2.17819255564713,-57.07201363105121z" style="fill:rgb(83,212,212)"/><path d="M15.133289689870216,-60.56186268124615L28.536052209551865,-36.62216854954195L16.51889070161773,-62.15092484695777z" style="fill:rgb(220,94,208)"/><path d="M-1.753673681051355,-66.29978979141555L-2.17819255564713,-57.07201363105121L-0.7868525715258499,-56.242040786951705z" style="fill:rgb(83,212,212)"/><path d="M17.265103882451314,-30.220441132885163L7.1746534122702315,-56.05460625736612L4.973654693558639,-55.612930516548474z" style="fill:rgb(115,34,214)"/><path d="M13.435005334322183,-59.104019049034385L27.19294034308094,-35.04777336874134L15.133289689870216,-60.56186268124615z" style="fill:rgb(203,77,216)"/><path d="M19.42352572757424,-30.63453547691975L9.375798272042871,-56.805043294797535L7.1746534122702315,-56.05460625736612z" style="fill:rgb(139,40,220)"/><path d="M15.957176065389062,-71.15069644617286L16.51889070161773,-62.15092484695777L16.371003058500794,-70.91525070587215z" style="fill:rgb(83,212,212)"/><path d="M23.644574759466817,-32.36263436044179L13.435005334322183,-59.104019049034385L11.490363519823466,-57.83502724208921z" style="fill:rgb(183,62,221)"/><path d="M21.578301558875214,-31.357981278882992L11.490363519823466,-57.83502724208921L9.375798272042871,-56.805043294797535z" style="fill:rgb(162,50,222)"/><path d="M16.371003058500794,-70.91525070587215L17.53830722729702,-63.80855896918093L17.42997546352982,-69.84525530556016zM17.42997546352982,-69.84525530556016L18.15294520696328,-65.46976006868036L18.095687184607133,-68.5471503207835zM15.957176065389062,-71.15069644617286L-0.7868525715258499,-56.242040786951705L0.9139799244476633,-55.7096000007036zM-4.030831896824912,-74.12279558548245L-2.3707807649296795,-62.44459115855035L-2.339015346383817,-75.55754546166062zM-5.422913205147706,-72.55756765066572L-4.077318797135666,-62.97061898523062L-4.030831896824912,-74.12279558548245zM-2.339015346383817,-75.55754546166062L-0.41762926695944474,-62.238754454879384L-0.4114133280868244,-76.80824453723322zM-6.462055238216404,-70.92045697508735L-5.471974129133189,-63.795039303096715L-5.422913205147706,-72.55756765066572zM18.095687184607133,-68.5471503207835L18.15294520696328,-65.46976006868036L18.340518608677773,-67.06986181711576zM-0.4114133280868244,-76.80824453723322L1.7065400116756428,-62.36235317937597L1.679574026065332,-77.8281936563356zM-7.1077982588264685,-69.27308490182199L-6.502257608199695,-64.88457267558582L-6.462055238216404,-70.92045697508735zM15.957176065389062,-71.15069644617286L0.9139799244476633,-55.7096000007036L2.8592463786231104,-55.4967267503202z" style="fill:rgb(83,212,212)"/><path d="M-2.17819255564713,-57.07201363105121L-6.502257608199695,-64.88457267558582L-3.2076614085543733,-58.16603798333553z" style="fill:rgb(21,57,142)"/><path d="M17.42997546352982,-69.84525530556016L17.53830722729702,-63.80855896918093L18.15294520696328,-65.46976006868036zM1.679574026065332,-77.8281936563356L3.9187887163569184,-62.811498098610585L3.8556284579494653,-78.5791232462795zM-7.130303432616128,-66.19597035512602L-7.1077982588264685,-69.27308490182199L-7.334055502495548,-67.67790983580556zM16.371003058500794,-70.91525070587215L16.51889070161773,-62.15092484695777L17.53830722729702,-63.80855896918093z" style="fill:rgb(83,212,212)"/><path d="M14.929349786188762,-75.33316363278885L18.340518608677773,-67.06986181711576L18.095687184607133,-68.5471503207835z" style="fill:rgb(246,167,149)"/><path d="M15.957176065389062,-71.15069644617286L2.8592463786231104,-55.4967267503202L4.973654693558639,-55.612930516548474zM3.8556284579494653,-78.5791232462795L6.132222267300747,-63.56918635925249L6.0352194153925955,-79.03257759923345zM15.957176065389062,-71.15069644617286L15.133289689870216,-60.56186268124615L16.51889070161773,-62.15092484695777zM15.957176065389062,-71.15069644617286L4.973654693558639,-55.612930516548474L7.1746534122702315,-56.05460625736612zM6.0352194153925955,-79.03257759923345L8.259617827166956,-64.60591527620099L8.13642305097514,-79.17088272813514zM15.957176065389062,-71.15069644617286L13.435005334322183,-59.104019049034385L15.133289689870216,-60.56186268124615zM-7.1077982588264685,-69.27308490182199L-7.130303432616128,-66.19597035512602L-6.502257608199695,-64.88457267558582zM15.957176065389062,-71.15069644617286L7.1746534122702315,-56.05460625736612L9.375798272042871,-56.805043294797535zM15.957176065389062,-71.15069644617286L11.490363519823466,-57.83502724208921L13.435005334322183,-59.104019049034385z" style="fill:rgb(83,212,212)"/><path d="M-0.7868525715258499,-56.242040786951705L-5.471974129133189,-63.795039303096715L-2.17819255564713,-57.07201363105121z" style="fill:rgb(34,46,160)"/><path d="M15.957176065389062,-71.15069644617286L9.375798272042871,-56.805043294797535L11.490363519823466,-57.83502724208921zM8.13642305097514,-79.17088272813514L8.259617827166956,-64.60591527620099L10.07979816971768,-78.9879164129572zM-6.462055238216404,-70.92045697508735L-6.502257608199695,-64.88457267558582L-5.471974129133189,-63.795039303096715zM10.07979816971768,-78.9879164129572L11.92776095803294,-67.34366345773654L11.791236223481764,-78.48944008690341z" style="fill:rgb(83,212,212)"/><path d="M-6.502257608199695,-64.88457267558582L-2.17819255564713,-57.07201363105121L-5.471974129133189,-63.795039303096715z" style="fill:rgb(21,57,142)"/><path d="M18.340518608677773,-67.06986181711576L14.976878641409648,-72.25850499918587L18.15294520696328,-65.46976006868036z" style="fill:rgb(246,149,167)"/><path d="M-5.422913205147706,-72.55756765066572L-5.471974129133189,-63.795039303096715L-4.077318797135666,-62.97061898523062z" style="fill:rgb(83,212,212)"/><path d="M0.9139799244476633,-55.7096000007036L-4.077318797135666,-62.97061898523062L-0.7868525715258499,-56.242040786951705z" style="fill:rgb(51,38,177)"/><path d="M18.340518608677773,-67.06986181711576L14.929349786188762,-75.33316363278885L15.170478440777929,-73.85797809132296z" style="fill:rgb(246,167,149)"/><path d="M11.791236223481764,-78.48944008690341L13.324740246002449,-68.93644797007605L13.204721868078257,-77.69305824648771zM-4.030831896824912,-74.12279558548245L-4.077318797135666,-62.97061898523062L-2.3707807649296795,-62.44459115855035zM13.204721868078257,-77.69305824648771L14.35410308696254,-70.59642851230961L14.264898628441236,-76.62778199840328z" style="fill:rgb(83,212,212)"/><path d="M18.15294520696328,-65.46976006868036L14.35410308696254,-70.59642851230961L17.53830722729702,-63.80855896918093z" style="fill:rgb(242,130,183)"/><path d="M-2.339015346383817,-75.55754546166062L-2.3707807649296795,-62.44459115855035L-0.41762926695944474,-62.238754454879384z" style="fill:rgb(83,212,212)"/><path d="M-5.471974129133189,-63.795039303096715L-0.7868525715258499,-56.242040786951705L-4.077318797135666,-62.97061898523062z" style="fill:rgb(34,46,160)"/><path d="M14.976878641409648,-72.25850499918587L18.340518608677773,-67.06986181711576L15.170478440777929,-73.85797809132296z" style="fill:rgb(246,149,167)"/><path d="M14.264898628441236,-76.62778199840328L14.976878641409648,-72.25850499918587L14.929349786188762,-75.33316363278885zM-0.4114133280868244,-76.80824453723322L-0.41762926695944474,-62.238754454879384L1.7065400116756428,-62.36235317937597z" style="fill:rgb(83,212,212)"/><path d="M-0.41762926695944474,-62.238754454879384L0.9139799244476633,-55.7096000007036L2.8592463786231104,-55.4967267503202z" style="fill:rgb(71,33,192)"/><path d="M17.53830722729702,-63.80855896918093L13.324740246002449,-68.93644797007605L16.51889070161773,-62.15092484695777z" style="fill:rgb(233,112,197)"/><path d="M1.679574026065332,-77.8281936563356L1.7065400116756428,-62.36235317937597L3.9187887163569184,-62.811498098610585z" style="fill:rgb(83,212,212)"/><path d="M-4.077318797135666,-62.97061898523062L0.9139799244476633,-55.7096000007036L-2.3707807649296795,-62.44459115855035z" style="fill:rgb(51,38,177)"/><path d="M14.35410308696254,-70.59642851230961L18.15294520696328,-65.46976006868036L14.976878641409648,-72.25850499918587z" style="fill:rgb(242,130,183)"/><path d="M14.929349786188762,-75.33316363278885L14.976878641409648,-72.25850499918587L15.170478440777929,-73.85797809132296zM3.8556284579494653,-78.5791232462795L3.9187887163569184,-62.811498098610585L6.132222267300747,-63.56918635925249z" style="fill:rgb(83,212,212)"/><path d="M1.7065400116756428,-62.36235317937597L2.8592463786231104,-55.4967267503202L4.973654693558639,-55.612930516548474z" style="fill:rgb(92,32,204)"/><path d="M14.264898628441236,-76.62778199840328L14.35410308696254,-70.59642851230961L14.976878641409648,-72.25850499918587zM6.0352194153925955,-79.03257759923345L6.132222267300747,-63.56918635925249L8.259617827166956,-64.60591527620099z" style="fill:rgb(83,212,212)"/><path d="M16.51889070161773,-62.15092484695777L11.92776095803294,-67.34366345773654L15.133289689870216,-60.56186268124615z" style="fill:rgb(220,94,208)"/><path d="M13.204721868078257,-77.69305824648771L13.324740246002449,-68.93644797007605L14.35410308696254,-70.59642851230961z" style="fill:rgb(83,212,212)"/><path d="M0.9139799244476633,-55.7096000007036L-0.41762926695944474,-62.238754454879384L-2.3707807649296795,-62.44459115855035z" style="fill:rgb(71,33,192)"/><path d="M11.791236223481764,-78.48944008690341L11.92776095803294,-67.34366345773654L13.324740246002449,-68.93644797007605zM10.07979816971768,-78.9879164129572L10.21711486223319,-65.88087400136898L11.92776095803294,-67.34366345773654z" style="fill:rgb(83,212,212)"/><path d="M3.9187887163569184,-62.811498098610585L4.973654693558639,-55.612930516548474L7.1746534122702315,-56.05460625736612z" style="fill:rgb(115,34,214)"/><path d="M10.07979816971768,-78.9879164129572L8.259617827166956,-64.60591527620099L10.21711486223319,-65.88087400136898z" style="fill:rgb(83,212,212)"/><path d="M13.324740246002449,-68.93644797007605L17.53830722729702,-63.80855896918093L14.35410308696254,-70.59642851230961z" style="fill:rgb(233,112,197)"/><path d="M15.133289689870216,-60.56186268124615L10.21711486223319,-65.88087400136898L13.435005334322183,-59.104019049034385z" style="fill:rgb(203,77,216)"/><path d="M6.132222267300747,-63.56918635925249L7.1746534122702315,-56.05460625736612L9.375798272042871,-56.805043294797535z" style="fill:rgb(139,40,220)"/><path d="M10.21711486223319,-65.88087400136898L11.490363519823466,-57.83502724208921L13.435005334322183,-59.104019049034385z" style="fill:rgb(183,62,221)"/><path d="M8.259617827166956,-64.60591527620099L9.375798272042871,-56.805043294797535L11.490363519823466,-57.83502724208921z" style="fill:rgb(162,50,222)"/><path d="M2.8592463786231104,-55.4967267503202L1.7065400116756428,-62.36235317937597L-0.41762926695944474,-62.238754454879384z" style="fill:rgb(92,32,204)"/><path d="M11.92776095803294,-67.34366345773654L16.51889070161773,-62.15092484695777L13.324740246002449,-68.93644797007605z" style="fill:rgb(220,94,208)"/><path d="M4.973654693558639,-55.612930516548474L3.9187887163569184,-62.811498098610585L1.7065400116756428,-62.36235317937597z" style="fill:rgb(115,34,214)"/><path d="M10.21711486223319,-65.88087400136898L15.133289689870216,-60.56186268124615L11.92776095803294,-67.34366345773654z" style="fill:rgb(203,77,216)"/><path d="M7.1746534122702315,-56.05460625736612L6.132222267300747,-63.56918635925249L3.9187887163569184,-62.811498098610585z" style="fill:rgb(139,40,220)"/><path d="M11.490363519823466,-57.83502724208921L10.21711486223319,-65.88087400136898L8.259617827166956,-64.60591527620099z" style="fill:rgb(183,62,221)"/><path d="M9.375798272042871,-56.805043294797535L8.259617827166956,-64.60591527620099L6.132222267300747,-63.56918635925249z" style="fill:rgb(162,50,222)"/><path d="M-28.84744297578534,-125.3863613277175L-29.195607188293707,-114.33427387606723L-27.06276562885219,-126.8556518398726zM-31.44310601617384,-122.14498805751111L-31.647789185549684,-116.1628216669359L-30.326381574898402,-123.79630782828052z" style="fill:rgb(83,212,212)"/><path d="M30.325884566599772,-69.04405171625999L47.92579651703391,-114.05999139570909L27.406014591938824,-162.63821309633587z" style="fill:rgb(247,158,158)"/><path d="M-30.326381574898402,-123.79630782828052L-29.195607188293707,-114.33427387606723L-28.84744297578534,-125.3863613277175zM-27.06276562885219,-126.8556518398726L-25.43569724686092,-113.71233290097129L-25.039735656246634,-128.14938583981007zM-25.039735656246634,-128.14938583981007L-23.23831186210418,-113.89508260500824L-22.85425178556789,-129.2192940548566zM-32.154167773564815,-120.49453908545829L-31.647789185549684,-116.1628216669359L-31.44310601617384,-122.14498805751111zM-22.85425178556789,-129.2192940548566L-20.941088791884557,-114.40316841889714L-20.588073347152864,-130.02528779204562zM-32.26068654024449,-117.44474667054226L-32.154167773564815,-120.49453908545829L-32.4308953109864,-118.90752976993245zM-20.588073347152864,-130.02528779204562L-20.941088791884557,-114.40316841889714L-18.326019267571958,-130.5368708662931zM-18.326019267571958,-130.5368708662931L-16.409046557646718,-116.30567784443018L-16.153039771599676,-130.73417357219185zM-32.154167773564815,-120.49453908545829L-32.26068654024449,-117.44474667054226L-31.647789185549684,-116.1628216669359zM-30.326381574898402,-123.79630782828052L-31.647789185549684,-116.1628216669359L-30.61348109624883,-115.1120433716852zM-16.153039771599676,-130.73417357219185L-14.353042913810933,-117.62545561039734L-14.151253165208384,-130.60884421898416z" style="fill:rgb(83,212,212)"/><path d="M-28.804876035884547,-111.42045010437707L-31.647789185549684,-116.1628216669359L-29.839021782123048,-112.47428024671376z" style="fill:rgb(21,57,142)"/><path d="M-14.151253165208384,-130.60884421898416L-12.547240812098618,-119.12438921381603L-12.396999525341684,-130.16437344738893z" style="fill:rgb(83,212,212)"/><path d="M-9.238021332407872,-127.1280613801081L-7.286484035920361,-121.94584778978698L-7.499571850161107,-123.4022609024526z" style="fill:rgb(246,167,149)"/><path d="M-30.326381574898402,-123.79630782828052L-30.61348109624883,-115.1120433716852L-29.195607188293707,-114.33427387606723zM-27.06276562885219,-126.8556518398726L-29.195607188293707,-114.33427387606723L-27.44741389559652,-113.8610918291001zM-12.396999525341684,-130.16437344738893L-11.062245838340969,-120.74314540889397L-10.95800145544712,-129.41623525896458z" style="fill:rgb(83,212,212)"/><path d="M-31.647789185549684,-116.1628216669359L-28.804876035884547,-111.42045010437707L-30.61348109624883,-115.1120433716852z" style="fill:rgb(21,57,142)"/><path d="M-27.38854903480561,-110.63907220713016L-30.61348109624883,-115.1120433716852L-28.804876035884547,-111.42045010437707z" style="fill:rgb(34,46,160)"/><path d="M-10.95800145544712,-129.41623525896458L-9.955454535861339,-122.41788334929136L-9.890721665695668,-128.3914989590136zM-27.06276562885219,-126.8556518398726L-27.44741389559652,-113.8610918291001L-25.43569724686092,-113.71233290097129z" style="fill:rgb(83,212,212)"/><path d="M-7.286484035920361,-121.94584778978698L-9.238021332407872,-127.1280613801081L-9.027238955490548,-125.67338734133257z" style="fill:rgb(246,167,149)"/><path d="M-9.890721665695668,-128.3914989590136L-9.268799862946274,-124.08290178202269L-9.238021332407872,-127.1280613801081z" style="fill:rgb(83,212,212)"/><path d="M-7.286484035920361,-121.94584778978698L-9.268799862946274,-124.08290178202269L-7.524478441574735,-120.35446844379159z" style="fill:rgb(246,149,167)"/><path d="M-25.039735656246634,-128.14938583981007L-25.43569724686092,-113.71233290097129L-23.23831186210418,-113.89508260500824zM-63.11199190517584,-135.88271670937408L30.325884566599772,-69.04405171625999L27.406014591938824,-162.63821309633587z" style="fill:rgb(83,212,212)"/><path d="M-25.643238213550582,-110.16185889580011L-29.195607188293707,-114.33427387606723L-27.38854903480561,-110.63907220713016z" style="fill:rgb(51,38,177)"/><path d="M-30.61348109624883,-115.1120433716852L-27.38854903480561,-110.63907220713016L-29.195607188293707,-114.33427387606723z" style="fill:rgb(34,46,160)"/><path d="M-9.268799862946274,-124.08290178202269L-7.286484035920361,-121.94584778978698L-9.027238955490548,-125.67338734133257z" style="fill:rgb(246,149,167)"/><path d="M-22.85425178556789,-129.2192940548566L-23.23831186210418,-113.89508260500824L-20.941088791884557,-114.40316841889714zM-9.238021332407872,-127.1280613801081L-9.268799862946274,-124.08290178202269L-9.027238955490548,-125.67338734133257zM-18.326019267571958,-130.5368708662931L-20.941088791884557,-114.40316841889714L-18.634335885047257,-115.21728987081943zM-9.890721665695668,-128.3914989590136L-9.955454535861339,-122.41788334929136L-9.268799862946274,-124.08290178202269z" style="fill:rgb(83,212,212)"/><path d="M-7.524478441574735,-120.35446844379159L-9.955454535861339,-122.41788334929136L-8.206433698005258,-118.68943984971659z" style="fill:rgb(242,130,183)"/><path d="M-18.326019267571958,-130.5368708662931L-18.634335885047257,-115.21728987081943L-16.409046557646718,-116.30567784443018zM-10.95800145544712,-129.41623525896458L-11.062245838340969,-120.74314540889397L-9.955454535861339,-122.41788334929136zM-16.153039771599676,-130.73417357219185L-16.409046557646718,-116.30567784443018L-14.353042913810933,-117.62545561039734zM-12.396999525341684,-130.16437344738893L-12.547240812098618,-119.12438921381603L-11.062245838340969,-120.74314540889397zM-14.151253165208384,-130.60884421898416L-14.353042913810933,-117.62545561039734L-12.547240812098618,-119.12438921381603z" style="fill:rgb(83,212,212)"/><path d="M-29.195607188293707,-114.33427387606723L-25.643238213550582,-110.16185889580011L-27.44741389559652,-113.8610918291001z" style="fill:rgb(51,38,177)"/><path d="M-9.955454535861339,-122.41788334929136L-7.524478441574735,-120.35446844379159L-9.268799862946274,-124.08290178202269z" style="fill:rgb(242,130,183)"/><path d="M-25.43569724686092,-113.71233290097129L-25.643238213550582,-110.16185889580011L-23.635641055898144,-110.0087950763661z" style="fill:rgb(71,33,192)"/><path d="M-8.206433698005258,-118.68943984971659L-11.062245838340969,-120.74314540889397L-9.307566485781281,-117.0155774092721z" style="fill:rgb(233,112,197)"/><path d="M-25.643238213550582,-110.16185889580011L-25.43569724686092,-113.71233290097129L-27.44741389559652,-113.8610918291001z" style="fill:rgb(71,33,192)"/><path d="M-11.062245838340969,-120.74314540889397L-8.206433698005258,-118.68943984971659L-9.955454535861339,-122.41788334929136z" style="fill:rgb(233,112,197)"/><path d="M-23.23831186210418,-113.89508260500824L-23.635641055898144,-110.0087950763661L-21.443446648121004,-110.18712983035904z" style="fill:rgb(92,32,204)"/><path d="M-9.307566485781281,-117.0155774092721L-12.547240812098618,-119.12438921381603L-10.786159951690129,-115.39854660361485z" style="fill:rgb(220,94,208)"/><path d="M-23.635641055898144,-110.0087950763661L-23.23831186210418,-113.89508260500824L-25.43569724686092,-113.71233290097129z" style="fill:rgb(92,32,204)"/><path d="M-20.941088791884557,-114.40316841889714L-21.443446648121004,-110.18712983035904L-19.152283164097113,-110.6908611464739z" style="fill:rgb(115,34,214)"/><path d="M-10.786159951690129,-115.39854660361485L-14.353042913810933,-117.62545561039734L-12.585069646269666,-113.90211746918148z" style="fill:rgb(203,77,216)"/><path d="M-12.547240812098618,-119.12438921381603L-9.307566485781281,-117.0155774092721L-11.062245838340969,-120.74314540889397z" style="fill:rgb(220,94,208)"/><path d="M-18.634335885047257,-115.21728987081943L-19.152283164097113,-110.6908611464739L-16.85221507339478,-111.5008595505793z" style="fill:rgb(139,40,220)"/><path d="M-14.353042913810933,-117.62545561039734L-14.633964094709897,-112.58552039922107L-12.585069646269666,-113.90211746918148z" style="fill:rgb(183,62,221)"/><path d="M-16.409046557646718,-116.30567784443018L-16.85221507339478,-111.5008595505793L-14.633964094709897,-112.58552039922107z" style="fill:rgb(162,50,222)"/><path d="M-21.443446648121004,-110.18712983035904L-20.941088791884557,-114.40316841889714L-23.23831186210418,-113.89508260500824z" style="fill:rgb(115,34,214)"/><path d="M-14.353042913810933,-117.62545561039734L-10.786159951690129,-115.39854660361485L-12.547240812098618,-119.12438921381603z" style="fill:rgb(203,77,216)"/><path d="M-19.152283164097113,-110.6908611464739L-18.634335885047257,-115.21728987081943L-20.941088791884557,-114.40316841889714z" style="fill:rgb(139,40,220)"/><path d="M-14.633964094709897,-112.58552039922107L-14.353042913810933,-117.62545561039734L-16.409046557646718,-116.30567784443018z" style="fill:rgb(183,62,221)"/><path d="M-16.85221507339478,-111.5008595505793L-16.409046557646718,-116.30567784443018L-18.634335885047257,-115.21728987081943z" style="fill:rgb(162,50,222)"/><path d="M47.92579651703391,-114.05999139570909L30.325884566599772,-69.04405171625999L52.80491110097405,-19.68042982413533z" style="fill:rgb(247,158,158)"/><path d="M30.325884566599772,-69.04405171625999L-63.11199190517584,-135.88271670937408L-69.67109176818585,-41.80360895757674z" style="fill:rgb(83,212,212)"/><path d="M30.325884566599772,-69.04405171625999L-43.379066427562684,5.219379943899336L52.80491110097405,-19.68042982413533zM-43.379066427562684,5.219379943899336L30.325884566599772,-69.04405171625999L-69.67109176818585,-41.80360895757674z" style="fill:rgb(127,37,217)"/><path d="M2.7951048517456307,117.3280618265333L2.5573418746705325,-35.586599356800335L2.4216203894219746,-37.46438660823681z" style="fill:rgb(254,132,132)"/><path d="M-23.624794408955218,-36.422683792688765L-26.898959365274933,116.51443987067086L-23.30195476526999,-38.28725483813116z" style="fill:rgb(1,140,140)"/><path d="M2.0622715149294173,115.52037528632223L2.4216203894219746,-37.46438660823681L1.7862420695732546,-39.29235670426406z" style="fill:rgb(251,149,149)"/><path d="M-26.898959365274933,116.51443987067086L-22.485299424884655,-40.07007999186425L-23.30195476526999,-38.28725483813116z" style="fill:rgb(7,157,157)"/><path d="M0.6733339930409181,-40.99938135383196L2.0622715149294173,115.52037528632223L1.7862420695732546,-39.29235670426406z" style="fill:rgb(242,166,166)"/><path d="M-22.485299424884655,-40.07007999186425L-24.489273706269504,113.13655305120933L-21.204144568133266,-41.70147443439386z" style="fill:rgb(17,173,173)"/><path d="M-0.8759839934661865,-42.51838661471667L0.7775746195230587,113.83144362935654L0.6733339930409181,-40.99938135383196z" style="fill:rgb(229,181,181)"/><path d="M-21.204144568133266,-41.70147443439386L-22.533084668790647,111.73504055907809L-19.506419680749794,-43.117089802498235z" style="fill:rgb(32,187,187)"/><path d="M-3.238140627813078,111.0694427181168L-0.8759839934661865,-42.51838661471667L-2.8029210275653362,-43.78917561214328z" style="fill:rgb(212,194,194)"/><path d="M-22.533084668790647,111.73504055907809L-17.45703101775124,-44.26062122160909L-19.506419680749794,-43.117089802498235z" style="fill:rgb(50,199,199)"/><path d="M-5.03315263215833,-44.76099837394031L-3.238140627813078,111.0694427181168L-2.8029210275653362,-43.78917561214328z" style="fill:rgb(192,205,205)"/><path d="M-17.45703101775124,-44.26062122160909L-17.488799061968802,109.78451191355462L-15.13542228865184,-45.08627589294544z" style="fill:rgb(72,208,208)"/><path d="M-8.643100090894087,109.47879348551156L-5.03315263215833,-44.76099837394031L-7.47971282318101,-45.39481905303056z" style="fill:rgb(169,212,212)"/><path d="M-17.488799061968802,109.78451191355462L-12.632427787606854,-45.56081233847807L-15.13542228865184,-45.08627589294544z" style="fill:rgb(95,214,214)"/><path d="M-10.04652803184589,-45.665065638983485L-8.643100090894087,109.47879348551156L-7.47971282318101,-45.39481905303056z" style="fill:rgb(145,216,216)"/><path d="M-12.632427787606854,-45.56081233847807L-11.609604133799674,109.21099232080807L-10.04652803184589,-45.665065638983485z" style="fill:rgb(120,217,217)"/><path d="M2.5573418746705325,-35.586599356800335L2.7951048517456307,117.3280618265333L2.9509664939646707,119.18402431360455z" style="fill:rgb(254,132,132)"/><path d="M-26.898959365274933,116.51443987067086L-23.624794408955218,-36.422683792688765L-27.264367014782007,118.35778569060315z" style="fill:rgb(1,140,140)"/><path d="M2.4216203894219746,-37.46438660823681L2.0622715149294173,115.52037528632223L2.7951048517456307,117.3280618265333z" style="fill:rgb(251,149,149)"/><path d="M-22.485299424884655,-40.07007999186425L-26.898959365274933,116.51443987067086L-25.96285808544597,114.75100780375618z" style="fill:rgb(7,157,157)"/><path d="M2.0622715149294173,115.52037528632223L0.6733339930409181,-40.99938135383196L0.7775746195230587,113.83144362935654z" style="fill:rgb(242,166,166)"/><path d="M-24.489273706269504,113.13655305120933L-22.485299424884655,-40.07007999186425L-25.96285808544597,114.75100780375618z" style="fill:rgb(17,173,173)"/><path d="M0.7775746195230587,113.83144362935654L-0.8759839934661865,-42.51838661471667L-1.011817206702586,112.32784020775544z" style="fill:rgb(229,181,181)"/><path d="M-22.533084668790647,111.73504055907809L-21.204144568133266,-41.70147443439386L-24.489273706269504,113.13655305120933z" style="fill:rgb(32,187,187)"/><path d="M-0.8759839934661865,-42.51838661471667L-3.238140627813078,111.0694427181168L-1.011817206702586,112.32784020775544z" style="fill:rgb(212,194,194)"/><path d="M-17.45703101775124,-44.26062122160909L-22.533084668790647,111.73504055907809L-20.169007106410668,110.60248059768112z" style="fill:rgb(50,199,199)"/><path d="M-3.238140627813078,111.0694427181168L-5.03315263215833,-44.76099837394031L-5.81547684306327,110.10678260045016z" style="fill:rgb(192,205,205)"/><path d="M-17.488799061968802,109.78451191355462L-17.45703101775124,-44.26062122160909L-20.169007106410668,110.60248059768112z" style="fill:rgb(72,208,208)"/><path d="M-5.03315263215833,-44.76099837394031L-8.643100090894087,109.47879348551156L-5.81547684306327,110.10678260045016z" style="fill:rgb(169,212,212)"/><path d="M-12.632427787606854,-45.56081233847807L-17.488799061968802,109.78451191355462L-14.597610099530373,109.31430856782484z" style="fill:rgb(95,214,214)"/><path d="M-8.643100090894087,109.47879348551156L-10.04652803184589,-45.665065638983485L-11.609604133799674,109.21099232080807z" style="fill:rgb(145,216,216)"/><path d="M-11.609604133799674,109.21099232080807L-12.632427787606854,-45.56081233847807L-14.597610099530373,109.31430856782484z" style="fill:rgb(120,217,217)"/><path d="M-11.609604133799674,109.21099232080807L-12.679299037356284,128.13711789162753L-9.751424086689907,128.037931714974zM-14.597610099530373,109.31430856782484L-15.5875385592807,127.87993260990518L-12.679299037356284,128.13711789162753zM-8.643100090894087,109.47879348551156L-9.751424086689907,128.037931714974L-6.913074980729353,127.58597681711944zM-17.488799061968802,109.78451191355462L-18.367632412948183,127.27568875202938L-15.5875385592807,127.87993260990518zM-5.81547684306327,110.10678260045016L-6.913074980729353,127.58597681711944L-4.270371234968881,126.79760390071324zM-20.169007106410668,110.60248059768112L-20.915413317630087,126.34628740008431L-18.367632412948183,127.27568875202938zM-3.238140627813078,111.0694427181168L-4.270371234968881,126.79760390071324L-1.9227514689341563,125.70146288169632zM-22.533084668790647,111.73504055907809L-23.134652389935066,125.12559821032626L-20.915413317630087,126.34628740008431zM-1.011817206702586,112.32784020775544L-1.9227514689341563,125.70146288169632L0.04052757709533471,124.33764755164266zM-24.489273706269504,113.13655305120933L-24.94050801788977,123.65841161590107L-23.134652389935066,125.12559821032626zM0.7775746195230587,113.83144362935654L0.04052757709533471,124.33764755164266L1.5436704986398246,122.75645853328378zM-25.96285808544597,114.75100780375618L-26.262709470629076,121.9990616147863L-24.94050801788977,123.65841161590107zM2.0622715149294173,115.52037528632223L1.5436704986398246,122.75645853328378L2.5272989155845114,121.01675634662077zM-26.898959365274933,116.51443987067086L-27.04838176457623,120.20961892385381L-26.262709470629076,121.9990616147863zM2.7951048517456307,117.3280618265333L2.5272989155845114,121.01675634662077L2.9509664939646707,119.18402431360455zM-27.04838176457623,120.20961892385381L-26.898959365274933,116.51443987067086L-27.264367014782007,118.35778569060315zM2.0622715149294173,115.52037528632223L2.5272989155845114,121.01675634662077L2.7951048517456307,117.3280618265333zM-26.898959365274933,116.51443987067086L-26.262709470629076,121.9990616147863L-25.96285808544597,114.75100780375618zM0.7775746195230587,113.83144362935654L1.5436704986398246,122.75645853328378L2.0622715149294173,115.52037528632223zM-25.96285808544597,114.75100780375618L-24.94050801788977,123.65841161590107L-24.489273706269504,113.13655305120933zM-1.011817206702586,112.32784020775544L0.04052757709533471,124.33764755164266L0.7775746195230587,113.83144362935654zM-24.489273706269504,113.13655305120933L-23.134652389935066,125.12559821032626L-22.533084668790647,111.73504055907809zM-3.238140627813078,111.0694427181168L-1.9227514689341563,125.70146288169632L-1.011817206702586,112.32784020775544zM-22.533084668790647,111.73504055907809L-20.915413317630087,126.34628740008431L-20.169007106410668,110.60248059768112zM-5.81547684306327,110.10678260045016L-4.270371234968881,126.79760390071324L-3.238140627813078,111.0694427181168zM-20.169007106410668,110.60248059768112L-18.367632412948183,127.27568875202938L-17.488799061968802,109.78451191355462zM-8.643100090894087,109.47879348551156L-6.913074980729353,127.58597681711944L-5.81547684306327,110.10678260045016zM-17.488799061968802,109.78451191355462L-15.5875385592807,127.87993260990518L-14.597610099530373,109.31430856782484zM-11.609604133799674,109.21099232080807L-9.751424086689907,128.037931714974L-8.643100090894087,109.47879348551156zM-14.597610099530373,109.31430856782484L-12.679299037356284,128.13711789162753L-11.609604133799674,109.21099232080807z" style="fill:rgb(127,37,217)"/></svg>
