<?xml version="1.0" encoding="UTF-8"?>
<!-- Generated by jsxcad -->
<!DOCTYPE svg PUBLIC "-//W3C//DTD SVG 1.1 Tiny//EN" "http://www.w3.org/Graphics/SVG/1.1/DTD/svg11-tiny.dtd">
<svg viewBox="-250 -250 500 500" width="500" height="500" xmlns="http://www.w3.org/2000/svg"><path d="M14.937857133990613,-47.085366980310894L-0.9238672351124196,-80.1801855010292L14.370787088694753,-48.23075032525045z" style="fill:rgb(12,71,124)"/><path d="M15.847685782616464,-46.130143234634794L-0.362768827853412,-79.0484269394889L14.937857133990613,-47.085366980310894z" style="fill:rgb(21,57,142)"/><path d="M18.47292213367895,-88.23729563443514L33.47529073175433,-54.7095871739373L33.243822892086925,-55.99568484407043z" style="fill:rgb(246,167,149)"/><path d="M17.066557012429154,-45.4027971315214L0.5514299428525211,-78.11187184750796L15.847685782616464,-46.130143234634794z" style="fill:rgb(34,46,160)"/><path d="M33.47529073175433,-54.7095871739373L18.52458025810932,-85.57265078324374L33.33412618020672,-53.31970900925059z" style="fill:rgb(246,149,167)"/><path d="M18.548419388455635,-44.932457797483124L1.7849266263444592,-77.40756989667298L17.066557012429154,-45.4027971315214z" style="fill:rgb(51,38,177)"/><path d="M33.33412618020672,-53.31970900925059L17.98191420192889,-84.12901272960936L32.82436246634058,-51.879632763884814z" style="fill:rgb(242,130,183)"/><path d="M5.0124974156392135,-76.79885136345226L18.548419388455635,-44.932457797483124L20.23652898748359,-44.73837684539802z" style="fill:rgb(71,33,192)"/><path d="M32.82436246634058,-51.879632763884814L17.08169856524943,-82.68509254127223L31.964593947934805,-50.445331362797226z" style="fill:rgb(233,112,197)"/><path d="M6.882346991830793,-76.92004173616965L20.23652898748359,-44.73837684539802L22.06559234139961,-44.82900368493188z" style="fill:rgb(92,32,204)"/><path d="M31.964593947934805,-50.445331362797226L15.858068131957497,-81.29737343236184L30.787410005563345,-49.072899991151495z" style="fill:rgb(220,94,208)"/><path d="M8.827842193754451,-77.323376667342L22.06559234139961,-44.82900368493188L23.964346964161578,-45.201494125305764z" style="fill:rgb(115,34,214)"/><path d="M30.787410005563345,-49.072899991151495L14.358248270508819,-80.02038987753396L29.338220445369167,-47.8162527999418z" style="fill:rgb(203,77,216)"/><path d="M10.772764301993588,-77.9935304583444L23.964346964161578,-45.201494125305764L25.85843450623617,-45.841741128130884z" style="fill:rgb(139,40,220)"/><path d="M14.358248270508819,-80.02038987753396L27.673487138747202,-46.72487804647016L29.338220445369167,-47.8162527999418z" style="fill:rgb(183,62,221)"/><path d="M12.64070275728843,-78.90445614873701L25.85843450623617,-45.841741128130884L27.673487138747202,-46.72487804647016z" style="fill:rgb(162,50,222)"/><path d="M-0.9238672351124196,-80.1801855010292L14.937857133990613,-47.085366980310894L-0.362768827853412,-79.0484269394889z" style="fill:rgb(12,71,124)"/><path d="M-0.362768827853412,-79.0484269394889L15.847685782616464,-46.130143234634794L0.5514299428525211,-78.11187184750796z" style="fill:rgb(21,57,142)"/><path d="M33.47529073175433,-54.7095871739373L18.47292213367895,-88.23729563443514L18.68988017624683,-86.95989896144539z" style="fill:rgb(246,167,149)"/><path d="M0.5514299428525211,-78.11187184750796L17.066557012429154,-45.4027971315214L1.7849266263444592,-77.40756989667298z" style="fill:rgb(34,46,160)"/><path d="M18.52458025810932,-85.57265078324374L33.47529073175433,-54.7095871739373L18.68988017624683,-86.95989896144539z" style="fill:rgb(246,149,167)"/><path d="M1.7849266263444592,-77.40756989667298L18.548419388455635,-44.932457797483124L3.2911663744589257,-76.9638081256426z" style="fill:rgb(51,38,177)"/><path d="M17.98191420192889,-84.12901272960936L33.33412618020672,-53.31970900925059L18.52458025810932,-85.57265078324374z" style="fill:rgb(242,130,183)"/><path d="M18.548419388455635,-44.932457797483124L5.0124974156392135,-76.79885136345226L3.2911663744589257,-76.9638081256426z" style="fill:rgb(71,33,192)"/><path d="M17.08169856524943,-82.68509254127223L32.82436246634058,-51.879632763884814L17.98191420192889,-84.12901272960936z" style="fill:rgb(233,112,197)"/><path d="M20.23652898748359,-44.73837684539802L6.882346991830793,-76.92004173616965L5.0124974156392135,-76.79885136345226z" style="fill:rgb(92,32,204)"/><path d="M3.252372876676756,-88.32842552114998L3.2911663744589257,-76.9638081256426L4.946863264412815,-89.42572240464057z" style="fill:rgb(83,212,212)"/><path d="M15.858068131957497,-81.29737343236184L31.964593947934805,-50.445331362797226L17.08169856524943,-82.68509254127223z" style="fill:rgb(220,94,208)"/><path d="M1.7670250430774894,-87.07290295101228L3.2911663744589257,-76.9638081256426L3.252372876676756,-88.32842552114998zM0.5470813241957216,-85.70619649698922L1.7849266263444592,-77.40756989667298L1.7670250430774894,-87.07290295101228zM-0.36079627859842484,-84.27964662394375L0.5514299428525211,-78.11187184750796L0.5470813241957216,-85.70619649698922z" style="fill:rgb(83,212,212)"/><path d="M22.06559234139961,-44.82900368493188L8.827842193754451,-77.323376667342L6.882346991830793,-76.92004173616965z" style="fill:rgb(115,34,214)"/><path d="M4.946863264412815,-89.42572240464057L6.882346991830793,-76.92004173616965L6.786673172221381,-90.3236586796392zM-0.9213032068051441,-82.84708796624464L-0.362768827853412,-79.0484269394889L-0.36079627859842484,-84.27964662394375zM6.786673172221381,-90.3236586796392L6.882346991830793,-76.92004173616965L8.70267711666502,-90.98847247420204z" style="fill:rgb(83,212,212)"/><path d="M14.358248270508819,-80.02038987753396L30.787410005563345,-49.072899991151495L15.858068131957497,-81.29737343236184z" style="fill:rgb(203,77,216)"/><path d="M-0.9238672351124196,-80.1801855010292L-0.9213032068051441,-82.84708796624464L-1.1119085265579247,-81.46293250348z" style="fill:rgb(83,212,212)"/><path d="M23.964346964161578,-45.201494125305764L10.772764301993588,-77.9935304583444L8.827842193754451,-77.323376667342z" style="fill:rgb(139,40,220)"/><path d="M27.673487138747202,-46.72487804647016L14.358248270508819,-80.02038987753396L12.64070275728843,-78.90445614873701z" style="fill:rgb(183,62,221)"/><path d="M25.85843450623617,-45.841741128130884L12.64070275728843,-78.90445614873701L10.772764301993588,-77.9935304583444z" style="fill:rgb(162,50,222)"/><path d="M8.70267711666502,-90.98847247420204L10.772764301993588,-77.9935304583444L10.62286674800043,-91.3948961027222zM10.62286674800043,-91.3948961027222L12.64070275728843,-78.90445614873701L12.474876677625288,-91.52716289164559zM-0.9213032068051441,-82.84708796624464L-0.9238672351124196,-80.1801855010292L-0.362768827853412,-79.0484269394889zM12.474876677625288,-91.52716289164559L12.64070275728843,-78.90445614873701L14.188548297033902,-91.3795712579952zM-0.36079627859842484,-84.27964662394375L-0.362768827853412,-79.0484269394889L0.5514299428525211,-78.11187184750796zM0.5470813241957216,-85.70619649698922L0.5514299428525211,-78.11187184750796L1.7849266263444592,-77.40756989667298zM14.188548297033902,-91.3795712579952L14.358248270508819,-80.02038987753396L15.698475313686348,-90.95683188910404zM15.698475313686348,-90.95683188910404L17.08169856524943,-82.68509254127223L16.946445125258116,-90.27397989505818zM1.7670250430774894,-87.07290295101228L1.7849266263444592,-77.40756989667298L3.2911663744589257,-76.9638081256426zM4.946863264412815,-89.42572240464057L3.2911663744589257,-76.9638081256426L5.0124974156392135,-76.79885136345226zM16.946445125258116,-90.27397989505818L17.08169856524943,-82.68509254127223L17.88369714003885,-89.35607130034438zM17.88369714003885,-89.35607130034438L18.52458025810932,-85.57265078324374L18.47292213367895,-88.23729563443514zM4.946863264412815,-89.42572240464057L5.0124974156392135,-76.79885136345226L6.882346991830793,-76.92004173616965zM8.70267711666502,-90.98847247420204L6.882346991830793,-76.92004173616965L8.827842193754451,-77.323376667342zM18.47292213367895,-88.23729563443514L18.52458025810932,-85.57265078324374L18.68988017624683,-86.95989896144539zM8.70267711666502,-90.98847247420204L8.827842193754451,-77.323376667342L10.772764301993588,-77.9935304583444zM17.88369714003885,-89.35607130034438L17.98191420192889,-84.12901272960936L18.52458025810932,-85.57265078324374zM10.62286674800043,-91.3948961027222L10.772764301993588,-77.9935304583444L12.64070275728843,-78.90445614873701zM15.698475313686348,-90.95683188910404L15.858068131957497,-81.29737343236184L17.08169856524943,-82.68509254127223zM14.188548297033902,-91.3795712579952L12.64070275728843,-78.90445614873701L14.358248270508819,-80.02038987753396zM17.88369714003885,-89.35607130034438L17.08169856524943,-82.68509254127223L17.98191420192889,-84.12901272960936zM15.698475313686348,-90.95683188910404L14.358248270508819,-80.02038987753396L15.858068131957497,-81.29737343236184z" style="fill:rgb(83,212,212)"/><path d="M-62.7426359330641,-52.58560755843998L-72.55943402752791,112.46120902820124L-61.68442452746273,-60.43388954070569z" style="fill:rgb(1,140,140)"/><path d="M42.51288618520956,-64.70000654593247L52.735450597960046,115.9046975362834L44.856523604092516,-56.95980722778963z" style="fill:rgb(251,149,149)"/><path d="M-72.55943402752791,112.46120902820124L-58.54425296682608,-68.01826167453996L-61.68442452746273,-60.43388954070569z" style="fill:rgb(7,157,157)"/><path d="M44.93526004460889,100.96621087449508L42.51288618520956,-64.70000654593247L38.129779819046774,-72.00313851478373z" style="fill:rgb(242,166,166)"/><path d="M-58.54425296682608,-68.01826167453996L-62.96824581732399,97.95353343254155L-53.40574848919579,-75.02819650812431z" style="fill:rgb(17,173,173)"/><path d="M37.56856515713194,94.42875841486828L38.129779819046774,-72.00313851478373L31.845253959820894,-78.5637364094603z" style="fill:rgb(229,181,181)"/><path d="M-53.40574848919579,-75.02819650812431L-54.81133596406321,91.83214025303126L-46.44181073556297,-81.16571944572078z" style="fill:rgb(32,187,187)"/><path d="M28.20357174977556,88.90367513949624L31.845253959820894,-78.5637364094603L23.885725181896493,-84.09762965584231z" style="fill:rgb(212,194,194)"/><path d="M-54.81133596406321,91.83214025303126L-37.9123077977409,-86.16123609548967L-46.44181073556297,-81.16571944572078z" style="fill:rgb(50,199,199)"/><path d="M17.203985035701603,84.6435746634978L23.885725181896493,-84.09762965584231L14.560159878449294,-88.35781857022972z" style="fill:rgb(192,205,205)"/><path d="M-37.9123077977409,-86.16123609548967L-33.276002000759,83.2108932569473L-28.155828485016844,-89.78922153317113z" style="fill:rgb(72,208,208)"/><path d="M5.0217547467054,81.84870925959703L14.560159878449294,-88.35781857022972L4.248128973878438,-91.14957732788596z" style="fill:rgb(169,212,212)"/><path d="M-33.276002000759,83.2108932569473L-17.57525562275228,-91.882457545604L-28.155828485016844,-89.78922153317113z" style="fill:rgb(95,214,214)"/><path d="M-6.617949378927117,-92.34312500470398L5.0217547467054,81.84870925959703L4.248128973878438,-91.14957732788596z" style="fill:rgb(145,216,216)"/><path d="M-17.57525562275228,-91.882457545604L-7.824644133842743,80.65306820139848L-6.617949378927117,-92.34312500470398z" style="fill:rgb(120,217,217)"/><path d="M-72.55943402752791,112.46120902820124L-62.7426359330641,-52.58560755843998L-73.71165445940191,120.23492647865281z" style="fill:rgb(1,140,140)"/><path d="M52.735450597960046,115.9046975362834L42.51288618520956,-64.70000654593247L50.04209420134935,108.22742811045808z" style="fill:rgb(251,149,149)"/><path d="M-58.54425296682608,-68.01826167453996L-72.55943402752791,112.46120902820124L-68.94931062530489,104.93032304635399z" style="fill:rgb(7,157,157)"/><path d="M42.51288618520956,-64.70000654593247L44.93526004460889,100.96621087449508L50.04209420134935,108.22742811045808z" style="fill:rgb(242,166,166)"/><path d="M-62.96824581732399,97.95353343254155L-58.54425296682608,-68.01826167453996L-68.94931062530489,104.93032304635399z" style="fill:rgb(17,173,173)"/><path d="M38.129779819046774,-72.00313851478373L37.56856515713194,94.42875841486828L44.93526004460889,100.96621087449508z" style="fill:rgb(229,181,181)"/><path d="M-54.81133596406321,91.83214025303126L-53.40574848919579,-75.02819650812431L-62.96824581732399,97.95353343254155z" style="fill:rgb(32,187,187)"/><path d="M31.845253959820894,-78.5637364094603L28.20357174977556,88.90367513949624L37.56856515713194,94.42875841486828z" style="fill:rgb(212,194,194)"/><path d="M-37.9123077977409,-86.16123609548967L-54.81133596406321,91.83214025303126L-44.78059470228153,86.84084022979329z" style="fill:rgb(50,199,199)"/><path d="M23.885725181896493,-84.09762965584231L17.203985035701603,84.6435746634978L28.20357174977556,88.90367513949624z" style="fill:rgb(192,205,205)"/><path d="M-33.276002000759,83.2108932569473L-37.9123077977409,-86.16123609548967L-44.78059470228153,86.84084022979329z" style="fill:rgb(72,208,208)"/><path d="M-7.824644133842743,80.65306820139848L-12.480903529494316,159.86978292021828L-0.5862393512941321,159.48085660597278zM-20.778329466082642,81.11459712923727L-24.30174340551046,158.8607418844197L-12.480903529494316,159.86978292021828zM5.0217547467054,81.84870925959703L-0.5862393512941321,159.48085660597278L10.980581578353833,157.70526807303517zM-33.276002000759,83.2108932569473L-35.64836552469747,156.48315309255213L-24.30174340551046,158.8607418844197z" style="fill:rgb(127,37,217)"/><path d="M14.560159878449294,-88.35781857022972L5.0217547467054,81.84870925959703L17.203985035701603,84.6435746634978z" style="fill:rgb(169,212,212)"/><path d="M17.203985035701603,84.6435746634978L10.980581578353833,157.70526807303517L21.824438574218508,154.5950749515795zM-44.78059470228153,86.84084022979329L-46.129602888803404,152.80720239523453L-35.64836552469747,156.48315309255213zM28.20357174977556,88.90367513949624L21.824438574218508,154.5950749515795L31.56504603459142,150.24320753751644z" style="fill:rgb(127,37,217)"/><path d="M-17.57525562275228,-91.882457545604L-33.276002000759,83.2108932569473L-20.778329466082642,81.11459712923727z" style="fill:rgb(95,214,214)"/><path d="M-54.81133596406321,91.83214025303126L-55.37219505227475,147.9439968769807L-46.129602888803404,152.80720239523453z" style="fill:rgb(127,37,217)"/><path d="M5.0217547467054,81.84870925959703L-6.617949378927117,-92.34312500470398L-7.824644133842743,80.65306820139848z" style="fill:rgb(145,216,216)"/><path d="M-7.824644133842743,80.65306820139848L-17.57525562275228,-91.882457545604L-20.778329466082642,81.11459712923727z" style="fill:rgb(120,217,217)"/><path d="M37.56856515713194,94.42875841486828L31.56504603459142,150.24320753751644L39.84624491932913,144.78343502929738zM-62.96824581732399,97.95353343254155L-63.03066249810158,142.04532485442087L-55.37219505227475,147.9439968769807zM44.93526004460889,100.96621087449508L39.84624491932913,144.78343502929738L46.346685739699105,138.38977460763297zM-68.94931062530489,104.93032304635399L-68.7986678603409,135.3026946618002L-63.03066249810158,142.04532485442087zM50.04209420134935,108.22742811045808L46.346685739699105,138.38977460763297L50.79198369328354,131.27497029129876zM-72.55943402752791,112.46120902820124L-72.42184758119922,127.94511085280769L-68.7986678603409,135.3026946618002zM52.735450597960046,115.9046975362834L50.79198369328354,131.27497029129876L52.9681231343708,123.68722397311048zM-72.42184758119922,127.94511085280769L-72.55943402752791,112.46120902820124L-73.71165445940191,120.23492647865281zM50.04209420134935,108.22742811045808L50.79198369328354,131.27497029129876L52.735450597960046,115.9046975362834zM-72.55943402752791,112.46120902820124L-68.7986678603409,135.3026946618002L-68.94931062530489,104.93032304635399zM44.93526004460889,100.96621087449508L46.346685739699105,138.38977460763297L50.04209420134935,108.22742811045808zM-68.94931062530489,104.93032304635399L-63.03066249810158,142.04532485442087L-62.96824581732399,97.95353343254155zM37.56856515713194,94.42875841486828L39.84624491932913,144.78343502929738L44.93526004460889,100.96621087449508zM-62.96824581732399,97.95353343254155L-55.37219505227475,147.9439968769807L-54.81133596406321,91.83214025303126zM28.20357174977556,88.90367513949624L31.56504603459142,150.24320753751644L37.56856515713194,94.42875841486828zM-54.81133596406321,91.83214025303126L-46.129602888803404,152.80720239523453L-44.78059470228153,86.84084022979329zM17.203985035701603,84.6435746634978L21.824438574218508,154.5950749515795L28.20357174977556,88.90367513949624zM-44.78059470228153,86.84084022979329L-35.64836552469747,156.48315309255213L-33.276002000759,83.2108932569473zM5.0217547467054,81.84870925959703L10.980581578353833,157.70526807303517L17.203985035701603,84.6435746634978zM-33.276002000759,83.2108932569473L-24.30174340551046,158.8607418844197L-20.778329466082642,81.11459712923727zM-7.824644133842743,80.65306820139848L-0.5862393512941321,159.48085660597278L5.0217547467054,81.84870925959703zM-20.778329466082642,81.11459712923727L-12.480903529494316,159.86978292021828L-7.824644133842743,80.65306820139848z" style="fill:rgb(127,37,217)"/></svg>
