<svg viewBox="-250 -250 500 500" width="500" height="500" xmlns="http://www.w3.org/2000/svg"><path d="M29.026921359504044,-39.11431075308949L15.613586489237555,-67.70256442033536L30.2929901022855,-36.27359490521774z" style="fill:rgb(243,180,133)"/><path d="M30.2929901022855,-36.27359490521774L16.86597979424583,-64.88721403124683L29.210076876635902,-32.791826077698985z" style="fill:rgb(243,133,180)"/><path d="M17.272330567232505,-27.300052362850415L3.4681665016466274,-55.74032952430885L14.035153708683493,-28.79182693463549z" style="fill:rgb(42,41,169)"/><path d="M29.210076876635902,-32.791826077698985L15.71472865598166,-61.39694810831978L26.05390916819777,-29.60974474885165z" style="fill:rgb(212,85,213)"/><path d="M21.676725425694013,-27.59650440521777L7.962682606159816,-56.10091462322524L17.272330567232505,-27.300052362850415z" style="fill:rgb(96,32,206)"/><path d="M26.05390916819777,-29.60974474885165L12.453302711760708,-58.17471390795435L21.676725425694013,-27.59650440521777z" style="fill:rgb(158,48,222)"/><path d="M30.2929901022855,-36.27359490521774L15.613586489237555,-67.70256442033536L16.86597979424583,-64.88721403124683z" style="fill:rgb(243,180,133)"/><path d="M14.035153708683493,-28.79182693463549L3.4681665016466274,-55.74032952430885L0.18888063329884824,-57.18152676359138z" style="fill:rgb(42,41,169)"/><path d="M3.429710425449103,-66.66647091033127L12.314914108574419,-69.0977529839829L7.860707077008754,-68.71570118877247zM12.314914108574419,-69.0977529839829L3.429710425449103,-66.66647091033127L0.18766958629451783,-63.490220358606685z" style="fill:rgb(83,212,212)"/><path d="M29.210076876635902,-32.791826077698985L16.86597979424583,-64.88721403124683L15.71472865598166,-61.39694810831978z" style="fill:rgb(243,133,180)"/><path d="M12.314914108574419,-69.0977529839829L0.18766958629451783,-63.490220358606685L15.613586489237555,-67.70256442033536z" style="fill:rgb(83,212,212)"/><path d="M17.272330567232505,-27.300052362850415L7.962682606159816,-56.10091462322524L3.4681665016466274,-55.74032952430885z" style="fill:rgb(96,32,206)"/><path d="M15.613586489237555,-67.70256442033536L0.18766958629451783,-63.490220358606685L-1.0038671424216963,-60.02141753449603z" style="fill:rgb(83,212,212)"/><path d="M26.05390916819777,-29.60974474885165L15.71472865598166,-61.39694810831978L12.453302711760708,-58.17471390795435z" style="fill:rgb(212,85,213)"/><path d="M21.676725425694013,-27.59650440521777L12.453302711760708,-58.17471390795435L7.962682606159816,-56.10091462322524z" style="fill:rgb(158,48,222)"/><path d="M15.613586489237555,-67.70256442033536L-1.0038671424216963,-60.02141753449603L16.86597979424583,-64.88721403124683zM16.86597979424583,-64.88721403124683L-1.0038671424216963,-60.02141753449603L0.18888063329884824,-57.18152676359138zM16.86597979424583,-64.88721403124683L0.18888063329884824,-57.18152676359138L15.71472865598166,-61.39694810831978zM15.71472865598166,-61.39694810831978L0.18888063329884824,-57.18152676359138L3.4681665016466274,-55.74032952430885zM15.71472865598166,-61.39694810831978L3.4681665016466274,-55.74032952430885L12.453302711760708,-58.17471390795435zM12.453302711760708,-58.17471390795435L3.4681665016466274,-55.74032952430885L7.962682606159816,-56.10091462322524z" style="fill:rgb(83,212,212)"/><path d="M51.506851491645534,-105.49407431180938L28.174618658155104,-160.72625518196793L56.713293869479614,-10.919006733530068z" style="fill:rgb(247,158,158)"/><path d="M-68.60900014478061,-39.86636932214397L28.174618658155104,-160.72625518196793L-62.153561129784315,-134.07427371817832z" style="fill:rgb(83,212,212)"/><path d="M56.713293869479614,-10.919006733530068L28.174618658155104,-160.72625518196793L31.174316293561038,-66.99273908701446z" style="fill:rgb(247,158,158)"/><path d="M56.713293869479614,-10.919006733530068L31.174316293561038,-66.99273908701446L-38.734040531562385,13.562779467163903z" style="fill:rgb(127,37,217)"/><path d="M28.174618658155104,-160.72625518196793L-68.60900014478061,-39.86636932214397L31.174316293561038,-66.99273908701446z" style="fill:rgb(83,212,212)"/><path d="M-38.734040531562385,13.562779467163903L31.174316293561038,-66.99273908701446L-68.60900014478061,-39.86636932214397z" style="fill:rgb(127,37,217)"/><path d="M-57.87879113590833,49.68910621058673L-51.66308571250143,-46.42936694129087L-52.9003335404756,-44.13681218777112z" style="fill:rgb(10,163,163)"/><path d="M15.564048736182857,-11.928787577604771L16.5190111728173,-61.89327248813171L14.798658389652688,-62.54096730678098z" style="fill:rgb(184,208,208)"/><path d="M-56.023726620258635,-31.571985846108085L-64.60428434278411,123.04923050391902L-55.78125933306911,-35.377830636249946z" style="fill:rgb(0,135,135)"/><path d="M39.803244597131496,-37.062227186379076L45.935478913922104,117.62610189773909L40.35377440579291,-33.264328934376046z" style="fill:rgb(253,139,139)"/><path d="M-55.78125933306911,-35.377830636249946L-64.35964096150033,119.29077780382681L-54.969970744658625,-39.15312871295333z" style="fill:rgb(2,144,144)"/><path d="M38.685434899891916,-40.809290835648035L44.66936309811315,113.91994372674237L39.803244597131496,-37.062227186379076z" style="fill:rgb(251,148,148)"/><path d="M-54.969970744658625,-39.15312871295333L-63.45779927693541,115.55851444064054L-53.593607977050226,-42.85219937791884z" style="fill:rgb(5,154,154)"/><path d="M-61.901630559602346,111.89767746853536L-52.9003335404756,-44.13681218777112L-53.593607977050226,-42.85219937791884z" style="fill:rgb(10,163,163)"/><path d="M37.007896016853294,-44.459787256454995L42.75464524024327,110.30549404579881L38.685434899891916,-40.809290835648035z" style="fill:rgb(247,158,158)"/><path d="M34.78545194287062,-47.96828462719422L40.20726143453874,106.82807105980217L37.007896016853294,-44.459787256454995z" style="fill:rgb(241,167,167)"/><path d="M-51.66308571250143,-46.42936694129087L-59.70237126731229,108.35379128452172L-49.196553683108014,-49.83966095649859z" style="fill:rgb(16,172,172)"/><path d="M32.040118980921385,-51.29026277368091L37.05163739132434,103.53227152524343L34.78545194287062,-47.96828462719422z" style="fill:rgb(235,175,175)"/><path d="M-49.196553683108014,-49.83966095649859L-56.87976649424859,104.9718394256176L-46.21945834977791,-53.039354067533786z" style="fill:rgb(24,180,180)"/><path d="M28.80115436307664,-54.38283905345392L33.32080279337124,100.46130062484552L32.040118980921385,-51.29026277368091z" style="fill:rgb(227,183,183)"/><path d="M-46.21945834977791,-53.039354067533786L-53.46220550051708,101.79574995107332L-42.764418844788466,-55.986711277055z" style="fill:rgb(32,187,187)"/><path d="M25.104934685249706,-57.20534444893151L29.056293796573915,97.65612273953572L28.80115436307664,-54.38283905345392z" style="fill:rgb(217,191,191)"/><path d="M-42.764418844788466,-55.986711277055L-49.48663126735902,98.86755398211652L-38.870951156529635,-58.642702150388z" style="fill:rgb(42,194,194)"/><path d="M20.994461489704243,-59.72013615607954L24.30761451435879,95.15482607051271L25.104934685249706,-57.20534444893151z" style="fill:rgb(207,197,197)"/><path d="M-38.870951156529635,-58.642702150388L-44.99826017686814,96.22671205111362L-34.58512347718468,-60.971638110241564z" style="fill:rgb(53,200,200)"/><path d="M16.5190111728173,-61.89327248813171L19.13184779696812,92.99194182557629L20.994461489704243,-59.72013615607954z" style="fill:rgb(196,203,203)"/><path d="M-34.58512347718468,-60.971638110241564L-40.050212434435416,93.90940045198253L-29.958978575372754,-62.941790487936274z" style="fill:rgb(65,206,206)"/><path d="M13.59294577080166,91.19771695272466L14.798658389652688,-62.54096730678098L11.73352599145084,-63.69496713408114z" style="fill:rgb(184,208,208)"/><path d="M-29.958978575372754,-62.941790487936274L-34.702850034838114,91.94788211548298L-25.04985012015823,-64.52604219504016z" style="fill:rgb(77,210,210)"/><path d="M6.69777038831373,-65.10035855826345L7.760734367924064,89.79750030718037L11.73352599145084,-63.69496713408114z" style="fill:rgb(171,212,212)"/><path d="M-25.04985012015823,-64.52604219504016L-29.022975105041283,90.36974050682664L-19.919506995558073,-65.70244823858624z" style="fill:rgb(90,213,213)"/><path d="M1.475554767986391,-66.08987842511273L1.709974092210449,88.81128196774253L6.69777038831373,-65.10035855826345z" style="fill:rgb(158,214,214)"/><path d="M-19.919506995558073,-65.70244823858624L-23.082808878286063,89.19745638918354L-14.633323799705972,-66.45455191304865z" style="fill:rgb(103,216,216)"/><path d="M-3.8663552260605147,-66.64963126118366L-4.480957464313447,88.25327562078483L1.475554767986391,-66.08987842511273z" style="fill:rgb(145,216,216)"/><path d="M-14.633323799705972,-66.45455191304865L-16.95898655908436,88.44775614455536L-9.25917651472891,-66.77174614236235z" style="fill:rgb(117,217,217)"/><path d="M-9.25917651472891,-66.77174614236235L-10.731218520398292,88.1315333913135L-3.8663552260605147,-66.64963126118366z" style="fill:rgb(131,217,217)"/><path d="M-61.901630559602346,111.89767746853536L-57.87879113590833,49.68910621058673L-52.9003335404756,-44.13681218777112zM-57.87879113590833,49.68910621058673L-59.70237126731229,108.35379128452172L-51.66308571250143,-46.42936694129087z" style="fill:rgb(10,163,163)"/><path d="M15.564048736182857,-11.928787577604771L19.13184779696812,92.99194182557629L16.5190111728173,-61.89327248813171zM13.59294577080166,91.19771695272466L15.564048736182857,-11.928787577604771L14.798658389652688,-62.54096730678098z" style="fill:rgb(184,208,208)"/><path d="M-55.78125933306911,-35.377830636249946L-64.60428434278411,123.04923050391902L-64.35964096150033,119.29077780382681z" style="fill:rgb(0,135,135)"/><path d="M40.35377440579291,-33.264328934376046L45.935478913922104,117.62610189773909L46.545575051801706,121.37845664263551z" style="fill:rgb(253,139,139)"/><path d="M-54.969970744658625,-39.15312871295333L-64.35964096150033,119.29077780382681L-63.45779927693541,115.55851444064054z" style="fill:rgb(2,144,144)"/><path d="M39.803244597131496,-37.062227186379076L44.66936309811315,113.91994372674237L45.935478913922104,117.62610189773909z" style="fill:rgb(251,148,148)"/><path d="M15.04119431721098,154.13092550321014L4.108695170705897,156.51954617559196L9.67326294179205,155.50473554314433zM20.154847448841657,152.41102585161747L-1.5934562186807446,157.16601167954343L4.108695170705897,156.51954617559196zM24.95833012707826,150.36127436146472L-7.3732306456705565,157.438130042819L-1.5934562186807446,157.16601167954343z" style="fill:rgb(127,37,217)"/><path d="M-53.593607977050226,-42.85219937791884L-63.45779927693541,115.55851444064054L-61.901630559602346,111.89767746853536z" style="fill:rgb(5,154,154)"/><path d="M20.154847448841657,152.41102585161747L4.108695170705897,156.51954617559196L15.04119431721098,154.13092550321014zM29.398000968705514,148.00142886774717L-13.170164838777605,157.33339474802636L-7.3732306456705565,157.438130042819z" style="fill:rgb(127,37,217)"/><path d="M38.685434899891916,-40.809290835648035L42.75464524024327,110.30549404579881L44.66936309811315,113.91994372674237z" style="fill:rgb(247,158,158)"/><path d="M24.95833012707826,150.36127436146472L-1.5934562186807446,157.16601167954343L20.154847448841657,152.41102585161747zM33.42298179865088,145.35451873140187L-18.92367511883436,156.85278674482598L-13.170164838777605,157.33339474802636zM33.42298179865088,145.35451873140187L-24.573443402666456,156.00070815034724L-18.92367511883436,156.85278674482598zM29.398000968705514,148.00142886774717L-7.3732306456705565,157.438130042819L24.95833012707826,150.36127436146472z" style="fill:rgb(127,37,217)"/><path d="M37.007896016853294,-44.459787256454995L40.20726143453874,106.82807105980217L42.75464524024327,110.30549404579881z" style="fill:rgb(241,167,167)"/><path d="M33.42298179865088,145.35451873140187L-13.170164838777605,157.33339474802636L29.398000968705514,148.00142886774717zM40.042381610127805,139.30791041892834L-30.059808443030423,154.7850625634307L-24.573443402666456,156.00070815034724zM40.042381610127805,139.30791041892834L-35.32421293808223,153.21717614624967L-30.059808443030423,154.7850625634307z" style="fill:rgb(127,37,217)"/><path d="M-49.196553683108014,-49.83966095649859L-59.70237126731229,108.35379128452172L-56.87976649424859,104.9718394256176z" style="fill:rgb(16,172,172)"/><path d="M36.98569591924557,142.4468317120595L-24.573443402666456,156.00070815034724L33.42298179865088,145.35451873140187z" style="fill:rgb(127,37,217)"/><path d="M34.78545194287062,-47.96828462719422L37.05163739132434,103.53227152524343L40.20726143453874,106.82807105980217z" style="fill:rgb(235,175,175)"/><path d="M40.042381610127805,139.30791041892834L-24.573443402666456,156.00070815034724L36.98569591924557,142.4468317120595zM44.485252212135784,132.4693747873868L-40.30963137547132,151.31182212170208L-35.32421293808223,153.21717614624967z" style="fill:rgb(127,37,217)"/><path d="M-46.21945834977791,-53.039354067533786L-56.87976649424859,104.9718394256176L-53.46220550051708,101.79574995107332z" style="fill:rgb(24,180,180)"/><path d="M32.040118980921385,-51.29026277368091L33.32080279337124,100.46130062484552L37.05163739132434,103.53227152524343z" style="fill:rgb(227,183,183)"/><path d="M44.485252212135784,132.4693747873868L-44.96104054070189,149.08716065227875L-40.30963137547132,151.31182212170208zM42.55367800184789,135.97030156184357L-35.32421293808223,153.21717614624967L40.042381610127805,139.30791041892834z" style="fill:rgb(127,37,217)"/><path d="M-42.764418844788466,-55.986711277055L-53.46220550051708,101.79574995107332L-49.48663126735902,98.86755398211652z" style="fill:rgb(32,187,187)"/><path d="M28.80115436307664,-54.38283905345392L29.056293796573915,97.65612273953572L33.32080279337124,100.46130062484552z" style="fill:rgb(217,191,191)"/><path d="M44.485252212135784,132.4693747873868L-35.32421293808223,153.21717614624967L42.55367800184789,135.97030156184357zM46.50036818687794,125.1321473062261L-49.22585784464229,146.5647575180834L-44.96104054070189,149.08716065227875z" style="fill:rgb(127,37,217)"/><path d="M-38.870951156529635,-58.642702150388L-49.48663126735902,98.86755398211652L-44.99826017686814,96.22671205111362z" style="fill:rgb(42,194,194)"/><path d="M25.104934685249706,-57.20534444893151L24.30761451435879,95.15482607051271L29.056293796573915,97.65612273953572z" style="fill:rgb(207,197,197)"/><path d="M-34.58512347718468,-60.971638110241564L-44.99826017686814,96.22671205111362L-40.050212434435416,93.90940045198253z" style="fill:rgb(53,200,200)"/><path d="M20.994461489704243,-59.72013615607954L19.13184779696812,92.99194182557629L24.30761451435879,95.15482607051271z" style="fill:rgb(196,203,203)"/><path d="M46.545575051801706,121.37845664263551L-53.05443583082901,143.76953001018245L-49.22585784464229,146.5647575180834zM45.80832903699574,128.84322558189655L-44.96104054070189,149.08716065227875L44.485252212135784,132.4693747873868z" style="fill:rgb(127,37,217)"/><path d="M-29.958978575372754,-62.941790487936274L-40.050212434435416,93.90940045198253L-34.702850034838114,91.94788211548298z" style="fill:rgb(65,206,206)"/><path d="M46.50036818687794,125.1321473062261L-44.96104054070189,149.08716065227875L45.80832903699574,128.84322558189655z" style="fill:rgb(127,37,217)"/><path d="M-25.04985012015823,-64.52604219504016L-34.702850034838114,91.94788211548298L-29.022975105041283,90.36974050682664z" style="fill:rgb(77,210,210)"/><path d="M11.73352599145084,-63.69496713408114L7.760734367924064,89.79750030718037L13.59294577080166,91.19771695272466z" style="fill:rgb(171,212,212)"/><path d="M45.935478913922104,117.62610189773909L-56.40072116046084,140.7295085097286L-53.05443583082901,143.76953001018245z" style="fill:rgb(127,37,217)"/><path d="M-19.919506995558073,-65.70244823858624L-29.022975105041283,90.36974050682664L-23.082808878286063,89.19745638918354z" style="fill:rgb(90,213,213)"/><path d="M6.69777038831373,-65.10035855826345L1.709974092210449,88.81128196774253L7.760734367924064,89.79750030718037z" style="fill:rgb(158,214,214)"/><path d="M-14.633323799705972,-66.45455191304865L-23.082808878286063,89.19745638918354L-16.95898655908436,88.44775614455536z" style="fill:rgb(103,216,216)"/><path d="M1.475554767986391,-66.08987842511273L-4.480957464313447,88.25327562078483L1.709974092210449,88.81128196774253z" style="fill:rgb(145,216,216)"/><path d="M-9.25917651472891,-66.77174614236235L-16.95898655908436,88.44775614455536L-10.731218520398292,88.1315333913135z" style="fill:rgb(117,217,217)"/><path d="M-3.8663552260605147,-66.64963126118366L-10.731218520398292,88.1315333913135L-4.480957464313447,88.25327562078483z" style="fill:rgb(131,217,217)"/><path d="M46.545575051801706,121.37845664263551L-49.22585784464229,146.5647575180834L46.50036818687794,125.1321473062261zM44.66936309811315,113.91994372674237L-59.22274097208508,137.47600145392056L-56.40072116046084,140.7295085097286zM45.935478913922104,117.62610189773909L-53.05443583082901,143.76953001018245L46.545575051801706,121.37845664263551z" style="fill:rgb(127,37,217)"/><path d="M-57.87879113590833,49.68910621058673L-61.901630559602346,111.89767746853536L-61.11210669846264,110.62543533076655z" style="fill:rgb(10,163,163)"/><path d="M42.75464524024327,110.30549404579881L-61.483119694876514,134.04313114450235L-59.22274097208508,137.47600145392056z" style="fill:rgb(127,37,217)"/><path d="M-57.87879113590833,49.68910621058673L-61.11210669846264,110.62543533076655L-59.70237126731229,108.35379128452172z" style="fill:rgb(10,163,163)"/><path d="M44.66936309811315,113.91994372674237L-56.40072116046084,140.7295085097286L45.935478913922104,117.62610189773909zM40.20726143453874,106.82807105980217L-63.14986107726676,130.46777040137854L-61.483119694876514,134.04313114450235z" style="fill:rgb(127,37,217)"/><path d="M15.564048736182857,-11.928787577604771L17.14097575402215,92.34703994195895L19.13184779696812,92.99194182557629zM15.564048736182857,-11.928787577604771L13.59294577080166,91.19771695272466L17.14097575402215,92.34703994195895z" style="fill:rgb(184,208,208)"/><path d="M42.75464524024327,110.30549404579881L-59.22274097208508,137.47600145392056L44.66936309811315,113.91994372674237zM37.05163739132434,103.53227152524343L-64.19680745522264,126.7893297581697L-63.14986107726676,130.46777040137854zM40.20726143453874,106.82807105980217L-61.483119694876514,134.04313114450235L42.75464524024327,110.30549404579881zM33.32080279337124,100.46130062484552L-64.60428434278411,123.04923050391902L-64.19680745522264,126.7893297581697zM37.05163739132434,103.53227152524343L-63.14986107726676,130.46777040137854L40.20726143453874,106.82807105980217zM29.056293796573915,97.65612273953572L-64.35964096150033,119.29077780382681L-64.60428434278411,123.04923050391902zM33.32080279337124,100.46130062484552L-64.19680745522264,126.7893297581697L37.05163739132434,103.53227152524343zM24.30761451435879,95.15482607051271L-63.45779927693541,115.55851444064054L-64.35964096150033,119.29077780382681zM-61.11210669846264,110.62543533076655L-61.901630559602346,111.89767746853536L-35.114926265080776,104.55298843807337zM-59.70237126731229,108.35379128452172L-61.11210669846264,110.62543533076655L-35.114926265080776,104.55298843807337zM24.30761451435879,95.15482607051271L-61.901630559602346,111.89767746853536L-63.45779927693541,115.55851444064054zM29.056293796573915,97.65612273953572L-64.60428434278411,123.04923050391902L33.32080279337124,100.46130062484552zM24.30761451435879,95.15482607051271L-64.35964096150033,119.29077780382681L29.056293796573915,97.65612273953572zM-35.114926265080776,104.55298843807337L-61.901630559602346,111.89767746853536L19.13184779696812,92.99194182557629zM-59.70237126731229,108.35379128452172L-35.114926265080776,104.55298843807337L13.59294577080166,91.19771695272466zM-56.87976649424859,104.9718394256176L-59.70237126731229,108.35379128452172L7.760734367924064,89.79750030718037zM19.13184779696812,92.99194182557629L-61.901630559602346,111.89767746853536L24.30761451435879,95.15482607051271zM-53.46220550051708,101.79574995107332L-56.87976649424859,104.9718394256176L7.760734367924064,89.79750030718037zM-35.114926265080776,104.55298843807337L19.13184779696812,92.99194182557629L17.14097575402215,92.34703994195895zM-59.70237126731229,108.35379128452172L13.59294577080166,91.19771695272466L7.760734367924064,89.79750030718037zM-49.48663126735902,98.86755398211652L-53.46220550051708,101.79574995107332L-4.480957464313447,88.25327562078483zM-35.114926265080776,104.55298843807337L17.14097575402215,92.34703994195895L13.59294577080166,91.19771695272466zM-44.99826017686814,96.22671205111362L-49.48663126735902,98.86755398211652L-10.731218520398292,88.1315333913135zM-53.46220550051708,101.79574995107332L7.760734367924064,89.79750030718037L1.709974092210449,88.81128196774253zM-53.46220550051708,101.79574995107332L1.709974092210449,88.81128196774253L-4.480957464313447,88.25327562078483zM-40.050212434435416,93.90940045198253L-44.99826017686814,96.22671205111362L-16.95898655908436,88.44775614455536zM-49.48663126735902,98.86755398211652L-4.480957464313447,88.25327562078483L-10.731218520398292,88.1315333913135zM-34.702850034838114,91.94788211548298L-40.050212434435416,93.90940045198253L-23.082808878286063,89.19745638918354zM-44.99826017686814,96.22671205111362L-10.731218520398292,88.1315333913135L-16.95898655908436,88.44775614455536zM-40.050212434435416,93.90940045198253L-16.95898655908436,88.44775614455536L-23.082808878286063,89.19745638918354zM-23.082808878286063,89.19745638918354L-29.022975105041283,90.36974050682664L-34.702850034838114,91.94788211548298z" style="fill:rgb(127,37,217)"/></svg>