solid JSxCAD
facet normal 0 0 1
outer loop
vertex -29.1 20.05 31
vertex 29.1 -20.05 31
vertex 29.1 20.05 31
endloop
endfacet
facet normal 0 0 1
outer loop
vertex 29.1 -20.05 31
vertex -29.1 20.05 31
vertex -29.1 -20.05 31
endloop
endfacet
facet normal 0 0 -1
outer loop
vertex 29.1 20.05 0
vertex 29.1 -20.05 0
vertex -29.1 20.05 0
endloop
endfacet
facet normal 0 0 -1
outer loop
vertex -29.1 -20.05 0
vertex -29.1 20.05 0
vertex 29.1 -20.05 0
endloop
endfacet
facet normal 0 1 0
outer loop
vertex -29.1 20.05 0
vertex -29.1 20.05 31
vertex 29.1 20.05 0
endloop
endfacet
facet normal 0 1 0
outer loop
vertex 29.1 20.05 0
vertex -29.1 20.05 31
vertex 29.1 20.05 31
endloop
endfacet
facet normal 0 -1 0
outer loop
vertex 29.1 -20.05 0
vertex 29.1 -20.05 31
vertex -29.1 -20.05 0
endloop
endfacet
facet normal 0 -1 0
outer loop
vertex -29.1 -20.05 0
vertex 29.1 -20.05 31
vertex -29.1 -20.05 31
endloop
endfacet
facet normal 1 0 0
outer loop
vertex 29.1 20.05 0
vertex 29.1 20.05 31
vertex 29.1 -20.05 0
endloop
endfacet
facet normal 1 0 0
outer loop
vertex 29.1 -20.05 0
vertex 29.1 20.05 31
vertex 29.1 -20.05 31
endloop
endfacet
facet normal -1 0 0
outer loop
vertex -29.1 -20.05 0
vertex -29.1 -20.05 31
vertex -29.1 20.05 0
endloop
endfacet
facet normal -1 0 0
outer loop
vertex -29.1 20.05 0
vertex -29.1 -20.05 31
vertex -29.1 20.05 31
endloop
endfacet
facet normal 1 0 0
outer loop
vertex 104.1 -4.44731 31
vertex 104.1 13.60425 31
vertex 104.1 12.72244 31.93092
endloop
endfacet
facet normal 1 0 0
outer loop
vertex 104.1 -12.72244 31.93092
vertex 104.1 -13.60425 31
vertex 104.1 -4.44731 31
endloop
endfacet
facet normal 1 0 0
outer loop
vertex 104.1 -12.72244 31.93092
vertex 104.1 -4.44731 31
vertex 104.1 12.72244 31.93092
endloop
endfacet
facet normal 1 0 0
outer loop
vertex 104.1 -12.72244 31.93092
vertex 104.1 12.72244 31.93092
vertex 104.1 11.19572 33.22772
endloop
endfacet
facet normal 1 0 0
outer loop
vertex 104.1 -11.19572 33.22772
vertex 104.1 -12.72244 31.93092
vertex 104.1 11.19572 33.22772
endloop
endfacet
facet normal 1 0 0
outer loop
vertex 104.1 -9.53775 34.35186
vertex 104.1 -11.19572 33.22772
vertex 104.1 11.19572 33.22772
endloop
endfacet
facet normal 1 0 0
outer loop
vertex 104.1 -9.53775 34.35186
vertex 104.1 11.19572 33.22772
vertex 104.1 9.53775 34.35186
endloop
endfacet
facet normal 1 0 0
outer loop
vertex 104.1 -9.53775 34.35186
vertex 104.1 9.53775 34.35186
vertex 104.1 7.76795 35.29015
endloop
endfacet
facet normal 1 0 0
outer loop
vertex 104.1 -7.76795 35.29015
vertex 104.1 -9.53775 34.35186
vertex 104.1 7.76795 35.29015
endloop
endfacet
facet normal 1 0 0
outer loop
vertex 104.1 -7.76795 35.29015
vertex 104.1 7.76795 35.29015
vertex 104.1 5.90708 36.03158
endloop
endfacet
facet normal 1 0 0
outer loop
vertex 104.1 -5.90708 36.03158
vertex 104.1 -7.76795 35.29015
vertex 104.1 5.90708 36.03158
endloop
endfacet
facet normal 1 0 0
outer loop
vertex 104.1 -5.90708 36.03158
vertex 104.1 5.90708 36.03158
vertex 104.1 3.97695 36.56748
endloop
endfacet
facet normal 1 0 0
outer loop
vertex 104.1 -3.97695 36.56748
vertex 104.1 -5.90708 36.03158
vertex 104.1 3.97695 36.56748
endloop
endfacet
facet normal 1 0 0
outer loop
vertex 104.1 -3.97695 36.56748
vertex 104.1 3.97695 36.56748
vertex 104.1 2.0002 36.89155
endloop
endfacet
facet normal 1 0 0
outer loop
vertex 104.1 -2.0002 36.89155
vertex 104.1 -3.97695 36.56748
vertex 104.1 2.0002 36.89155
endloop
endfacet
facet normal 1 0 0
outer loop
vertex 104.1 2.0002 36.89155
vertex 104.1 0 37
vertex 104.1 -2.0002 36.89155
endloop
endfacet
facet normal 1 0 0
outer loop
vertex 104.1 2.0002 0.10845
vertex 104.1 -2.0002 0.10845
vertex 104.1 0 0
endloop
endfacet
facet normal 1 0 0
outer loop
vertex 104.1 3.97695 0.43252
vertex 104.1 -2.0002 0.10845
vertex 104.1 2.0002 0.10845
endloop
endfacet
facet normal 1 0 0
outer loop
vertex 104.1 3.97695 0.43252
vertex 104.1 -3.97695 0.43252
vertex 104.1 -2.0002 0.10845
endloop
endfacet
facet normal 1 0 0
outer loop
vertex 104.1 5.90708 0.96842
vertex 104.1 -3.97695 0.43252
vertex 104.1 3.97695 0.43252
endloop
endfacet
facet normal 1 0 0
outer loop
vertex 104.1 5.90708 0.96842
vertex 104.1 -5.90708 0.96842
vertex 104.1 -3.97695 0.43252
endloop
endfacet
facet normal 1 0 0
outer loop
vertex 104.1 7.76795 1.70985
vertex 104.1 -5.90708 0.96842
vertex 104.1 5.90708 0.96842
endloop
endfacet
facet normal 1 0 0
outer loop
vertex 104.1 7.76795 1.70985
vertex 104.1 -7.76795 1.70985
vertex 104.1 -5.90708 0.96842
endloop
endfacet
facet normal 1 0 0
outer loop
vertex 104.1 9.53775 2.64814
vertex 104.1 -7.76795 1.70985
vertex 104.1 7.76795 1.70985
endloop
endfacet
facet normal 1 0 0
outer loop
vertex 104.1 9.53775 2.64814
vertex 104.1 -9.53775 2.64814
vertex 104.1 -7.76795 1.70985
endloop
endfacet
facet normal 1 0 0
outer loop
vertex 104.1 9.53775 2.64814
vertex 104.1 -11.19572 3.77228
vertex 104.1 -9.53775 2.64814
endloop
endfacet
facet normal 1 0 0
outer loop
vertex 104.1 11.19572 3.77228
vertex 104.1 -11.19572 3.77228
vertex 104.1 9.53775 2.64814
endloop
endfacet
facet normal 1 0 0
outer loop
vertex 104.1 12.72244 5.06908
vertex 104.1 -11.19572 3.77228
vertex 104.1 11.19572 3.77228
endloop
endfacet
facet normal 1 0 0
outer loop
vertex 104.1 12.72244 5.06908
vertex 104.1 -12.72244 5.06908
vertex 104.1 -11.19572 3.77228
endloop
endfacet
facet normal 1 0 0
outer loop
vertex 104.1 12.72244 5.06908
vertex 104.1 -14.1 6.52335
vertex 104.1 -12.72244 5.06908
endloop
endfacet
facet normal 1 0 0
outer loop
vertex 104.1 14.1 6.52335
vertex 104.1 -14.1 6.52335
vertex 104.1 12.72244 5.06908
endloop
endfacet
facet normal 1 0 0
outer loop
vertex 104.1 15.31225 8.11804
vertex 104.1 -14.1 6.52335
vertex 104.1 14.1 6.52335
endloop
endfacet
facet normal 1 0 0
outer loop
vertex 104.1 15.31225 8.11804
vertex 104.1 -15.31225 8.11804
vertex 104.1 -14.1 6.52335
endloop
endfacet
facet normal 1 0 0
outer loop
vertex 104.1 15.31225 8.11804
vertex 104.1 -16.34497 9.83444
vertex 104.1 -15.31225 8.11804
endloop
endfacet
facet normal 1 0 0
outer loop
vertex 104.1 16.34497 9.83444
vertex 104.1 -16.34497 9.83444
vertex 104.1 15.31225 8.11804
endloop
endfacet
facet normal 1 0 0
outer loop
vertex 104.1 17.18607 11.65244
vertex 104.1 -16.34497 9.83444
vertex 104.1 16.34497 9.83444
endloop
endfacet
facet normal 1 0 0
outer loop
vertex 104.1 17.18607 11.65244
vertex 104.1 -17.18607 11.65244
vertex 104.1 -16.34497 9.83444
endloop
endfacet
facet normal 1 0 0
outer loop
vertex 104.1 17.82567 13.55073
vertex 104.1 -17.18607 11.65244
vertex 104.1 17.18607 11.65244
endloop
endfacet
facet normal 1 0 0
outer loop
vertex 104.1 17.82567 13.55073
vertex 104.1 -17.82567 13.55073
vertex 104.1 -17.18607 11.65244
endloop
endfacet
facet normal 1 0 0
outer loop
vertex 104.1 18.25629 15.50703
vertex 104.1 -17.82567 13.55073
vertex 104.1 17.82567 13.55073
endloop
endfacet
facet normal 1 0 0
outer loop
vertex 104.1 18.25629 15.50703
vertex 104.1 -18.25629 15.50703
vertex 104.1 -17.82567 13.55073
endloop
endfacet
facet normal 1 0 0
outer loop
vertex 104.1 18.47287 17.49843
vertex 104.1 -18.25629 15.50703
vertex 104.1 18.25629 15.50703
endloop
endfacet
facet normal 1 0 0
outer loop
vertex 104.1 18.47287 17.49843
vertex 104.1 -18.47287 17.49843
vertex 104.1 -18.25629 15.50703
endloop
endfacet
facet normal 1 0 0
outer loop
vertex 104.1 18.47287 19.50157
vertex 104.1 -18.47287 17.49843
vertex 104.1 18.47287 17.49843
endloop
endfacet
facet normal 1 0 0
outer loop
vertex 104.1 18.47287 19.50157
vertex 104.1 -18.47287 19.50157
vertex 104.1 -18.47287 17.49843
endloop
endfacet
facet normal 1 0 0
outer loop
vertex 104.1 18.25629 21.49297
vertex 104.1 -18.47287 19.50157
vertex 104.1 18.47287 19.50157
endloop
endfacet
facet normal 1 0 0
outer loop
vertex 104.1 18.25629 21.49297
vertex 104.1 -18.25629 21.49297
vertex 104.1 -18.47287 19.50157
endloop
endfacet
facet normal 1 0 0
outer loop
vertex 104.1 17.82567 23.44927
vertex 104.1 -18.25629 21.49297
vertex 104.1 18.25629 21.49297
endloop
endfacet
facet normal 1 0 0
outer loop
vertex 104.1 17.82567 23.44927
vertex 104.1 -17.82567 23.44927
vertex 104.1 -18.25629 21.49297
endloop
endfacet
facet normal 1 0 0
outer loop
vertex 104.1 17.18607 25.34756
vertex 104.1 -17.82567 23.44927
vertex 104.1 17.82567 23.44927
endloop
endfacet
facet normal 1 0 0
outer loop
vertex 104.1 17.18607 25.34756
vertex 104.1 -17.18607 25.34756
vertex 104.1 -17.82567 23.44927
endloop
endfacet
facet normal 1 0 0
outer loop
vertex 104.1 16.34497 27.16556
vertex 104.1 -17.18607 25.34756
vertex 104.1 17.18607 25.34756
endloop
endfacet
facet normal 1 0 0
outer loop
vertex 104.1 16.34497 27.16556
vertex 104.1 -16.34497 27.16556
vertex 104.1 -17.18607 25.34756
endloop
endfacet
facet normal 1 0 0
outer loop
vertex 104.1 15.31225 28.88196
vertex 104.1 -16.34497 27.16556
vertex 104.1 16.34497 27.16556
endloop
endfacet
facet normal 1 0 0
outer loop
vertex 104.1 15.31225 28.88196
vertex 104.1 -15.31225 28.88196
vertex 104.1 -16.34497 27.16556
endloop
endfacet
facet normal 1 0 0
outer loop
vertex 104.1 15.31225 28.88196
vertex 104.1 -14.1 30.47665
vertex 104.1 -15.31225 28.88196
endloop
endfacet
facet normal 1 0 0
outer loop
vertex 104.1 14.1 30.47665
vertex 104.1 -14.1 30.47665
vertex 104.1 15.31225 28.88196
endloop
endfacet
facet normal 1 0 0
outer loop
vertex 104.1 -4.44731 31
vertex 104.1 -14.1 30.47665
vertex 104.1 14.1 30.47665
endloop
endfacet
facet normal 1 0 0
outer loop
vertex 104.1 -4.44731 31
vertex 104.1 14.1 30.47665
vertex 104.1 13.60425 31
endloop
endfacet
facet normal 1 0 0
outer loop
vertex 104.1 -13.60425 31
vertex 104.1 -14.1 30.47665
vertex 104.1 -4.44731 31
endloop
endfacet
facet normal -1 0 0
outer loop
vertex 29.1 -4.44731 31
vertex 29.1 12.72244 31.93092
vertex 29.1 13.60425 31
endloop
endfacet
facet normal -1 0 0
outer loop
vertex 29.1 -13.60425 31
vertex 29.1 -12.72244 31.93092
vertex 29.1 12.72244 31.93092
endloop
endfacet
facet normal -1 0 0
outer loop
vertex 29.1 -13.60425 31
vertex 29.1 12.72244 31.93092
vertex 29.1 -4.44731 31
endloop
endfacet
facet normal -1 0 0
outer loop
vertex 29.1 -12.72244 31.93092
vertex 29.1 11.19572 33.22772
vertex 29.1 12.72244 31.93092
endloop
endfacet
facet normal -1 0 0
outer loop
vertex 29.1 -11.19572 33.22772
vertex 29.1 11.19572 33.22772
vertex 29.1 -12.72244 31.93092
endloop
endfacet
facet normal -1 0 0
outer loop
vertex 29.1 -9.53775 34.35186
vertex 29.1 11.19572 33.22772
vertex 29.1 -11.19572 33.22772
endloop
endfacet
facet normal -1 0 0
outer loop
vertex 29.1 -9.53775 34.35186
vertex 29.1 9.53775 34.35186
vertex 29.1 11.19572 33.22772
endloop
endfacet
facet normal -1 0 0
outer loop
vertex 29.1 -9.53775 34.35186
vertex 29.1 7.76795 35.29015
vertex 29.1 9.53775 34.35186
endloop
endfacet
facet normal -1 0 0
outer loop
vertex 29.1 -7.76795 35.29015
vertex 29.1 7.76795 35.29015
vertex 29.1 -9.53775 34.35186
endloop
endfacet
facet normal -1 0 0
outer loop
vertex 29.1 -7.76795 35.29015
vertex 29.1 5.90708 36.03158
vertex 29.1 7.76795 35.29015
endloop
endfacet
facet normal -1 0 0
outer loop
vertex 29.1 -5.90708 36.03158
vertex 29.1 5.90708 36.03158
vertex 29.1 -7.76795 35.29015
endloop
endfacet
facet normal -1 0 0
outer loop
vertex 29.1 -5.90708 36.03158
vertex 29.1 3.97695 36.56748
vertex 29.1 5.90708 36.03158
endloop
endfacet
facet normal -1 0 0
outer loop
vertex 29.1 -3.97695 36.56748
vertex 29.1 3.97695 36.56748
vertex 29.1 -5.90708 36.03158
endloop
endfacet
facet normal -1 0 0
outer loop
vertex 29.1 -3.97695 36.56748
vertex 29.1 2.0002 36.89155
vertex 29.1 3.97695 36.56748
endloop
endfacet
facet normal -1 0 0
outer loop
vertex 29.1 -2.0002 36.89155
vertex 29.1 2.0002 36.89155
vertex 29.1 -3.97695 36.56748
endloop
endfacet
facet normal -1 0 0
outer loop
vertex 29.1 2.0002 36.89155
vertex 29.1 -2.0002 36.89155
vertex 29.1 0 37
endloop
endfacet
facet normal -1 0 0
outer loop
vertex 29.1 0 0
vertex 29.1 -2.0002 0.10845
vertex 29.1 2.0002 0.10845
endloop
endfacet
facet normal -1 0 0
outer loop
vertex 29.1 2.0002 0.10845
vertex 29.1 -2.0002 0.10845
vertex 29.1 3.97695 0.43252
endloop
endfacet
facet normal -1 0 0
outer loop
vertex 29.1 -2.0002 0.10845
vertex 29.1 -3.97695 0.43252
vertex 29.1 3.97695 0.43252
endloop
endfacet
facet normal -1 0 0
outer loop
vertex 29.1 3.97695 0.43252
vertex 29.1 -3.97695 0.43252
vertex 29.1 5.90708 0.96842
endloop
endfacet
facet normal -1 0 0
outer loop
vertex 29.1 -3.97695 0.43252
vertex 29.1 -5.90708 0.96842
vertex 29.1 5.90708 0.96842
endloop
endfacet
facet normal -1 0 0
outer loop
vertex 29.1 5.90708 0.96842
vertex 29.1 -5.90708 0.96842
vertex 29.1 7.76795 1.70985
endloop
endfacet
facet normal -1 0 0
outer loop
vertex 29.1 -5.90708 0.96842
vertex 29.1 -7.76795 1.70985
vertex 29.1 7.76795 1.70985
endloop
endfacet
facet normal -1 0 0
outer loop
vertex 29.1 7.76795 1.70985
vertex 29.1 -7.76795 1.70985
vertex 29.1 9.53775 2.64814
endloop
endfacet
facet normal -1 0 0
outer loop
vertex 29.1 -7.76795 1.70985
vertex 29.1 -9.53775 2.64814
vertex 29.1 9.53775 2.64814
endloop
endfacet
facet normal -1 0 0
outer loop
vertex 29.1 -9.53775 2.64814
vertex 29.1 -11.19572 3.77228
vertex 29.1 9.53775 2.64814
endloop
endfacet
facet normal -1 0 0
outer loop
vertex 29.1 9.53775 2.64814
vertex 29.1 -11.19572 3.77228
vertex 29.1 11.19572 3.77228
endloop
endfacet
facet normal -1 0 0
outer loop
vertex 29.1 11.19572 3.77228
vertex 29.1 -11.19572 3.77228
vertex 29.1 12.72244 5.06908
endloop
endfacet
facet normal -1 0 0
outer loop
vertex 29.1 -11.19572 3.77228
vertex 29.1 -12.72244 5.06908
vertex 29.1 12.72244 5.06908
endloop
endfacet
facet normal -1 0 0
outer loop
vertex 29.1 -12.72244 5.06908
vertex 29.1 -14.1 6.52335
vertex 29.1 12.72244 5.06908
endloop
endfacet
facet normal -1 0 0
outer loop
vertex 29.1 12.72244 5.06908
vertex 29.1 -14.1 6.52335
vertex 29.1 14.1 6.52335
endloop
endfacet
facet normal -1 0 0
outer loop
vertex 29.1 14.1 6.52335
vertex 29.1 -14.1 6.52335
vertex 29.1 15.31225 8.11804
endloop
endfacet
facet normal -1 0 0
outer loop
vertex 29.1 -14.1 6.52335
vertex 29.1 -15.31225 8.11804
vertex 29.1 15.31225 8.11804
endloop
endfacet
facet normal -1 0 0
outer loop
vertex 29.1 -15.31225 8.11804
vertex 29.1 -16.34497 9.83444
vertex 29.1 15.31225 8.11804
endloop
endfacet
facet normal -1 0 0
outer loop
vertex 29.1 15.31225 8.11804
vertex 29.1 -16.34497 9.83444
vertex 29.1 16.34497 9.83444
endloop
endfacet
facet normal -1 0 0
outer loop
vertex 29.1 16.34497 9.83444
vertex 29.1 -16.34497 9.83444
vertex 29.1 17.18607 11.65244
endloop
endfacet
facet normal -1 0 0
outer loop
vertex 29.1 -16.34497 9.83444
vertex 29.1 -17.18607 11.65244
vertex 29.1 17.18607 11.65244
endloop
endfacet
facet normal -1 0 0
outer loop
vertex 29.1 17.18607 11.65244
vertex 29.1 -17.18607 11.65244
vertex 29.1 17.82567 13.55073
endloop
endfacet
facet normal -1 0 0
outer loop
vertex 29.1 -17.18607 11.65244
vertex 29.1 -17.82567 13.55073
vertex 29.1 17.82567 13.55073
endloop
endfacet
facet normal -1 0 0
outer loop
vertex 29.1 17.82567 13.55073
vertex 29.1 -17.82567 13.55073
vertex 29.1 18.25629 15.50703
endloop
endfacet
facet normal -1 0 0
outer loop
vertex 29.1 -17.82567 13.55073
vertex 29.1 -18.25629 15.50703
vertex 29.1 18.25629 15.50703
endloop
endfacet
facet normal -1 0 0
outer loop
vertex 29.1 18.25629 15.50703
vertex 29.1 -18.25629 15.50703
vertex 29.1 18.47287 17.49843
endloop
endfacet
facet normal -1 0 0
outer loop
vertex 29.1 -18.25629 15.50703
vertex 29.1 -18.47287 17.49843
vertex 29.1 18.47287 17.49843
endloop
endfacet
facet normal -1 0 0
outer loop
vertex 29.1 18.47287 17.49843
vertex 29.1 -18.47287 17.49843
vertex 29.1 18.47287 19.50157
endloop
endfacet
facet normal -1 0 0
outer loop
vertex 29.1 -18.47287 17.49843
vertex 29.1 -18.47287 19.50157
vertex 29.1 18.47287 19.50157
endloop
endfacet
facet normal -1 0 0
outer loop
vertex 29.1 18.47287 19.50157
vertex 29.1 -18.47287 19.50157
vertex 29.1 18.25629 21.49297
endloop
endfacet
facet normal -1 0 0
outer loop
vertex 29.1 -18.47287 19.50157
vertex 29.1 -18.25629 21.49297
vertex 29.1 18.25629 21.49297
endloop
endfacet
facet normal -1 0 0
outer loop
vertex 29.1 18.25629 21.49297
vertex 29.1 -18.25629 21.49297
vertex 29.1 17.82567 23.44927
endloop
endfacet
facet normal -1 0 0
outer loop
vertex 29.1 -18.25629 21.49297
vertex 29.1 -17.82567 23.44927
vertex 29.1 17.82567 23.44927
endloop
endfacet
facet normal -1 0 0
outer loop
vertex 29.1 17.82567 23.44927
vertex 29.1 -17.82567 23.44927
vertex 29.1 17.18607 25.34756
endloop
endfacet
facet normal -1 0 0
outer loop
vertex 29.1 -17.82567 23.44927
vertex 29.1 -17.18607 25.34756
vertex 29.1 17.18607 25.34756
endloop
endfacet
facet normal -1 0 0
outer loop
vertex 29.1 17.18607 25.34756
vertex 29.1 -17.18607 25.34756
vertex 29.1 16.34497 27.16556
endloop
endfacet
facet normal -1 0 0
outer loop
vertex 29.1 -17.18607 25.34756
vertex 29.1 -16.34497 27.16556
vertex 29.1 16.34497 27.16556
endloop
endfacet
facet normal -1 0 0
outer loop
vertex 29.1 16.34497 27.16556
vertex 29.1 -16.34497 27.16556
vertex 29.1 15.31225 28.88196
endloop
endfacet
facet normal -1 0 0
outer loop
vertex 29.1 -16.34497 27.16556
vertex 29.1 -15.31225 28.88196
vertex 29.1 15.31225 28.88196
endloop
endfacet
facet normal -1 0 0
outer loop
vertex 29.1 -15.31225 28.88196
vertex 29.1 -14.1 30.47665
vertex 29.1 15.31225 28.88196
endloop
endfacet
facet normal -1 0 0
outer loop
vertex 29.1 15.31225 28.88196
vertex 29.1 -14.1 30.47665
vertex 29.1 14.1 30.47665
endloop
endfacet
facet normal -1 0 0
outer loop
vertex 29.1 -14.1 30.47665
vertex 29.1 -4.44731 31
vertex 29.1 13.60425 31
endloop
endfacet
facet normal -1 0 0
outer loop
vertex 29.1 -14.1 30.47665
vertex 29.1 13.60425 31
vertex 29.1 14.1 30.47665
endloop
endfacet
facet normal -1 0 0
outer loop
vertex 29.1 -13.60425 31
vertex 29.1 -4.44731 31
vertex 29.1 -14.1 30.47665
endloop
endfacet
facet normal 0 -0.05414005698405769 -0.9985333515860965
outer loop
vertex 29.1 0 0
vertex 104.1 0 0
vertex 29.1 -2.0002 0.10845
endloop
endfacet
facet normal 0 -0.05414005698405769 -0.9985333515860965
outer loop
vertex 29.1 -2.0002 0.10845
vertex 104.1 0 0
vertex 104.1 -2.0002 0.10845
endloop
endfacet
facet normal 0 -0.9075747281803491 0.41989059618949026
outer loop
vertex 29.1 -17.18607 25.34756
vertex 104.1 -17.18607 25.34756
vertex 29.1 -16.34497 27.16556
endloop
endfacet
facet normal 0 -0.9075747281803491 0.41989059618949026
outer loop
vertex 29.1 -16.34497 27.16556
vertex 104.1 -17.18607 25.34756
vertex 104.1 -16.34497 27.16556
endloop
endfacet
facet normal 0 -0.9766199470556902 0.21497320533717865
outer loop
vertex 29.1 -18.25629 21.49297
vertex 104.1 -18.25629 21.49297
vertex 29.1 -17.82567 23.44927
endloop
endfacet
facet normal 0 -0.9766199470556902 0.21497320533717865
outer loop
vertex 29.1 -17.82567 23.44927
vertex 104.1 -18.25629 21.49297
vertex 104.1 -17.82567 23.44927
endloop
endfacet
facet normal 0 -0.1617811637316393 0.9868266590752585
outer loop
vertex 29.1 -3.97695 36.56748
vertex 104.1 -3.97695 36.56748
vertex 29.1 -2.0002 36.89155
endloop
endfacet
facet normal 0 -0.1617811637316393 0.9868266590752585
outer loop
vertex 29.1 -2.0002 36.89155
vertex 104.1 -3.97695 36.56748
vertex 104.1 -2.0002 36.89155
endloop
endfacet
facet normal 0 -0.3701345473901787 -0.9289781573472369
outer loop
vertex 29.1 -5.90708 0.96842
vertex 104.1 -5.90708 0.96842
vertex 29.1 -7.76795 1.70985
endloop
endfacet
facet normal 0 -0.3701345473901787 -0.9289781573472369
outer loop
vertex 29.1 -7.76795 1.70985
vertex 104.1 -5.90708 0.96842
vertex 104.1 -7.76795 1.70985
endloop
endfacet
facet normal 0 -0.9075747281803492 -0.41989059618948993
outer loop
vertex 29.1 -16.34497 9.83444
vertex 104.1 -16.34497 9.83444
vertex 29.1 -17.18607 11.65244
endloop
endfacet
facet normal 0 -0.9075747281803492 -0.41989059618948993
outer loop
vertex 29.1 -17.18607 11.65244
vertex 104.1 -16.34497 9.83444
vertex 104.1 -17.18607 11.65244
endloop
endfacet
facet normal 0 -0.7259971520907075 0.6876977062315842
outer loop
vertex 77.10947 -13.60425 31
vertex 29.1 -12.72244 31.93092
vertex 29.1 -13.60425 31
endloop
endfacet
facet normal 0 -0.7259971520907075 0.687697706231584
outer loop
vertex 77.10947 -13.60425 31
vertex 104.1 -13.60425 31
vertex 104.1 -12.72244 31.93092
endloop
endfacet
facet normal 0 -0.7259971520907076 0.6876977062315841
outer loop
vertex 77.10947 -13.60425 31
vertex 104.1 -12.72244 31.93092
vertex 29.1 -12.72244 31.93092
endloop
endfacet
facet normal 0 -0.7259909573423934 0.6877042459204938
outer loop
vertex 104.1 -14.1 30.47665
vertex 77.10947 -13.60425 31
vertex 29.1 -13.60425 31
endloop
endfacet
facet normal 0 -0.7259909573423933 0.6877042459204938
outer loop
vertex 104.1 -14.1 30.47665
vertex 29.1 -13.60425 31
vertex 29.1 -14.1 30.47665
endloop
endfacet
facet normal 0 -0.7259909573423935 0.687704245920494
outer loop
vertex 77.10947 -13.60425 31
vertex 104.1 -14.1 30.47665
vertex 104.1 -13.60425 31
endloop
endfacet
facet normal 0 0.5611899542759212 0.8276870394175503
outer loop
vertex 29.1 9.53775 34.35186
vertex 104.1 9.53775 34.35186
vertex 29.1 11.19572 33.22772
endloop
endfacet
facet normal 0 0.5611899542759212 0.8276870394175503
outer loop
vertex 29.1 11.19572 33.22772
vertex 104.1 9.53775 34.35186
vertex 104.1 11.19572 33.22772
endloop
endfacet
facet normal 0 0.9075747281803491 0.41989059618949026
outer loop
vertex 29.1 16.34497 27.16556
vertex 104.1 16.34497 27.16556
vertex 29.1 17.18607 25.34756
endloop
endfacet
facet normal 0 0.9075747281803491 0.41989059618949026
outer loop
vertex 29.1 17.18607 25.34756
vertex 104.1 16.34497 27.16556
vertex 104.1 17.18607 25.34756
endloop
endfacet
facet normal 0 0.37013454739017915 0.9289781573472367
outer loop
vertex 29.1 5.90708 36.03158
vertex 104.1 5.90708 36.03158
vertex 29.1 7.76795 35.29015
endloop
endfacet
facet normal 0 0.37013454739017915 0.9289781573472367
outer loop
vertex 29.1 7.76795 35.29015
vertex 104.1 5.90708 36.03158
vertex 104.1 7.76795 35.29015
endloop
endfacet
facet normal 0 0.1617811637316393 0.9868266590752585
outer loop
vertex 29.1 2.0002 36.89155
vertex 104.1 2.0002 36.89155
vertex 29.1 3.97695 36.56748
endloop
endfacet
facet normal 0 0.1617811637316393 0.9868266590752585
outer loop
vertex 29.1 3.97695 36.56748
vertex 104.1 2.0002 36.89155
vertex 104.1 3.97695 36.56748
endloop
endfacet
facet normal 0 0.6473840644222276 0.7621639411125123
outer loop
vertex 29.1 11.19572 33.22772
vertex 104.1 11.19572 33.22772
vertex 29.1 12.72244 31.93092
endloop
endfacet
facet normal 0 0.6473840644222276 0.7621639411125123
outer loop
vertex 29.1 12.72244 31.93092
vertex 104.1 11.19572 33.22772
vertex 104.1 12.72244 31.93092
endloop
endfacet
facet normal 0 0.6473840644222282 -0.7621639411125116
outer loop
vertex 29.1 12.72244 5.06908
vertex 104.1 12.72244 5.06908
vertex 29.1 11.19572 3.77228
endloop
endfacet
facet normal 0 0.6473840644222282 -0.7621639411125116
outer loop
vertex 29.1 11.19572 3.77228
vertex 104.1 12.72244 5.06908
vertex 104.1 11.19572 3.77228
endloop
endfacet
facet normal 0 0.3701345473901787 -0.9289781573472369
outer loop
vertex 29.1 7.76795 1.70985
vertex 104.1 7.76795 1.70985
vertex 29.1 5.90708 0.96842
endloop
endfacet
facet normal 0 0.3701345473901787 -0.9289781573472369
outer loop
vertex 29.1 5.90708 0.96842
vertex 104.1 7.76795 1.70985
vertex 104.1 5.90708 0.96842
endloop
endfacet
facet normal 0 -0.6473840644222276 0.7621639411125123
outer loop
vertex 29.1 -12.72244 31.93092
vertex 104.1 -12.72244 31.93092
vertex 29.1 -11.19572 33.22772
endloop
endfacet
facet normal 0 -0.6473840644222276 0.7621639411125123
outer loop
vertex 29.1 -11.19572 33.22772
vertex 104.1 -12.72244 31.93092
vertex 104.1 -11.19572 33.22772
endloop
endfacet
facet normal 0 -0.46840899548317333 0.8835117503182651
outer loop
vertex 29.1 -9.53775 34.35186
vertex 104.1 -9.53775 34.35186
vertex 29.1 -7.76795 35.29015
endloop
endfacet
facet normal 0 -0.46840899548317333 0.8835117503182651
outer loop
vertex 29.1 -7.76795 35.29015
vertex 104.1 -9.53775 34.35186
vertex 104.1 -7.76795 35.29015
endloop
endfacet
facet normal 0 0.05414005698405654 0.9985333515860965
outer loop
vertex 29.1 0 37
vertex 104.1 0 37
vertex 29.1 2.0002 36.89155
endloop
endfacet
facet normal 0 0.05414005698405654 0.9985333515860965
outer loop
vertex 29.1 2.0002 36.89155
vertex 104.1 0 37
vertex 104.1 2.0002 36.89155
endloop
endfacet
facet normal 0 0.46840899548317333 0.8835117503182651
outer loop
vertex 29.1 7.76795 35.29015
vertex 104.1 7.76795 35.29015
vertex 29.1 9.53775 34.35186
endloop
endfacet
facet normal 0 0.46840899548317333 0.8835117503182651
outer loop
vertex 29.1 9.53775 34.35186
vertex 104.1 7.76795 35.29015
vertex 104.1 9.53775 34.35186
endloop
endfacet
facet normal 0 0.8568579733786028 -0.5155525321996912
outer loop
vertex 29.1 16.34497 9.83444
vertex 104.1 16.34497 9.83444
vertex 29.1 15.31225 8.11804
endloop
endfacet
facet normal 0 0.8568579733786028 -0.5155525321996912
outer loop
vertex 29.1 15.31225 8.11804
vertex 104.1 16.34497 9.83444
vertex 104.1 15.31225 8.11804
endloop
endfacet
facet normal 0 0.7960935038664776 -0.6051736388026122
outer loop
vertex 29.1 15.31225 8.11804
vertex 104.1 15.31225 8.11804
vertex 29.1 14.1 6.52335
endloop
endfacet
facet normal 0 0.7960935038664776 -0.6051736388026122
outer loop
vertex 29.1 14.1 6.52335
vertex 104.1 15.31225 8.11804
vertex 104.1 14.1 6.52335
endloop
endfacet
facet normal 0 0.16178116373163984 -0.9868266590752585
outer loop
vertex 29.1 3.97695 0.43252
vertex 104.1 3.97695 0.43252
vertex 29.1 2.0002 0.10845
endloop
endfacet
facet normal 0 0.16178116373163984 -0.9868266590752585
outer loop
vertex 29.1 2.0002 0.10845
vertex 104.1 3.97695 0.43252
vertex 104.1 2.0002 0.10845
endloop
endfacet
facet normal 0 0.9766199470556902 -0.21497320533717845
outer loop
vertex 29.1 18.25629 15.50703
vertex 104.1 18.25629 15.50703
vertex 29.1 17.82567 13.55073
endloop
endfacet
facet normal 0 0.9766199470556902 -0.21497320533717845
outer loop
vertex 29.1 17.82567 13.55073
vertex 104.1 18.25629 15.50703
vertex 104.1 17.82567 13.55073
endloop
endfacet
facet normal 0 0.2675292856284724 -0.9635497295579089
outer loop
vertex 29.1 5.90708 0.96842
vertex 104.1 5.90708 0.96842
vertex 29.1 3.97695 0.43252
endloop
endfacet
facet normal 0 0.2675292856284724 -0.9635497295579089
outer loop
vertex 29.1 3.97695 0.43252
vertex 104.1 5.90708 0.96842
vertex 104.1 3.97695 0.43252
endloop
endfacet
facet normal 0 0.05414005698405769 -0.9985333515860965
outer loop
vertex 29.1 2.0002 0.10845
vertex 104.1 2.0002 0.10845
vertex 29.1 0 0
endloop
endfacet
facet normal 0 0.05414005698405769 -0.9985333515860965
outer loop
vertex 29.1 0 0
vertex 104.1 2.0002 0.10845
vertex 104.1 0 0
endloop
endfacet
facet normal 0 0.9766199470556902 0.21497320533717865
outer loop
vertex 29.1 17.82567 23.44927
vertex 104.1 17.82567 23.44927
vertex 29.1 18.25629 21.49297
endloop
endfacet
facet normal 0 0.9766199470556902 0.21497320533717865
outer loop
vertex 29.1 18.25629 21.49297
vertex 104.1 17.82567 23.44927
vertex 104.1 18.25629 21.49297
endloop
endfacet
facet normal 0 0.4684089954831753 -0.8835117503182641
outer loop
vertex 29.1 9.53775 2.64814
vertex 104.1 9.53775 2.64814
vertex 29.1 7.76795 1.70985
endloop
endfacet
facet normal 0 0.4684089954831753 -0.8835117503182641
outer loop
vertex 29.1 7.76795 1.70985
vertex 104.1 9.53775 2.64814
vertex 104.1 7.76795 1.70985
endloop
endfacet
facet normal 0 0.7960935038664774 0.6051736388026124
outer loop
vertex 29.1 14.1 30.47665
vertex 104.1 14.1 30.47665
vertex 29.1 15.31225 28.88196
endloop
endfacet
facet normal 0 0.7960935038664774 0.6051736388026124
outer loop
vertex 29.1 15.31225 28.88196
vertex 104.1 14.1 30.47665
vertex 104.1 15.31225 28.88196
endloop
endfacet
facet normal 0 1 0
outer loop
vertex 29.1 18.47287 19.50157
vertex 104.1 18.47287 19.50157
vertex 29.1 18.47287 17.49843
endloop
endfacet
facet normal 0 1 0
outer loop
vertex 29.1 18.47287 17.49843
vertex 104.1 18.47287 19.50157
vertex 104.1 18.47287 17.49843
endloop
endfacet
facet normal 0 0.9941378391936346 -0.10812010304939136
outer loop
vertex 29.1 18.47287 17.49843
vertex 104.1 18.47287 17.49843
vertex 29.1 18.25629 15.50703
endloop
endfacet
facet normal 0 0.9941378391936346 -0.10812010304939136
outer loop
vertex 29.1 18.25629 15.50703
vertex 104.1 18.47287 17.49843
vertex 104.1 18.25629 15.50703
endloop
endfacet
facet normal 0 0.7259971520907075 0.6876977062315842
outer loop
vertex 104.1 12.72244 31.93092
vertex 56.09053 13.60425 31
vertex 29.1 13.60425 31
endloop
endfacet
facet normal 0 0.7259971520907075 0.6876977062315842
outer loop
vertex 104.1 12.72244 31.93092
vertex 29.1 13.60425 31
vertex 29.1 12.72244 31.93092
endloop
endfacet
facet normal 0 0.7259971520907075 0.6876977062315841
outer loop
vertex 56.09053 13.60425 31
vertex 104.1 12.72244 31.93092
vertex 104.1 13.60425 31
endloop
endfacet
facet normal 0 0.7259909573423934 0.687704245920494
outer loop
vertex 56.09053 13.60425 31
vertex 29.1 14.1 30.47665
vertex 29.1 13.60425 31
endloop
endfacet
facet normal 0 0.7259909573423933 0.687704245920494
outer loop
vertex 56.09053 13.60425 31
vertex 104.1 13.60425 31
vertex 104.1 14.1 30.47665
endloop
endfacet
facet normal 0 0.7259909573423933 0.6877042459204938
outer loop
vertex 56.09053 13.60425 31
vertex 104.1 14.1 30.47665
vertex 29.1 14.1 30.47665
endloop
endfacet
facet normal 0 0.9476544357522452 0.319297777003057
outer loop
vertex 29.1 17.18607 25.34756
vertex 104.1 17.18607 25.34756
vertex 29.1 17.82567 23.44927
endloop
endfacet
facet normal 0 0.9476544357522452 0.319297777003057
outer loop
vertex 29.1 17.82567 23.44927
vertex 104.1 17.18607 25.34756
vertex 104.1 17.82567 23.44927
endloop
endfacet
facet normal 0 0.9075747281803492 -0.41989059618948993
outer loop
vertex 29.1 17.18607 11.65244
vertex 104.1 17.18607 11.65244
vertex 29.1 16.34497 9.83444
endloop
endfacet
facet normal 0 0.9075747281803492 -0.41989059618948993
outer loop
vertex 29.1 16.34497 9.83444
vertex 104.1 17.18607 11.65244
vertex 104.1 16.34497 9.83444
endloop
endfacet
facet normal 0 -0.7259949227733379 -0.6877000596970565
outer loop
vertex 29.1 -12.72244 5.06908
vertex 104.1 -12.72244 5.06908
vertex 29.1 -14.1 6.52335
endloop
endfacet
facet normal 0 -0.7259949227733379 -0.6877000596970565
outer loop
vertex 29.1 -14.1 6.52335
vertex 104.1 -12.72244 5.06908
vertex 104.1 -14.1 6.52335
endloop
endfacet
facet normal 0 -1 0
outer loop
vertex 29.1 -18.47287 17.49843
vertex 104.1 -18.47287 17.49843
vertex 29.1 -18.47287 19.50157
endloop
endfacet
facet normal 0 -1 0
outer loop
vertex 29.1 -18.47287 19.50157
vertex 104.1 -18.47287 17.49843
vertex 104.1 -18.47287 19.50157
endloop
endfacet
facet normal 0 -0.16178116373163984 -0.9868266590752585
outer loop
vertex 29.1 -2.0002 0.10845
vertex 104.1 -2.0002 0.10845
vertex 29.1 -3.97695 0.43252
endloop
endfacet
facet normal 0 -0.16178116373163984 -0.9868266590752585
outer loop
vertex 29.1 -3.97695 0.43252
vertex 104.1 -2.0002 0.10845
vertex 104.1 -3.97695 0.43252
endloop
endfacet
facet normal 0 -0.4684089954831753 -0.8835117503182641
outer loop
vertex 29.1 -7.76795 1.70985
vertex 104.1 -7.76795 1.70985
vertex 29.1 -9.53775 2.64814
endloop
endfacet
facet normal 0 -0.4684089954831753 -0.8835117503182641
outer loop
vertex 29.1 -9.53775 2.64814
vertex 104.1 -7.76795 1.70985
vertex 104.1 -9.53775 2.64814
endloop
endfacet
facet normal 0 -0.9941378391936346 0.10812010304939136
outer loop
vertex 29.1 -18.47287 19.50157
vertex 104.1 -18.47287 19.50157
vertex 29.1 -18.25629 21.49297
endloop
endfacet
facet normal 0 -0.9941378391936346 0.10812010304939136
outer loop
vertex 29.1 -18.25629 21.49297
vertex 104.1 -18.47287 19.50157
vertex 104.1 -18.25629 21.49297
endloop
endfacet
facet normal 0 -0.5611899542759212 0.8276870394175503
outer loop
vertex 29.1 -11.19572 33.22772
vertex 104.1 -11.19572 33.22772
vertex 29.1 -9.53775 34.35186
endloop
endfacet
facet normal 0 -0.5611899542759212 0.8276870394175503
outer loop
vertex 29.1 -9.53775 34.35186
vertex 104.1 -11.19572 33.22772
vertex 104.1 -9.53775 34.35186
endloop
endfacet
facet normal 0 -0.05414005698405654 0.9985333515860965
outer loop
vertex 29.1 -2.0002 36.89155
vertex 104.1 -2.0002 36.89155
vertex 29.1 0 37
endloop
endfacet
facet normal 0 -0.05414005698405654 0.9985333515860965
outer loop
vertex 29.1 0 37
vertex 104.1 -2.0002 36.89155
vertex 104.1 0 37
endloop
endfacet
facet normal 0 0.2675292856284748 0.9635497295579081
outer loop
vertex 29.1 3.97695 36.56748
vertex 104.1 3.97695 36.56748
vertex 29.1 5.90708 36.03158
endloop
endfacet
facet normal 0 0.2675292856284748 0.9635497295579081
outer loop
vertex 29.1 5.90708 36.03158
vertex 104.1 3.97695 36.56748
vertex 104.1 5.90708 36.03158
endloop
endfacet
facet normal 0 -0.8568579733786028 0.5155525321996912
outer loop
vertex 29.1 -16.34497 27.16556
vertex 104.1 -16.34497 27.16556
vertex 29.1 -15.31225 28.88196
endloop
endfacet
facet normal 0 -0.8568579733786028 0.5155525321996912
outer loop
vertex 29.1 -15.31225 28.88196
vertex 104.1 -16.34497 27.16556
vertex 104.1 -15.31225 28.88196
endloop
endfacet
facet normal 0 -0.9476544357522451 -0.31929777700305756
outer loop
vertex 29.1 -17.18607 11.65244
vertex 104.1 -17.18607 11.65244
vertex 29.1 -17.82567 13.55073
endloop
endfacet
facet normal 0 -0.9476544357522451 -0.31929777700305756
outer loop
vertex 29.1 -17.82567 13.55073
vertex 104.1 -17.18607 11.65244
vertex 104.1 -17.82567 13.55073
endloop
endfacet
facet normal 0 -0.9941378391936346 -0.10812010304939136
outer loop
vertex 29.1 -18.25629 15.50703
vertex 104.1 -18.25629 15.50703
vertex 29.1 -18.47287 17.49843
endloop
endfacet
facet normal 0 -0.9941378391936346 -0.10812010304939136
outer loop
vertex 29.1 -18.47287 17.49843
vertex 104.1 -18.25629 15.50703
vertex 104.1 -18.47287 17.49843
endloop
endfacet
facet normal 0 0.9476544357522451 -0.31929777700305756
outer loop
vertex 29.1 17.82567 13.55073
vertex 104.1 17.82567 13.55073
vertex 29.1 17.18607 11.65244
endloop
endfacet
facet normal 0 0.9476544357522451 -0.31929777700305756
outer loop
vertex 29.1 17.18607 11.65244
vertex 104.1 17.82567 13.55073
vertex 104.1 17.18607 11.65244
endloop
endfacet
facet normal 0 -0.7960935038664776 -0.6051736388026122
outer loop
vertex 29.1 -14.1 6.52335
vertex 104.1 -14.1 6.52335
vertex 29.1 -15.31225 8.11804
endloop
endfacet
facet normal 0 -0.7960935038664776 -0.6051736388026122
outer loop
vertex 29.1 -15.31225 8.11804
vertex 104.1 -14.1 6.52335
vertex 104.1 -15.31225 8.11804
endloop
endfacet
facet normal 0 -0.6473840644222282 -0.7621639411125116
outer loop
vertex 29.1 -11.19572 3.77228
vertex 104.1 -11.19572 3.77228
vertex 29.1 -12.72244 5.06908
endloop
endfacet
facet normal 0 -0.6473840644222282 -0.7621639411125116
outer loop
vertex 29.1 -12.72244 5.06908
vertex 104.1 -11.19572 3.77228
vertex 104.1 -12.72244 5.06908
endloop
endfacet
facet normal 0 0.9941378391936346 0.10812010304939136
outer loop
vertex 29.1 18.25629 21.49297
vertex 104.1 18.25629 21.49297
vertex 29.1 18.47287 19.50157
endloop
endfacet
facet normal 0 0.9941378391936346 0.10812010304939136
outer loop
vertex 29.1 18.47287 19.50157
vertex 104.1 18.25629 21.49297
vertex 104.1 18.47287 19.50157
endloop
endfacet
facet normal 0 0.8568579733786028 0.5155525321996912
outer loop
vertex 29.1 15.31225 28.88196
vertex 104.1 15.31225 28.88196
vertex 29.1 16.34497 27.16556
endloop
endfacet
facet normal 0 0.8568579733786028 0.5155525321996912
outer loop
vertex 29.1 16.34497 27.16556
vertex 104.1 15.31225 28.88196
vertex 104.1 16.34497 27.16556
endloop
endfacet
facet normal 0 -0.37013454739017915 0.9289781573472367
outer loop
vertex 29.1 -7.76795 35.29015
vertex 104.1 -7.76795 35.29015
vertex 29.1 -5.90708 36.03158
endloop
endfacet
facet normal 0 -0.37013454739017915 0.9289781573472367
outer loop
vertex 29.1 -5.90708 36.03158
vertex 104.1 -7.76795 35.29015
vertex 104.1 -5.90708 36.03158
endloop
endfacet
facet normal 0 -0.2675292856284748 0.9635497295579081
outer loop
vertex 29.1 -5.90708 36.03158
vertex 104.1 -5.90708 36.03158
vertex 29.1 -3.97695 36.56748
endloop
endfacet
facet normal 0 -0.2675292856284748 0.9635497295579081
outer loop
vertex 29.1 -3.97695 36.56748
vertex 104.1 -5.90708 36.03158
vertex 104.1 -3.97695 36.56748
endloop
endfacet
facet normal 0 0.7259949227733379 -0.6877000596970565
outer loop
vertex 29.1 14.1 6.52335
vertex 104.1 14.1 6.52335
vertex 29.1 12.72244 5.06908
endloop
endfacet
facet normal 0 0.7259949227733379 -0.6877000596970565
outer loop
vertex 29.1 12.72244 5.06908
vertex 104.1 14.1 6.52335
vertex 104.1 12.72244 5.06908
endloop
endfacet
facet normal 0 0.5611899542759197 -0.8276870394175513
outer loop
vertex 29.1 11.19572 3.77228
vertex 104.1 11.19572 3.77228
vertex 29.1 9.53775 2.64814
endloop
endfacet
facet normal 0 0.5611899542759197 -0.8276870394175513
outer loop
vertex 29.1 9.53775 2.64814
vertex 104.1 11.19572 3.77228
vertex 104.1 9.53775 2.64814
endloop
endfacet
facet normal 0 -0.7960935038664774 0.6051736388026124
outer loop
vertex 29.1 -15.31225 28.88196
vertex 104.1 -15.31225 28.88196
vertex 29.1 -14.1 30.47665
endloop
endfacet
facet normal 0 -0.7960935038664774 0.6051736388026124
outer loop
vertex 29.1 -14.1 30.47665
vertex 104.1 -15.31225 28.88196
vertex 104.1 -14.1 30.47665
endloop
endfacet
facet normal 0 -0.8568579733786028 -0.5155525321996912
outer loop
vertex 29.1 -15.31225 8.11804
vertex 104.1 -15.31225 8.11804
vertex 29.1 -16.34497 9.83444
endloop
endfacet
facet normal 0 -0.8568579733786028 -0.5155525321996912
outer loop
vertex 29.1 -16.34497 9.83444
vertex 104.1 -15.31225 8.11804
vertex 104.1 -16.34497 9.83444
endloop
endfacet
facet normal 0 -0.5611899542759197 -0.8276870394175513
outer loop
vertex 29.1 -9.53775 2.64814
vertex 104.1 -9.53775 2.64814
vertex 29.1 -11.19572 3.77228
endloop
endfacet
facet normal 0 -0.5611899542759197 -0.8276870394175513
outer loop
vertex 29.1 -11.19572 3.77228
vertex 104.1 -9.53775 2.64814
vertex 104.1 -11.19572 3.77228
endloop
endfacet
facet normal 0 -0.9476544357522452 0.319297777003057
outer loop
vertex 29.1 -17.82567 23.44927
vertex 104.1 -17.82567 23.44927
vertex 29.1 -17.18607 25.34756
endloop
endfacet
facet normal 0 -0.9476544357522452 0.319297777003057
outer loop
vertex 29.1 -17.18607 25.34756
vertex 104.1 -17.82567 23.44927
vertex 104.1 -17.18607 25.34756
endloop
endfacet
facet normal 0 -0.2675292856284724 -0.9635497295579089
outer loop
vertex 29.1 -3.97695 0.43252
vertex 104.1 -3.97695 0.43252
vertex 29.1 -5.90708 0.96842
endloop
endfacet
facet normal 0 -0.2675292856284724 -0.9635497295579089
outer loop
vertex 29.1 -5.90708 0.96842
vertex 104.1 -3.97695 0.43252
vertex 104.1 -5.90708 0.96842
endloop
endfacet
facet normal 0 -0.9766199470556902 -0.21497320533717845
outer loop
vertex 29.1 -17.82567 13.55073
vertex 104.1 -17.82567 13.55073
vertex 29.1 -18.25629 15.50703
endloop
endfacet
facet normal 0 -0.9766199470556902 -0.21497320533717845
outer loop
vertex 29.1 -18.25629 15.50703
vertex 104.1 -17.82567 13.55073
vertex 104.1 -18.25629 15.50703
endloop
endfacet
facet normal 0 0 1
outer loop
vertex -5.4859 2 0
vertex -5.4859 -2 0
vertex -4.95 0 0
endloop
endfacet
facet normal 0 0 1
outer loop
vertex -6.95 3.4641 0
vertex -5.4859 -2 0
vertex -5.4859 2 0
endloop
endfacet
facet normal 0 0 1
outer loop
vertex -6.95 3.4641 0
vertex -6.95 -3.4641 0
vertex -5.4859 -2 0
endloop
endfacet
facet normal 0 0 1
outer loop
vertex -8.95 4 0
vertex -6.95 -3.4641 0
vertex -6.95 3.4641 0
endloop
endfacet
facet normal 0 0 1
outer loop
vertex -8.95 4 0
vertex -8.95 -4 0
vertex -6.95 -3.4641 0
endloop
endfacet
facet normal 0 0 1
outer loop
vertex -10.95 3.4641 0
vertex -8.95 -4 0
vertex -8.95 4 0
endloop
endfacet
facet normal 0 0 1
outer loop
vertex -10.95 3.4641 0
vertex -10.95 -3.4641 0
vertex -8.95 -4 0
endloop
endfacet
facet normal 0 0 1
outer loop
vertex -12.4141 2 0
vertex -10.95 -3.4641 0
vertex -10.95 3.4641 0
endloop
endfacet
facet normal 0 0 1
outer loop
vertex -12.4141 2 0
vertex -12.4141 -2 0
vertex -10.95 -3.4641 0
endloop
endfacet
facet normal 0 0 1
outer loop
vertex -12.4141 -2 0
vertex -12.4141 2 0
vertex -12.95 0 0
endloop
endfacet
facet normal 0 0 -1
outer loop
vertex -4.95 0 -17.5
vertex -5.4859 -2 -17.5
vertex -5.4859 2 -17.5
endloop
endfacet
facet normal 0 0 -1
outer loop
vertex -5.4859 2 -17.5
vertex -5.4859 -2 -17.5
vertex -6.95 3.4641 -17.5
endloop
endfacet
facet normal 0 0 -1
outer loop
vertex -5.4859 -2 -17.5
vertex -6.95 -3.4641 -17.5
vertex -6.95 3.4641 -17.5
endloop
endfacet
facet normal 0 0 -1
outer loop
vertex -6.95 3.4641 -17.5
vertex -6.95 -3.4641 -17.5
vertex -8.95 4 -17.5
endloop
endfacet
facet normal 0 0 -1
outer loop
vertex -6.95 -3.4641 -17.5
vertex -8.95 -4 -17.5
vertex -8.95 4 -17.5
endloop
endfacet
facet normal 0 0 -1
outer loop
vertex -8.95 4 -17.5
vertex -8.95 -4 -17.5
vertex -10.95 3.4641 -17.5
endloop
endfacet
facet normal 0 0 -1
outer loop
vertex -8.95 -4 -17.5
vertex -10.95 -3.4641 -17.5
vertex -10.95 3.4641 -17.5
endloop
endfacet
facet normal 0 0 -1
outer loop
vertex -10.95 3.4641 -17.5
vertex -10.95 -3.4641 -17.5
vertex -12.4141 2 -17.5
endloop
endfacet
facet normal 0 0 -1
outer loop
vertex -10.95 -3.4641 -17.5
vertex -12.4141 -2 -17.5
vertex -12.4141 2 -17.5
endloop
endfacet
facet normal 0 0 -1
outer loop
vertex -12.95 0 -17.5
vertex -12.4141 2 -17.5
vertex -12.4141 -2 -17.5
endloop
endfacet
facet normal 0.9659256312759248 -0.258819772900384 0
outer loop
vertex -4.95 0 -17.5
vertex -4.95 0 0
vertex -5.4859 -2 -17.5
endloop
endfacet
facet normal 0.9659256312759248 -0.258819772900384 0
outer loop
vertex -5.4859 -2 -17.5
vertex -4.95 0 0
vertex -5.4859 -2 0
endloop
endfacet
facet normal -0.258819772900384 -0.9659256312759248 0
outer loop
vertex -8.95 -4 -17.5
vertex -8.95 -4 0
vertex -10.95 -3.4641 -17.5
endloop
endfacet
facet normal -0.258819772900384 -0.9659256312759248 0
outer loop
vertex -10.95 -3.4641 -17.5
vertex -8.95 -4 0
vertex -10.95 -3.4641 0
endloop
endfacet
facet normal 0.2588197729003841 0.9659256312759248 0
outer loop
vertex -8.95 4 -17.5
vertex -8.95 4 0
vertex -6.95 3.4641 -17.5
endloop
endfacet
facet normal 0.2588197729003841 0.9659256312759248 0
outer loop
vertex -6.95 3.4641 -17.5
vertex -8.95 4 0
vertex -6.95 3.4641 0
endloop
endfacet
facet normal -0.9659256312759248 0.258819772900384 0
outer loop
vertex -12.95 0 -17.5
vertex -12.95 0 0
vertex -12.4141 2 -17.5
endloop
endfacet
facet normal -0.9659256312759248 0.258819772900384 0
outer loop
vertex -12.4141 2 -17.5
vertex -12.95 0 0
vertex -12.4141 2 0
endloop
endfacet
facet normal -0.7071067811865476 0.7071067811865476 0
outer loop
vertex -12.4141 2 -17.5
vertex -12.4141 2 0
vertex -10.95 3.4641 -17.5
endloop
endfacet
facet normal -0.7071067811865476 0.7071067811865476 0
outer loop
vertex -10.95 3.4641 -17.5
vertex -12.4141 2 0
vertex -10.95 3.4641 0
endloop
endfacet
facet normal 0.7071067811865476 0.7071067811865476 0
outer loop
vertex -6.95 3.4641 -17.5
vertex -6.95 3.4641 0
vertex -5.4859 2 -17.5
endloop
endfacet
facet normal 0.7071067811865476 0.7071067811865476 0
outer loop
vertex -5.4859 2 -17.5
vertex -6.95 3.4641 0
vertex -5.4859 2 0
endloop
endfacet
facet normal 0.2588197729003841 -0.9659256312759248 0
outer loop
vertex -6.95 -3.4641 -17.5
vertex -6.95 -3.4641 0
vertex -8.95 -4 -17.5
endloop
endfacet
facet normal 0.2588197729003841 -0.9659256312759248 0
outer loop
vertex -8.95 -4 -17.5
vertex -6.95 -3.4641 0
vertex -8.95 -4 0
endloop
endfacet
facet normal -0.258819772900384 0.9659256312759248 0
outer loop
vertex -10.95 3.4641 -17.5
vertex -10.95 3.4641 0
vertex -8.95 4 -17.5
endloop
endfacet
facet normal -0.258819772900384 0.9659256312759248 0
outer loop
vertex -8.95 4 -17.5
vertex -10.95 3.4641 0
vertex -8.95 4 0
endloop
endfacet
facet normal -0.7071067811865476 -0.7071067811865476 0
outer loop
vertex -10.95 -3.4641 -17.5
vertex -10.95 -3.4641 0
vertex -12.4141 -2 -17.5
endloop
endfacet
facet normal -0.7071067811865476 -0.7071067811865476 0
outer loop
vertex -12.4141 -2 -17.5
vertex -10.95 -3.4641 0
vertex -12.4141 -2 0
endloop
endfacet
facet normal -0.9659256312759248 -0.258819772900384 0
outer loop
vertex -12.4141 -2 -17.5
vertex -12.4141 -2 0
vertex -12.95 0 -17.5
endloop
endfacet
facet normal -0.9659256312759248 -0.258819772900384 0
outer loop
vertex -12.95 0 -17.5
vertex -12.4141 -2 0
vertex -12.95 0 0
endloop
endfacet
facet normal 0.9659256312759248 0.258819772900384 0
outer loop
vertex -5.4859 2 -17.5
vertex -5.4859 2 0
vertex -4.95 0 -17.5
endloop
endfacet
facet normal 0.9659256312759248 0.258819772900384 0
outer loop
vertex -4.95 0 -17.5
vertex -5.4859 2 0
vertex -4.95 0 0
endloop
endfacet
facet normal 0.7071067811865476 -0.7071067811865476 0
outer loop
vertex -5.4859 -2 -17.5
vertex -5.4859 -2 0
vertex -6.95 -3.4641 -17.5
endloop
endfacet
facet normal 0.7071067811865476 -0.7071067811865476 0
outer loop
vertex -6.95 -3.4641 -17.5
vertex -5.4859 -2 0
vertex -6.95 -3.4641 0
endloop
endfacet
endsolid JSxCAD
