<?xml version="1.0" encoding="UTF-8"?>
<!-- Generated by jsxcad -->
<!DOCTYPE svg PUBLIC "-//W3C//DTD SVG 1.1 Tiny//EN" "http://www.w3.org/Graphics/SVG/1.1/DTD/svg11-tiny.dtd">
<svg viewBox="-250 -250 500 500" width="500" height="500" xmlns="http://www.w3.org/2000/svg"><path d="M14.341807457027151,-28.517588344986482L-0.3274297528132292,-57.785609254213405L13.520255704226862,-29.40478056160251z" style="fill:rgb(21,57,142)"/><path d="M16.672531621443444,-66.06884129463818L30.29298789338484,-36.273599322977965L30.08752909780972,-37.460952125369126z" style="fill:rgb(246,167,149)"/><path d="M15.442877501820476,-27.837916621803352L0.4976415611195771,-56.91234408380552L14.341807457027151,-28.517588344986482z" style="fill:rgb(34,46,160)"/><path d="M30.29298789338484,-36.273599322977965L16.71459950683527,-63.60861041132873L30.161479867547097,-34.994107878754676z" style="fill:rgb(246,149,167)"/><path d="M16.78179851652315,-27.39286898566495L1.6106003121478807,-56.250235249608515L15.442877501820476,-27.837916621803352z" style="fill:rgb(51,38,177)"/><path d="M30.161479867547097,-34.994107878754676L16.223043332607368,-62.28227242943139L29.696921650347303,-33.671811818291154z" style="fill:rgb(242,130,183)"/><path d="M4.5219085057772395,-55.65618030496784L16.78179851652315,-27.39286898566495L18.30728360794834,-27.200521349351533z" style="fill:rgb(71,33,192)"/><path d="M29.696921650347303,-33.671811818291154L15.409351296030847,-60.959720727628216L28.916354093483722,-32.35805480010772z" style="fill:rgb(233,112,197)"/><path d="M6.20822145436778,-55.74890857470576L18.30728360794834,-27.200521349351533L19.9603653946502,-27.269091024305332z" style="fill:rgb(92,32,204)"/><path d="M28.916354093483722,-32.35805480010772L14.3044203669861,-59.692602703657734L27.849408525642236,-31.104139597907537z" style="fill:rgb(220,94,208)"/><path d="M7.962673566983423,-56.10091056047882L19.9603653946502,-27.269091024305332L21.676723207645757,-27.59649331489053z" style="fill:rgb(115,34,214)"/><path d="M27.849408525642236,-31.104139597907537L12.950878936501976,-58.530619093553526L26.537229813220417,-29.959230704979543z" style="fill:rgb(203,77,216)"/><path d="M9.716659103320374,-56.6988301682124L21.676723207645757,-27.59649331489053L23.38926122070084,-28.17032209691361z" style="fill:rgb(139,40,220)"/><path d="M12.950878936501976,-58.530619093553526L25.0308767093261,-28.968314642947686L26.537229813220417,-29.959230704979543z" style="fill:rgb(183,62,221)"/><path d="M11.401416457419549,-57.51944409753245L23.38926122070084,-28.17032209691361L25.0308767093261,-28.968314642947686z" style="fill:rgb(162,50,222)"/><path d="M-0.3274297528132292,-57.785609254213405L14.341807457027151,-28.517588344986482L0.4976415611195771,-56.91234408380552z" style="fill:rgb(21,57,142)"/><path d="M30.29298789338484,-36.273599322977965L16.672531621443444,-66.06884129463818L16.865972004776502,-64.88722820242398z" style="fill:rgb(246,167,149)"/><path d="M0.4976415611195771,-56.91234408380552L15.442877501820476,-27.837916621803352L1.6106003121478807,-56.250235249608515z" style="fill:rgb(34,46,160)"/><path d="M16.71459950683527,-63.60861041132873L30.29298789338484,-36.273599322977965L16.865972004776502,-64.88722820242398z" style="fill:rgb(246,149,167)"/><path d="M1.6106003121478807,-56.250235249608515L16.78179851652315,-27.39286898566495L2.969365449585392,-55.82574109619373z" style="fill:rgb(51,38,177)"/><path d="M16.223043332607368,-62.28227242943139L30.161479867547097,-34.994107878754676L16.71459950683527,-63.60861041132873z" style="fill:rgb(242,130,183)"/><path d="M16.78179851652315,-27.39286898566495L4.5219085057772395,-55.65618030496784L2.969365449585392,-55.82574109619373z" style="fill:rgb(71,33,192)"/><path d="M15.409351296030847,-60.959720727628216L29.696921650347303,-33.671811818291154L16.223043332607368,-62.28227242943139z" style="fill:rgb(233,112,197)"/><path d="M18.30728360794834,-27.200521349351533L6.20822145436778,-55.74890857470576L4.5219085057772395,-55.65618030496784z" style="fill:rgb(92,32,204)"/><path d="M1.5960104269864404,-65.17180845913292L1.6106003121478807,-56.250235249608515L2.9377508718033343,-66.31604891959539zM-0.32582194714619633,-62.614146547791485L-0.3274297528132292,-57.785609254213405L0.49409719867666874,-63.9221579387305zM2.9377508718033343,-66.31604891959539L2.969365449585392,-55.82574109619373L4.468424773019327,-67.3119064757772z" style="fill:rgb(83,212,212)"/><path d="M14.3044203669861,-59.692602703657734L28.916354093483722,-32.35805480010772L15.409351296030847,-60.959720727628216z" style="fill:rgb(220,94,208)"/><path d="M0.49409719867666874,-63.9221579387305L1.6106003121478807,-56.250235249608515L1.5960104269864404,-65.17180845913292z" style="fill:rgb(83,212,212)"/><path d="M19.9603653946502,-27.269091024305332L7.962673566983423,-56.10091056047882L6.20822145436778,-55.74890857470576z" style="fill:rgb(115,34,214)"/><path d="M4.468424773019327,-67.3119064757772L6.20822145436778,-55.74890857470576L6.130266066434682,-68.12196919642193zM-0.8318988501555161,-61.29720470642854L-0.3274297528132292,-57.785609254213405L-0.32582194714619633,-62.614146547791485z" style="fill:rgb(83,212,212)"/><path d="M12.950878936501976,-58.530619093553526L27.849408525642236,-31.104139597907537L14.3044203669861,-59.692602703657734z" style="fill:rgb(203,77,216)"/><path d="M6.130266066434682,-68.12196919642193L7.962673566983423,-56.10091056047882L7.860698084827105,-68.7157056848319zM-0.8339888267565709,-58.835612105370785L-0.8318988501555161,-61.29720470642854L-1.0038767988841235,-60.021407982918525z" style="fill:rgb(83,212,212)"/><path d="M21.676723207645757,-27.59649331489053L9.716659103320374,-56.6988301682124L7.962673566983423,-56.10091056047882z" style="fill:rgb(139,40,220)"/><path d="M25.0308767093261,-28.968314642947686L12.950878936501976,-58.530619093553526L11.401416457419549,-57.51944409753245z" style="fill:rgb(183,62,221)"/><path d="M23.38926122070084,-28.17032209691361L11.401416457419549,-57.51944409753245L9.716659103320374,-56.6988301682124z" style="fill:rgb(162,50,222)"/><path d="M7.860698084827105,-68.7157056848319L9.716659103320374,-56.6988301682124L9.594544672374179,-69.07052941199869zM9.594544672374179,-69.07052941199869L11.401416457419549,-57.51944409753245L11.266337642344219,-69.17265860058265zM-0.8318988501555161,-61.29720470642854L-0.8339888267565709,-58.835612105370785L-0.3274297528132292,-57.785609254213405zM0.49409719867666874,-63.9221579387305L-0.3274297528132292,-57.785609254213405L0.4976415611195771,-56.91234408380552zM11.266337642344219,-69.17265860058265L11.401416457419549,-57.51944409753245L12.81265579604169,-69.01763965134461zM0.49409719867666874,-63.9221579387305L0.4976415611195771,-56.91234408380552L1.6106003121478807,-56.250235249608515zM12.81265579604169,-69.01763965134461L12.950878936501976,-58.530619093553526L14.17443881202215,-68.61061732847426zM2.9377508718033343,-66.31604891959539L1.6106003121478807,-56.250235249608515L2.969365449585392,-55.82574109619373zM14.17443881202215,-68.61061732847426L15.409351296030847,-60.959720727628216L15.29919946538352,-67.96625093994186zM15.29919946538352,-67.96625093994186L16.223043332607368,-62.28227242943139L16.14305772676247,-67.10829282190792zM4.468424773019327,-67.3119064757772L2.969365449585392,-55.82574109619373L4.5219085057772395,-55.65618030496784zM4.468424773019327,-67.3119064757772L4.5219085057772395,-55.65618030496784L6.20822145436778,-55.74890857470576zM16.14305772676247,-67.10829282190792L16.223043332607368,-62.28227242943139L16.672531621443444,-66.06884129463818zM6.130266066434682,-68.12196919642193L6.20822145436778,-55.74890857470576L7.962673566983423,-56.10091056047882zM16.672531621443444,-66.06884129463818L16.71459950683527,-63.60861041132873L16.865972004776502,-64.88722820242398zM7.860698084827105,-68.7157056848319L7.962673566983423,-56.10091056047882L9.716659103320374,-56.6988301682124zM9.594544672374179,-69.07052941199869L9.716659103320374,-56.6988301682124L11.401416457419549,-57.51944409753245zM15.29919946538352,-67.96625093994186L15.409351296030847,-60.959720727628216L16.223043332607368,-62.28227242943139zM14.17443881202215,-68.61061732847426L14.3044203669861,-59.692602703657734L15.409351296030847,-60.959720727628216zM16.672531621443444,-66.06884129463818L16.223043332607368,-62.28227242943139L16.71459950683527,-63.60861041132873zM12.81265579604169,-69.01763965134461L11.401416457419549,-57.51944409753245L12.950878936501976,-58.530619093553526zM14.17443881202215,-68.61061732847426L12.950878936501976,-58.530619093553526L14.3044203669861,-59.692602703657734z" style="fill:rgb(83,212,212)"/><path d="M29.74751936126736,-157.00287017866032L55.14385112747682,-14.36491610381755L50.066439654944375,-108.90385248700264z" style="fill:rgb(247,158,158)"/><path d="M-60.34184444626057,-130.51390734806066L32.90383176611404,-63.19539541944462L29.74751936126736,-157.00287017866032zM32.90383176611404,-63.19539541944462L-60.34184444626057,-130.51390734806066L-66.5881689271511,-36.25228164948804z" style="fill:rgb(83,212,212)"/><path d="M55.14385112747682,-14.36491610381755L29.74751936126736,-157.00287017866032L32.90383176611404,-63.19539541944462z" style="fill:rgb(247,158,158)"/><path d="M32.90383176611404,-63.19539541944462L-40.57209102122567,10.27555661205943L55.14385112747682,-14.36491610381755zM-40.57209102122567,10.27555661205943L32.90383176611404,-63.19539541944462L-66.5881689271511,-36.25228164948804z" style="fill:rgb(127,37,217)"/><path d="M-56.02448645069781,-32.047830103942474L-63.53341008378625,115.79015892510046L-55.03731058842877,-38.9189333589035z" style="fill:rgb(1,140,140)"/><path d="M43.79228868000208,112.09841571337657L40.036385762808806,-35.878704581272835L37.91587963644735,-42.64946307469512z" style="fill:rgb(251,149,149)"/><path d="M-55.03731058842877,-38.9189333589035L-60.311554896284534,109.22631782526548L-52.196811292369034,-45.54897730518062z" style="fill:rgb(7,157,157)"/><path d="M33.98246871527572,-49.02850130370003L43.79228868000208,112.09841571337657L37.91587963644735,-42.64946307469512z" style="fill:rgb(242,166,166)"/><path d="M-60.311554896284534,109.22631782526548L-47.58283645045508,-51.66812413240584L-52.196811292369034,-45.54897730518062z" style="fill:rgb(17,173,173)"/><path d="M32.815996300433135,100.09531548950845L33.98246871527572,-49.02850130370003L28.363324014975873,-54.751215535605446z" style="fill:rgb(229,181,181)"/><path d="M-47.58283645045508,-51.66812413240584L-47.860890975923,97.84153264778818L-41.35340350208449,-57.01885600566394z" style="fill:rgb(32,187,187)"/><path d="M21.262596615477815,-59.57265005999099L32.815996300433135,100.09531548950845L28.363324014975873,-54.751215535605446z" style="fill:rgb(212,194,194)"/><path d="M-47.860890975923,97.84153264778818L-33.74198768610227,-61.36924606961096L-41.35340350208449,-57.01885600566394z" style="fill:rgb(50,199,199)"/><path d="M12.955779320245846,-63.280817692866684L24.617543857579403,95.30159025001883L21.262596615477815,-59.57265005999099z" style="fill:rgb(192,205,205)"/><path d="M-39.07607264451183,93.51362559704471L-25.0498476185675,-64.52605260696964L-33.74198768610227,-61.36924606961096z" style="fill:rgb(72,208,208)"/><path d="M4.379125126386039,89.19076048536401L12.955779320245846,-63.280817692866684L3.778999783936592,-65.70915873673253z" style="fill:rgb(169,212,212)"/><path d="M-29.02297213529792,90.36975238603557L-15.633268712523389,-66.34641697964739L-25.0498476185675,-64.52605260696964z" style="fill:rgb(95,214,214)"/><path d="M-6.822243404669535,88.15626522279662L3.778999783936592,-65.70915873673253L-5.886431305080858,-66.74693272742577z" style="fill:rgb(145,216,216)"/><path d="M-15.633268712523389,-66.34641697964739L-6.822243404669535,88.15626522279662L-5.886431305080858,-66.74693272742577z" style="fill:rgb(120,217,217)"/><path d="M-63.53341008378625,115.79015892510046L-56.02448645069781,-32.047830103942474L-64.60954876683672,122.57953297882406z" style="fill:rgb(1,140,140)"/><path d="M40.036385762808806,-35.878704581272835L43.79228868000208,112.09841571337657L46.196728901313534,118.79586708542936z" style="fill:rgb(251,149,149)"/><path d="M-60.311554896284534,109.22631782526548L-55.03731058842877,-38.9189333589035L-63.53341008378625,115.79015892510046z" style="fill:rgb(7,157,157)"/><path d="M43.79228868000208,112.09841571337657L33.98246871527572,-49.02850130370003L39.28508008164326,105.77655116001313z" style="fill:rgb(242,166,166)"/><path d="M-47.58283645045508,-51.66812413240584L-60.311554896284534,109.22631782526548L-55.02842723100316,103.15721444456655z" style="fill:rgb(17,173,173)"/><path d="M33.98246871527572,-49.02850130370003L32.815996300433135,100.09531548950845L39.28508008164326,105.77655116001313z" style="fill:rgb(229,181,181)"/><path d="M-47.860890975923,97.84153264778818L-47.58283645045508,-51.66812413240584L-55.02842723100316,103.15721444456655z" style="fill:rgb(32,187,187)"/><path d="M32.815996300433135,100.09531548950845L21.262596615477815,-59.57265005999099L24.617543857579403,95.30159025001883z" style="fill:rgb(212,194,194)"/><path d="M-33.74198768610227,-61.36924606961096L-47.860890975923,97.84153264778818L-39.07607264451183,93.51362559704471z" style="fill:rgb(50,199,199)"/><path d="M24.617543857579403,95.30159025001883L12.955779320245846,-63.280817692866684L15.007999135465301,91.61023112595333z" style="fill:rgb(192,205,205)"/><path d="M-25.0498476185675,-64.52605260696964L-39.07607264451183,93.51362559704471L-29.02297213529792,90.36975238603557z" style="fill:rgb(72,208,208)"/><path d="M-6.822243404669535,88.15626522279662L-10.998154689326388,157.41683921694948L-0.5165662283244259,157.0731840578003zM-18.117571270660957,88.55555279467704L-21.41175122459497,156.52532276014557L-10.998154689326388,157.41683921694948z" style="fill:rgb(127,37,217)"/><path d="M12.955779320245846,-63.280817692866684L4.379125126386039,89.19076048536401L15.007999135465301,91.61023112595333z" style="fill:rgb(169,212,212)"/><path d="M4.379125126386039,89.19076048536401L-0.5165662283244259,157.0731840578003L9.673251773355373,155.504722825982zM-29.02297213529792,90.36975238603557L-31.398961514478277,154.42560958300365L-21.41175122459497,156.52532276014557zM15.007999135465301,91.61023112595333L9.673251773355373,155.504722825982L19.21800570030223,152.75915431433202zM-39.07607264451183,93.51362559704471L-40.61069421371999,151.18192332243646L-31.398961514478277,154.42560958300365z" style="fill:rgb(127,37,217)"/><path d="M-15.633268712523389,-66.34641697964739L-29.02297213529792,90.36975238603557L-18.117571270660957,88.55555279467704z" style="fill:rgb(95,214,214)"/><path d="M3.778999783936592,-65.70915873673253L-6.822243404669535,88.15626522279662L4.379125126386039,89.19076048536401z" style="fill:rgb(145,216,216)"/><path d="M24.617543857579403,95.30159025001883L19.21800570030223,152.75915431433202L27.779041038075388,148.92133505450076z" style="fill:rgb(127,37,217)"/><path d="M-6.822243404669535,88.15626522279662L-15.633268712523389,-66.34641697964739L-18.117571270660957,88.55555279467704z" style="fill:rgb(120,217,217)"/><path d="M-47.860890975923,97.84153264778818L-48.71561646716714,146.89552278090216L-40.61069421371999,151.18192332243646zM32.815996300433135,100.09531548950845L27.779041038075388,148.92133505450076L35.04122238644488,144.11281940292835zM-55.02842723100316,103.15721444456655L-55.40945013674304,141.703981676752L-48.71561646716714,146.89552278090216zM39.28508008164326,105.77655116001313L35.04122238644488,144.11281940292835L40.722767964523904,138.49080338056567zM-60.311554896284534,109.22631782526548L-60.4252622289546,135.77974182754184L-55.40945013674304,141.703981676752zM43.79228868000208,112.09841571337657L40.722767964523904,138.49080338056567L44.586032631348225,132.24601212954192zM-63.53341008378625,115.79015892510046L-63.54467791201389,129.32742985986957L-60.4252622289546,135.77974182754184zM46.196728901313534,118.79586708542936L44.586032631348225,132.24601212954192L46.44897496877622,125.59922826413703zM-63.54467791201389,129.32742985986957L-63.53341008378625,115.79015892510046L-64.60954876683672,122.57953297882406zM43.79228868000208,112.09841571337657L44.586032631348225,132.24601212954192L46.196728901313534,118.79586708542936zM-63.53341008378625,115.79015892510046L-60.4252622289546,135.77974182754184L-60.311554896284534,109.22631782526548zM39.28508008164326,105.77655116001313L40.722767964523904,138.49080338056567L43.79228868000208,112.09841571337657zM-60.311554896284534,109.22631782526548L-55.40945013674304,141.703981676752L-55.02842723100316,103.15721444456655zM32.815996300433135,100.09531548950845L35.04122238644488,144.11281940292835L39.28508008164326,105.77655116001313zM-55.02842723100316,103.15721444456655L-48.71561646716714,146.89552278090216L-47.860890975923,97.84153264778818zM24.617543857579403,95.30159025001883L27.779041038075388,148.92133505450076L32.815996300433135,100.09531548950845zM-47.860890975923,97.84153264778818L-40.61069421371999,151.18192332243646L-39.07607264451183,93.51362559704471zM15.007999135465301,91.61023112595333L19.21800570030223,152.75915431433202L24.617543857579403,95.30159025001883zM-39.07607264451183,93.51362559704471L-31.398961514478277,154.42560958300365L-29.02297213529792,90.36975238603557zM4.379125126386039,89.19076048536401L9.673251773355373,155.504722825982L15.007999135465301,91.61023112595333zM-29.02297213529792,90.36975238603557L-21.41175122459497,156.52532276014557L-18.117571270660957,88.55555279467704zM-6.822243404669535,88.15626522279662L-0.5165662283244259,157.0731840578003L4.379125126386039,89.19076048536401zM-18.117571270660957,88.55555279467704L-10.998154689326388,157.41683921694948L-6.822243404669535,88.15626522279662z" style="fill:rgb(127,37,217)"/></svg>
