<svg viewBox="-250 -250 500 500" width="500" height="500" xmlns="http://www.w3.org/2000/svg"><path d="M57.62128753063711,-91.01998417603895L34.888001461273745,-144.83430432680373L63.364966667134205,3.6854742332349133z" style="fill:rgb(247,158,158)"/><path d="M-59.99078122324834,-24.453313551130254L34.888001461273745,-144.83430432680373L-54.41921176309749,-118.87469068256327z" style="fill:rgb(83,212,212)"/><path d="M63.364966667134205,3.6854742332349133L34.888001461273745,-144.83430432680373L38.54821077680835,-50.802546390297024z" style="fill:rgb(247,158,158)"/><path d="M63.364966667134205,3.6854742332349133L38.54821077680835,-50.802546390297024L-30.940903008448675,27.500211061885214z" style="fill:rgb(127,37,217)"/><path d="M34.888001461273745,-144.83430432680373L-59.99078122324834,-24.453313551130254L38.54821077680835,-50.802546390297024z" style="fill:rgb(83,212,212)"/><path d="M-30.940903008448675,27.500211061885214L38.54821077680835,-50.802546390297024L-59.99078122324834,-24.453313551130254z" style="fill:rgb(127,37,217)"/><path d="M-44.570686369374364,-27.80375841238031L-44.51801873156777,-28.65113134781714L-44.536287221256316,-28.58582319349182z" style="fill:rgb(3,148,147)"/><path d="M-54.809038930834106,136.8500981261089L-44.536287221256316,-28.58582319349182L-47.62450075741072,-17.56140472758621zM-54.809038930834106,136.8500981261089L-44.570686369374364,-27.80375841238031L-44.536287221256316,-28.58582319349182z" style="fill:rgb(3,148,148)"/><path d="M43.63148679668072,-29.82866825038107L50.30154160520977,124.7694700709158L47.31394798148219,-18.816561931572604z" style="fill:rgb(250,151,151)"/><path d="M-44.570686369374364,-27.80375841238031L-51.31497652153716,125.93092937520484L-44.51801873156777,-28.65113134781714z" style="fill:rgb(3,148,147)"/><path d="M-44.51801873156777,-28.65113134781714L-51.31497652153716,125.93092937520484L-36.43266645574313,-38.488810670233576z" style="fill:rgb(19,175,175)"/><path d="M35.029190360265645,-39.45212389144893L40.439720155666855,115.2627555106479L43.63148679668072,-29.82866825038107z" style="fill:rgb(232,178,178)"/><path d="M-36.43266645574313,-38.488810670233576L-42.0541865986296,116.2155368629764L-24.167158339953698,-45.90701034281959z" style="fill:rgb(47,197,197)"/><path d="M25.916317428534345,107.24538131759164L35.029190360265645,-39.45212389144893L22.446648825680633,-46.49701081152584zM25.854186619730147,108.24553363035564L22.446648825680633,-46.49701081152584L22.372414451771625,-46.538580212223685z" style="fill:rgb(203,199,199)"/><path d="M-24.167158339953698,-45.90701034281959L-27.925720144894996,108.87151028893764L-9.078812626250294,-49.98614757342032z" style="fill:rgb(83,212,212)"/><path d="M7.073030181246403,-50.20611904716826L8.178081097922076,104.60824141108328L22.372414451771625,-46.538580212223685z" style="fill:rgb(166,213,213)"/><path d="M-9.078812626250294,-49.98614757342032L-10.49690544074225,104.82650144845678L7.073030181246403,-50.20611904716826z" style="fill:rgb(125,217,217)"/><path d="M47.31394798148219,-18.816561931572604L50.30154160520977,124.7694700709158L54.461373902716396,135.6160033539221z" style="fill:rgb(250,151,151)"/><path d="M-44.570686369374364,-27.80375841238031L-54.809038930834106,136.8500981261089L-51.335556925670765,125.99530539080436z" style="fill:rgb(3,148,148)"/><path d="M33.2740379252789,164.32875945907125L-16.346635847267034,169.79736808054872L0.8453483421885022,171.3013354607847zM33.2740379252789,164.32875945907125L0.8453483421885022,171.3013354607847L17.942815620900888,169.42438943870573z" style="fill:rgb(127,37,217)"/><path d="M-44.570686369374364,-27.80375841238031L-51.335556925670765,125.99530539080436L-51.31497652153716,125.93092937520484z" style="fill:rgb(3,148,148)"/><path d="M45.28345539639502,156.4665467036325L-16.346635847267034,169.79736808054872L33.2740379252789,164.32875945907125z" style="fill:rgb(127,37,217)"/><path d="M43.63148679668072,-29.82866825038107L40.439720155666855,115.2627555106479L50.30154160520977,124.7694700709158z" style="fill:rgb(232,178,178)"/><path d="M-36.43266645574313,-38.488810670233576L-51.31497652153716,125.93092937520484L-42.0541865986296,116.2155368629764z" style="fill:rgb(19,175,175)"/><path d="M52.65629171355623,146.5690895214895L-31.95538048013767,165.04228907476602L-16.346635847267034,169.79736808054872zM52.65629171355623,146.5690895214895L-16.346635847267034,169.79736808054872L45.28345539639502,156.4665467036325z" style="fill:rgb(127,37,217)"/><path d="M25.916317428534345,107.24538131759164L40.439720155666855,115.2627555106479L35.029190360265645,-39.45212389144893z" style="fill:rgb(203,199,199)"/><path d="M-24.167158339953698,-45.90701034281959L-42.0541865986296,116.2155368629764L-27.925720144894996,108.87151028893764z" style="fill:rgb(47,197,197)"/><path d="M54.461373902716396,135.6160033539221L-44.40655089435573,157.4563090473872L-31.95538048013767,165.04228907476602z" style="fill:rgb(127,37,217)"/><path d="M25.854186619730147,108.24553363035564L25.916317428534345,107.24538131759164L22.446648825680633,-46.49701081152584z" style="fill:rgb(203,199,199)"/><path d="M54.461373902716396,135.6160033539221L-31.95538048013767,165.04228907476602L52.65629171355623,146.5690895214895z" style="fill:rgb(127,37,217)"/><path d="M22.372414451771625,-46.538580212223685L8.178081097922076,104.60824141108328L25.854186619730147,108.24553363035564z" style="fill:rgb(166,213,213)"/><path d="M-9.078812626250294,-49.98614757342032L-27.925720144894996,108.87151028893764L-10.49690544074225,104.82650144845678z" style="fill:rgb(83,212,212)"/><path d="M7.073030181246403,-50.20611904716826L-10.49690544074225,104.82650144845678L8.178081097922076,104.60824141108328z" style="fill:rgb(125,217,217)"/><path d="M50.30154160520977,124.7694700709158L-52.35161819551332,147.74075241921219L-44.40655089435573,157.4563090473872zM50.30154160520977,124.7694700709158L-44.40655089435573,157.4563090473872L54.461373902716396,135.6160033539221zM50.30154160520977,124.7694700709158L-54.809038930834106,136.8500981261089L-52.35161819551332,147.74075241921219zM40.439720155666855,115.2627555106479L-54.809038930834106,136.8500981261089L50.30154160520977,124.7694700709158zM-51.335556925670765,125.99530539080436L-54.809038930834106,136.8500981261089L25.36936960175567,108.41745485224304zM25.36936960175567,108.41745485224304L-54.809038930834106,136.8500981261089L40.439720155666855,115.2627555106479zM-51.31497652153716,125.93092937520484L-51.335556925670765,125.99530539080436L25.36936960175567,108.41745485224304zM-42.0541865986296,116.2155368629764L-51.31497652153716,125.93092937520484L8.178081097922076,104.60824141108328zM-51.31497652153716,125.93092937520484L25.36936960175567,108.41745485224304L25.854186619730147,108.24553363035564zM-51.31497652153716,125.93092937520484L25.854186619730147,108.24553363035564L8.178081097922076,104.60824141108328z" style="fill:rgb(127,37,217)"/><path d="M25.916317428534345,107.24538131759164L25.93981884428136,108.28673816688178L40.439720155666855,115.2627555106479z" style="fill:rgb(203,199,199)"/><path d="M25.36936960175567,108.41745485224304L40.439720155666855,115.2627555106479L25.93981884428136,108.28673816688178zM-10.49690544074225,104.82650144845678L-27.925720144894996,108.87151028893764L-42.0541865986296,116.2155368629764z" style="fill:rgb(127,37,217)"/><path d="M25.916317428534345,107.24538131759164L25.854186619730147,108.24553363035564L25.93981884428136,108.28673816688178z" style="fill:rgb(203,199,199)"/><path d="M-42.0541865986296,116.2155368629764L8.178081097922076,104.60824141108328L-10.49690544074225,104.82650144845678zM25.36936960175567,108.41745485224304L25.93981884428136,108.28673816688178L25.854186619730147,108.24553363035564z" style="fill:rgb(127,37,217)"/></svg>