<?xml version="1.0" encoding="UTF-8"?>
<!-- Generated by jsxcad -->
<!DOCTYPE svg PUBLIC "-//W3C//DTD SVG 1.1 Tiny//EN" "http://www.w3.org/Graphics/SVG/1.1/DTD/svg11-tiny.dtd">
<svg viewBox="-250 -250 500 500" width="500" height="500" xmlns="http://www.w3.org/2000/svg"><path d="M14.507844353219006,-28.061107145640303L1.4548478778741338,-54.01365035962288L13.685646126082382,-28.949354494506917z" style="fill:rgb(21,57,142)"/><path d="M18.413465456830863,-62.274537239629986L30.467542528212608,-35.82102212305018L30.261753809908956,-37.009574188570184z" style="fill:rgb(246,167,149)"/><path d="M15.60970175213941,-27.380519508828364L2.2802169971270145,-53.137581922748325L14.507844353219006,-28.061107145640303z" style="fill:rgb(34,46,160)"/><path d="M30.467542528212608,-35.82102212305018L18.459810615160208,-59.810877606888056L30.336172213723096,-34.54031490963061z" style="fill:rgb(246,149,167)"/><path d="M16.949518170875088,-26.934725398497076L3.392638593282516,-52.47239625148837L15.60970175213941,-27.380519508828364z" style="fill:rgb(51,38,177)"/><path d="M30.336172213723096,-34.54031490963061L17.971374668417937,-58.48372405394532L29.871552870930902,-33.21683600372998z" style="fill:rgb(242,130,183)"/><path d="M6.3004650600516765,-51.87182253937263L16.949518170875088,-26.934725398497076L18.475972181460477,-26.741837166625338z" style="fill:rgb(71,33,192)"/><path d="M29.871552870930902,-33.21683600372998L17.16130632920445,-57.160995263057615L29.09072692217134,-31.90197577194711z" style="fill:rgb(233,112,197)"/><path d="M7.98396513053405,-51.961356638500575L18.475972181460477,-26.741837166625338L20.130062389879996,-26.810094911356096z" style="fill:rgb(92,32,204)"/><path d="M29.09072692217134,-31.90197577194711L16.060367007706127,-55.89435970924281L28.023332353265065,-30.64707792772521z" style="fill:rgb(220,94,208)"/><path d="M9.735025872905197,-52.31037451652564L20.130062389879996,-26.810094911356096L21.847422222768333,-27.137419451466013z" style="fill:rgb(115,34,214)"/><path d="M28.023332353265065,-30.64707792772521L14.7110279836969,-54.73349303357153L26.71053810669559,-29.50135080161858z" style="fill:rgb(203,77,216)"/><path d="M11.48517802797971,-52.90563636321486L21.847422222768333,-27.137419451466013L23.56092440124949,-27.711417896867854z" style="fill:rgb(139,40,220)"/><path d="M14.7110279836969,-54.73349303357153L25.203420577643982,-28.509813710717545L26.71053810669559,-29.50135080161858z" style="fill:rgb(183,62,221)"/><path d="M13.165812659939883,-53.72402856133054L23.56092440124949,-27.711417896867854L25.203420577643982,-28.509813710717545z" style="fill:rgb(162,50,222)"/><path d="M1.4548478778741338,-54.01365035962288L14.507844353219006,-28.061107145640303L2.2802169971270145,-53.137581922748325z" style="fill:rgb(21,57,142)"/><path d="M30.467542528212608,-35.82102212305018L18.413465456830863,-62.274537239629986L18.60868725788264,-61.09093099197365z" style="fill:rgb(246,167,149)"/><path d="M6.22612857379106,-63.54349426103782L15.445242058643545,-64.96637025653307L7.883958986132162,-64.35139220637011zM4.699598711284113,-62.54928843835421L15.445242058643545,-64.96637025653307L6.22612857379106,-63.54349426103782zM7.883958986132162,-64.35139220637011L15.445242058643545,-64.96637025653307L9.610659560895353,-64.9425175689494zM15.445242058643545,-64.96637025653307L4.699598711284113,-62.54928843835421L3.823470999070956,-61.800523735680294zM9.610659560895353,-64.9425175689494L15.445242058643545,-64.96637025653307L11.34119345706967,-65.29439911319704z" style="fill:rgb(83,212,212)"/><path d="M2.2802169971270145,-53.137581922748325L15.60970175213941,-27.380519508828364L3.392638593282516,-52.47239625148837z" style="fill:rgb(34,46,160)"/><path d="M18.459810615160208,-59.810877606888056L30.467542528212608,-35.82102212305018L18.60868725788264,-61.09093099197365z" style="fill:rgb(246,149,167)"/><path d="M11.34119345706967,-65.29439911319704L15.445242058643545,-64.96637025653307L13.010214964159143,-65.39334874236339zM13.010214964159143,-65.39334874236339L15.445242058643545,-64.96637025653307L14.554406669929445,-65.23504558770615z" style="fill:rgb(83,212,212)"/><path d="M3.392638593282516,-52.47239625148837L16.949518170875088,-26.934725398497076L4.750047486120739,-52.044662414225435z" style="fill:rgb(51,38,177)"/><path d="M17.971374668417937,-58.48372405394532L30.336172213723096,-34.54031490963061L18.459810615160208,-59.810877606888056z" style="fill:rgb(242,130,183)"/><path d="M16.949518170875088,-26.934725398497076L6.3004650600516765,-51.87182253937263L4.750047486120739,-52.044662414225435z" style="fill:rgb(71,33,192)"/><path d="M3.3619815594659426,-61.40612171881856L3.392638593282516,-52.47239625148837L3.823470999070956,-61.800523735680294z" style="fill:rgb(83,212,212)"/><path d="M17.16130632920445,-57.160995263057615L29.871552870930902,-33.21683600372998L17.971374668417937,-58.48372405394532z" style="fill:rgb(233,112,197)"/><path d="M2.264016611469976,-60.15693259311153L3.392638593282516,-52.47239625148837L3.3619815594659426,-61.40612171881856zM1.447721649681316,-58.848741145982785L2.2802169971270145,-53.137581922748325L2.264016611469976,-60.15693259311153zM0.9448056084310218,-57.53100176172861L1.4548478778741338,-54.01365035962288L1.447721649681316,-58.848741145982785z" style="fill:rgb(83,212,212)"/><path d="M18.475972181460477,-26.741837166625338L7.98396513053405,-51.961356638500575L6.3004650600516765,-51.87182253937263z" style="fill:rgb(92,32,204)"/><path d="M0.9471733523476659,-55.06606792849326L0.9448056084310218,-57.53100176172861L0.775401695896997,-56.25380689102455z" style="fill:rgb(83,212,212)"/><path d="M16.060367007706127,-55.89435970924281L29.09072692217134,-31.90197577194711L17.16130632920445,-57.160995263057615z" style="fill:rgb(220,94,208)"/><path d="M3.823470999070956,-61.800523735680294L4.750047486120739,-52.044662414225435L15.445242058643545,-64.96637025653307z" style="fill:rgb(83,212,212)"/><path d="M20.130062389879996,-26.810094911356096L9.735025872905197,-52.31037451652564L7.98396513053405,-51.961356638500575z" style="fill:rgb(115,34,214)"/><path d="M14.7110279836969,-54.73349303357153L28.023332353265065,-30.64707792772521L16.060367007706127,-55.89435970924281z" style="fill:rgb(203,77,216)"/><path d="M0.9448056084310218,-57.53100176172861L0.9471733523476659,-55.06606792849326L1.4548478778741338,-54.01365035962288zM-12.875502085303118,-69.15868194181058L-10.218273027906205,-48.964852371217525L-9.976821073342158,-72.40883373516579zM-9.976821073342158,-72.40883373516579L-6.650057269868953,-47.816894069196984L-6.465507320236882,-75.38258582372256z" style="fill:rgb(83,212,212)"/><path d="M21.847422222768333,-27.137419451466013L11.48517802797971,-52.90563636321486L9.735025872905197,-52.31037451652564z" style="fill:rgb(139,40,220)"/><path d="M-15.051485152178552,-65.75031912850442L-13.119517143754505,-50.73823904546959L-12.875502085303118,-69.15868194181058z" style="fill:rgb(83,212,212)"/><path d="M25.203420577643982,-28.509813710717545L14.7110279836969,-54.73349303357153L13.165812659939883,-53.72402856133054z" style="fill:rgb(183,62,221)"/><path d="M-6.465507320236882,-75.38258582372256L-2.5504880002105264,-47.345539675166954L-2.471884929666462,-77.97241416419574z" style="fill:rgb(83,212,212)"/><path d="M23.56092440124949,-27.711417896867854L13.165812659939883,-53.72402856133054L11.48517802797971,-52.90563636321486z" style="fill:rgb(162,50,222)"/><path d="M1.447721649681316,-58.848741145982785L1.4548478778741338,-54.01365035962288L2.2802169971270145,-53.137581922748325zM-16.418972746567658,-62.30905606804806L-15.247288741218103,-53.06185899801187L-15.051485152178552,-65.75031912850442zM-2.471884929666462,-77.97241416419574L1.920621609941761,-47.574863245229515L1.8577768398686278,-80.08459826732363zM2.264016611469976,-60.15693259311153L2.2802169971270145,-53.137581922748325L3.392638593282516,-52.47239625148837zM15.445242058643545,-64.96637025653307L16.060367007706127,-55.89435970924281L15.914790249531126,-64.82475800420896zM3.823470999070956,-61.800523735680294L3.392638593282516,-52.47239625148837L4.750047486120739,-52.044662414225435zM-16.527479790008922,-55.840475443452334L-16.418972746567658,-62.30905606804806L-16.920009817082157,-58.963351226418716zM1.8577768398686278,-80.08459826732363L6.585716528673894,-48.499988490937085L6.365828972413046,-81.64202129493472zM15.914790249531126,-64.82475800420896L16.060367007706127,-55.89435970924281L17.03893449179437,-64.17727158888765zM17.03893449179437,-64.17727158888765L17.971374668417937,-58.48372405394532L17.882988731251437,-63.316461556059956zM6.365828972413046,-81.64202129493472L11.257195344069029,-50.08660001407482L10.888026371959171,-82.58648130935259zM17.882988731251437,-63.316461556059956L17.971374668417937,-58.48372405394532L18.413465456830863,-62.274537239629986zM15.445242058643545,-64.96637025653307L4.750047486120739,-52.044662414225435L6.3004650600516765,-51.87182253937263zM18.413465456830863,-62.274537239629986L18.459810615160208,-59.810877606888056L18.60868725788264,-61.09093099197365zM15.445242058643545,-64.96637025653307L6.3004650600516765,-51.87182253937263L7.98396513053405,-51.961356638500575zM10.888026371959171,-82.58648130935259L15.745924679075905,-52.27205846805116L15.25852601474044,-82.88071223345007zM-16.418972746567658,-62.30905606804806L-16.527479790008922,-55.840475443452334L-15.247288741218103,-53.06185899801187zM17.03893449179437,-64.17727158888765L17.16130632920445,-57.160995263057615L17.971374668417937,-58.48372405394532zM18.413465456830863,-62.274537239629986L17.971374668417937,-58.48372405394532L18.459810615160208,-59.810877606888056zM15.445242058643545,-64.96637025653307L7.98396513053405,-51.961356638500575L9.735025872905197,-52.31037451652564zM15.445242058643545,-64.96637025653307L14.7110279836969,-54.73349303357153L16.060367007706127,-55.89435970924281zM17.03893449179437,-64.17727158888765L16.060367007706127,-55.89435970924281L17.16130632920445,-57.160995263057615zM15.445242058643545,-64.96637025653307L9.735025872905197,-52.31037451652564L11.48517802797971,-52.90563636321486zM15.445242058643545,-64.96637025653307L13.165812659939883,-53.72402856133054L14.7110279836969,-54.73349303357153zM15.445242058643545,-64.96637025653307L11.48517802797971,-52.90563636321486L13.165812659939883,-53.72402856133054zM-15.051485152178552,-65.75031912850442L-15.247288741218103,-53.06185899801187L-13.119517143754505,-50.73823904546959zM15.25852601474044,-82.88071223345007L15.745924679075905,-52.27205846805116L19.315082496801132,-82.50995264341996z" style="fill:rgb(83,212,212)"/><path d="M-9.787388416003298,-44.11087554975012L-15.247288741218103,-53.06185899801187L-11.913805625068987,-46.443340730943476z" style="fill:rgb(21,57,142)"/><path d="M19.315082496801132,-82.50995264341996L23.46336144441856,-58.06476629270538L22.90441919569987,-81.48294781872953z" style="fill:rgb(83,212,212)"/><path d="M29.58512282941715,-74.909634463117L33.214367705362555,-65.05259648053809L32.65133481870713,-68.15061641079873z" style="fill:rgb(246,167,149)"/><path d="M-12.875502085303118,-69.15868194181058L-13.119517143754505,-50.73823904546959L-10.218273027906205,-48.964852371217525zM22.90441919569987,-81.48294781872953L26.38311974249159,-61.43588126361818L25.887693757214286,-79.83246736881634zM-9.976821073342158,-72.40883373516579L-10.218273027906205,-48.964852371217525L-6.650057269868953,-47.816894069196984z" style="fill:rgb(83,212,212)"/><path d="M-15.247288741218103,-53.06185899801187L-9.787388416003298,-44.11087554975012L-13.119517143754505,-50.73823904546959z" style="fill:rgb(21,57,142)"/><path d="M-6.89280772635659,-42.32640907909757L-13.119517143754505,-50.73823904546959L-9.787388416003298,-44.11087554975012z" style="fill:rgb(34,46,160)"/><path d="M-6.465507320236882,-75.38258582372256L-6.650057269868953,-47.816894069196984L-2.5504880002105264,-47.345539675166954z" style="fill:rgb(83,212,212)"/><path d="M33.214367705362555,-65.05259648053809L29.58512282941715,-74.909634463117L30.1410377167659,-71.81595593494644z" style="fill:rgb(246,167,149)"/><path d="M25.887693757214286,-79.83246736881634L26.38311974249159,-61.43588126361818L28.145916808254253,-77.61499666220519z" style="fill:rgb(83,212,212)"/><path d="M33.214367705362555,-65.05259648053809L29.78288671678432,-68.45094907516332L32.868264880828825,-61.68638631207209z" style="fill:rgb(246,149,167)"/><path d="M-2.471884929666462,-77.97241416419574L-2.5504880002105264,-47.345539675166954L1.920621609941761,-47.574863245229515zM28.145916808254253,-77.61499666220519L28.51603974372093,-64.94481251972933L29.58512282941715,-74.909634463117z" style="fill:rgb(83,212,212)"/><path d="M-13.119517143754505,-50.73823904546959L-6.89280772635659,-42.32640907909757L-10.218273027906205,-48.964852371217525z" style="fill:rgb(34,46,160)"/><path d="M-3.3363832237527755,-41.1655119244459L-10.218273027906205,-48.964852371217525L-6.89280772635659,-42.32640907909757z" style="fill:rgb(51,38,177)"/><path d="M29.78288671678432,-68.45094907516332L33.214367705362555,-65.05259648053809L30.1410377167659,-71.81595593494644z" style="fill:rgb(246,149,167)"/><path d="M1.8577768398686278,-80.08459826732363L1.920621609941761,-47.574863245229515L6.585716528673894,-48.499988490937085zM29.58512282941715,-74.909634463117L29.78288671678432,-68.45094907516332L30.1410377167659,-71.81595593494644zM6.365828972413046,-81.64202129493472L6.585716528673894,-48.499988490937085L11.257195344069029,-50.08660001407482z" style="fill:rgb(83,212,212)"/><path d="M32.868264880828825,-61.68638631207209L28.51603974372093,-64.94481251972933L31.618019149155643,-58.182261087619445z" style="fill:rgb(242,130,183)"/><path d="M10.888026371959171,-82.58648130935259L11.257195344069029,-50.08660001407482L15.745924679075905,-52.27205846805116zM22.90441919569987,-81.48294781872953L23.46336144441856,-58.06476629270538L26.38311974249159,-61.43588126361818zM19.315082496801132,-82.50995264341996L19.870026917144028,-54.968079385572175L23.46336144441856,-58.06476629270538zM29.58512282941715,-74.909634463117L28.51603974372093,-64.94481251972933L29.78288671678432,-68.45094907516332z" style="fill:rgb(83,212,212)"/><path d="M-10.218273027906205,-48.964852371217525L-3.3363832237527755,-41.1655119244459L-6.650057269868953,-47.816894069196984z" style="fill:rgb(51,38,177)"/><path d="M28.51603974372093,-64.94481251972933L32.868264880828825,-61.68638631207209L29.78288671678432,-68.45094907516332z" style="fill:rgb(242,130,183)"/><path d="M19.315082496801132,-82.50995264341996L15.745924679075905,-52.27205846805116L19.870026917144028,-54.968079385572175zM28.145916808254253,-77.61499666220519L26.38311974249159,-61.43588126361818L28.51603974372093,-64.94481251972933z" style="fill:rgb(83,212,212)"/><path d="M-2.5504880002105264,-47.345539675166954L-3.3363832237527755,-41.1655119244459L0.746678050281134,-40.67979968603831z" style="fill:rgb(71,33,192)"/><path d="M31.618019149155643,-58.182261087619445L26.38311974249159,-61.43588126361818L29.505668840350296,-54.678467551479756z" style="fill:rgb(233,112,197)"/><path d="M-3.3363832237527755,-41.1655119244459L-2.5504880002105264,-47.345539675166954L-6.650057269868953,-47.816894069196984z" style="fill:rgb(71,33,192)"/><path d="M26.38311974249159,-61.43588126361818L31.618019149155643,-58.182261087619445L28.51603974372093,-64.94481251972933z" style="fill:rgb(233,112,197)"/><path d="M1.920621609941761,-47.574863245229515L0.746678050281134,-40.67979968603831L5.1972010395665595,-40.89388640139552z" style="fill:rgb(92,32,204)"/><path d="M29.505668840350296,-54.678467551479756L23.46336144441856,-58.06476629270538L26.609667286000985,-51.31541131182694z" style="fill:rgb(220,94,208)"/><path d="M0.746678050281134,-40.67979968603831L1.920621609941761,-47.574863245229515L-2.5504880002105264,-47.345539675166954z" style="fill:rgb(92,32,204)"/><path d="M6.585716528673894,-48.499988490937085L5.1972010395665595,-40.89388640139552L9.838468768423793,-41.80347439232608z" style="fill:rgb(115,34,214)"/><path d="M23.46336144441856,-58.06476629270538L29.505668840350296,-54.678467551479756L26.38311974249159,-61.43588126361818z" style="fill:rgb(220,94,208)"/><path d="M26.609667286000985,-51.31541131182694L19.870026917144028,-54.968079385572175L23.042335485319246,-48.22934811608668z" style="fill:rgb(203,77,216)"/><path d="M11.257195344069029,-50.08660001407482L9.838468768423793,-41.80347439232608L14.483880012286521,-43.37486681321227z" style="fill:rgb(139,40,220)"/><path d="M19.870026917144028,-54.968079385572175L18.945407660203887,-45.54605599102825L23.042335485319246,-48.22934811608668z" style="fill:rgb(183,62,221)"/><path d="M15.745924679075905,-52.27205846805116L14.483880012286521,-43.37486681321227L18.945407660203887,-45.54605599102825z" style="fill:rgb(162,50,222)"/><path d="M5.1972010395665595,-40.89388640139552L6.585716528673894,-48.499988490937085L1.920621609941761,-47.574863245229515z" style="fill:rgb(115,34,214)"/><path d="M19.870026917144028,-54.968079385572175L26.609667286000985,-51.31541131182694L23.46336144441856,-58.06476629270538z" style="fill:rgb(203,77,216)"/><path d="M9.838468768423793,-41.80347439232608L11.257195344069029,-50.08660001407482L6.585716528673894,-48.499988490937085z" style="fill:rgb(139,40,220)"/><path d="M18.945407660203887,-45.54605599102825L19.870026917144028,-54.968079385572175L15.745924679075905,-52.27205846805116z" style="fill:rgb(183,62,221)"/><path d="M14.483880012286521,-43.37486681321227L15.745924679075905,-52.27205846805116L11.257195344069029,-50.08660001407482z" style="fill:rgb(162,50,222)"/><path d="M-31.02180209873758,-125.93779450999021L-31.94855810833263,-98.59741965520476L-26.833266943148782,-128.61542819245872zM-37.80087036899864,-119.59189298637227L-35.602763909977796,-99.63850579700409L-34.7233638874437,-122.89332563882371zM-34.7233638874437,-122.89332563882371L-31.94855810833263,-98.59741965520476L-31.02180209873758,-125.93779450999021zM-40.13768255671612,-116.15338781208531L-38.550442897530765,-101.31851749795955L-37.80087036899864,-119.59189298637227zM-41.64181077916703,-112.70411937571549L-40.68392174413677,-103.56543141185202L-40.13768255671612,-116.15338781208531zM-26.833266943148782,-128.61542819245872L-23.100878649100178,-98.59394601767653L-22.3107953118692,-130.8295776215715zM-41.92965692232489,-106.2865267583586L-41.64181077916703,-112.70411937571549L-42.24973686962382,-109.37287133338306zM-22.3107953118692,-130.8295776215715L-18.255784296444638,-99.64173223123288L-17.618650234589936,-132.49957934219086zM-17.618650234589936,-132.49957934219086L-18.255784296444638,-99.64173223123288L-12.927397155271747,-133.56324076419833z" style="fill:rgb(83,212,212)"/><path d="M33.09870600050977,-62.95497401651394L50.24855269520127,-108.56112743306136L29.927659052261397,-156.66850924717426z" style="fill:rgb(247,158,158)"/><path d="M-12.927397155271747,-133.56324076419833L-8.689987009505684,-103.64162624792505L-8.408773492813836,-133.9789169194529zM-41.64181077916703,-112.70411937571549L-41.92965692232489,-106.2865267583586L-40.68392174413677,-103.56543141185202zM-8.408773492813836,-133.9789169194529L-4.35760236980485,-106.43325351513191L-4.23035471337992,-133.72721865085964zM-40.13768255671612,-116.15338781208531L-40.68392174413677,-103.56543141185202L-38.550442897530765,-101.31851749795955zM-4.23035471337992,-133.72721865085964L-0.5640820272371662,-109.60765582871058L-0.5500303322956241,-132.8122282093833zM-37.80087036899864,-119.59189298637227L-38.550442897530765,-101.31851749795955L-35.602763909977796,-99.63850579700409z" style="fill:rgb(83,212,212)"/><path d="M-36.72121170572253,-97.68030751577989L-40.68392174413677,-103.56543141185202L-38.854553364074896,-99.93328104660335z" style="fill:rgb(21,57,142)"/><path d="M-0.5500303322956241,-132.8122282093833L2.539492323261708,-113.03517382559606L2.4896183000630643,-131.26211275577168zM-34.7233638874437,-122.89332563882371L-35.602763909977796,-99.63850579700409L-31.94855810833263,-98.59741965520476z" style="fill:rgb(83,212,212)"/><path d="M6.18642312334859,-126.48867925841934L8.371151190483605,-119.72412944035324L7.869316876589644,-122.77898355781929z" style="fill:rgb(246,167,149)"/><path d="M-60.20728404293493,-130.17471877801205L33.09870600050977,-62.95497401651394L29.927659052261397,-156.66850924717426zM2.4896183000630643,-131.26211275577168L4.832522506195294,-116.57674511388002L4.766911821280351,-129.1291287930362zM-26.833266943148782,-128.61542819245872L-31.94855810833263,-98.59741965520476L-27.72641770687137,-98.24263968955694z" style="fill:rgb(83,212,212)"/><path d="M-40.68392174413677,-103.56543141185202L-36.72121170572253,-97.68030751577989L-38.550442897530765,-101.31851749795955z" style="fill:rgb(21,57,142)"/><path d="M4.766911821280351,-129.1291287930362L6.229700621831847,-120.0903482269606L6.18642312334859,-126.48867925841934z" style="fill:rgb(83,212,212)"/><path d="M8.371151190483605,-119.72412944035324L6.18642312334859,-126.48867925841934L6.683797984045017,-123.43742431326645z" style="fill:rgb(246,167,149)"/><path d="M-33.77661212046333,-95.9930588861246L-38.550442897530765,-101.31851749795955L-36.72121170572253,-97.68030751577989z" style="fill:rgb(34,46,160)"/><path d="M-26.833266943148782,-128.61542819245872L-27.72641770687137,-98.24263968955694L-23.100878649100178,-98.59394601767653zM-22.3107953118692,-130.8295776215715L-23.100878649100178,-98.59394601767653L-18.255784296444638,-99.64173223123288zM6.18642312334859,-126.48867925841934L6.229700621831847,-120.0903482269606L6.683797984045017,-123.43742431326645z" style="fill:rgb(83,212,212)"/><path d="M-38.550442897530765,-101.31851749795955L-33.77661212046333,-95.9930588861246L-35.602763909977796,-99.63850579700409z" style="fill:rgb(34,46,160)"/><path d="M6.229700621831847,-120.0903482269606L8.371151190483605,-119.72412944035324L6.683797984045017,-123.43742431326645zM8.371151190483605,-119.72412944035324L6.229700621831847,-120.0903482269606L7.924191098827405,-116.37524724539735z" style="fill:rgb(246,149,167)"/><path d="M4.766911821280351,-129.1291287930362L4.832522506195294,-116.57674511388002L6.229700621831847,-120.0903482269606zM-12.927397155271747,-133.56324076419833L-18.255784296444638,-99.64173223123288L-13.386295321495426,-101.34680587612256z" style="fill:rgb(83,212,212)"/><path d="M-30.128352758790413,-94.94380812195152L-35.602763909977796,-99.63850579700409L-33.77661212046333,-95.9930588861246z" style="fill:rgb(51,38,177)"/><path d="M-12.927397155271747,-133.56324076419833L-13.386295321495426,-101.34680587612256L-8.689987009505684,-103.64162624792505zM2.4896183000630643,-131.26211275577168L2.539492323261708,-113.03517382559606L4.832522506195294,-116.57674511388002zM-8.408773492813836,-133.9789169194529L-8.689987009505684,-103.64162624792505L-4.35760236980485,-106.43325351513191zM-0.5500303322956241,-132.8122282093833L-0.5640820272371662,-109.60765582871058L2.539492323261708,-113.03517382559606zM-4.23035471337992,-133.72721865085964L-4.35760236980485,-106.43325351513191L-0.5640820272371662,-109.60765582871058z" style="fill:rgb(83,212,212)"/><path d="M-35.602763909977796,-99.63850579700409L-30.128352758790413,-94.94380812195152L-31.94855810833263,-98.59741965520476z" style="fill:rgb(51,38,177)"/><path d="M7.924191098827405,-116.37524724539735L4.832522506195294,-116.57674511388002L6.536601917192921,-112.86171827185572zM4.832522506195294,-116.57674511388002L7.924191098827405,-116.37524724539735L6.229700621831847,-120.0903482269606z" style="fill:rgb(242,130,183)"/><path d="M-27.72641770687137,-98.24263968955694L-30.128352758790413,-94.94380812195152L-25.914829159142382,-94.58022725494118zM-30.128352758790413,-94.94380812195152L-27.72641770687137,-98.24263968955694L-31.94855810833263,-98.59741965520476z" style="fill:rgb(71,33,192)"/><path d="M6.536601917192921,-112.86171827185572L2.539492323261708,-113.03517382559606L4.2552728673403175,-109.32210386374726zM2.539492323261708,-113.03517382559606L6.536601917192921,-112.86171827185572L4.832522506195294,-116.57674511388002z" style="fill:rgb(233,112,197)"/><path d="M-23.100878649100178,-98.59394601767653L-25.914829159142382,-94.58022725494118L-21.30023930543923,-94.92242421417797zM-25.914829159142382,-94.58022725494118L-23.100878649100178,-98.59394601767653L-27.72641770687137,-98.24263968955694z" style="fill:rgb(92,32,204)"/><path d="M4.2552728673403175,-109.32210386374726L-0.5640820272371662,-109.60765582871058L1.165066978119102,-105.89834202489874zM-0.5640820272371662,-109.60765582871058L4.2552728673403175,-109.32210386374726L2.539492323261708,-113.03517382559606z" style="fill:rgb(220,94,208)"/><path d="M50.24855269520127,-108.56112743306136L33.09870600050977,-62.95497401651394L55.33732927541863,-14.119268940287514z" style="fill:rgb(247,158,158)"/><path d="M-18.255784296444638,-99.64173223123288L-21.30023930543923,-94.92242421417797L-16.467983099681515,-95.96114516862214z" style="fill:rgb(115,34,214)"/><path d="M1.165066978119102,-105.89834202489874L-4.35760236980485,-106.43325351513191L-2.6139518223697586,-102.72933026459806z" style="fill:rgb(203,77,216)"/><path d="M-21.30023930543923,-94.92242421417797L-18.255784296444638,-99.64173223123288L-23.100878649100178,-98.59394601767653z" style="fill:rgb(115,34,214)"/><path d="M-13.386295321495426,-101.34680587612256L-16.467983099681515,-95.96114516862214L-11.612680025489752,-97.6575614044309z" style="fill:rgb(139,40,220)"/><path d="M-4.35760236980485,-106.43325351513191L-6.931302369602056,-99.94449106852929L-2.6139518223697586,-102.72933026459806z" style="fill:rgb(183,62,221)"/><path d="M-4.35760236980485,-106.43325351513191L1.165066978119102,-105.89834202489874L-0.5640820272371662,-109.60765582871058z" style="fill:rgb(203,77,216)"/><path d="M-8.689987009505684,-103.64162624792505L-11.612680025489752,-97.6575614044309L-6.931302369602056,-99.94449106852929z" style="fill:rgb(162,50,222)"/><path d="M-16.467983099681515,-95.96114516862214L-13.386295321495426,-101.34680587612256L-18.255784296444638,-99.64173223123288z" style="fill:rgb(139,40,220)"/><path d="M-6.931302369602056,-99.94449106852929L-4.35760236980485,-106.43325351513191L-8.689987009505684,-103.64162624792505z" style="fill:rgb(183,62,221)"/><path d="M-11.612680025489752,-97.6575614044309L-8.689987009505684,-103.64162624792505L-13.386295321495426,-101.34680587612256z" style="fill:rgb(162,50,222)"/><path d="M33.09870600050977,-62.95497401651394L-60.20728404293493,-130.17471877801205L-66.43103345680593,-36.008796604488374z" style="fill:rgb(83,212,212)"/><path d="M33.09870600050977,-62.95497401651394L-40.41348433317745,10.523286345868717L55.33732927541863,-14.119268940287514zM-40.41348433317745,10.523286345868717L33.09870600050977,-62.95497401651394L-66.43103345680593,-36.008796604488374z" style="fill:rgb(127,37,217)"/><path d="M-65.63336152247363,122.88698587436188L-55.905867121864624,-38.85890266664014L-56.909109484196335,-31.837091716765748z" style="fill:rgb(1,140,140)"/><path d="M39.1089821419146,-42.67208590159079L47.621848478510024,119.02084469896391L41.26867351195041,-35.751747099718266z" style="fill:rgb(251,149,149)"/><path d="M-55.905867121864624,-38.85890266664014L-61.254411711915346,109.23956522725992L-53.007552537902384,-45.63624377646045z" style="fill:rgb(7,157,157)"/><path d="M40.57552732904671,105.7123625497592L39.1089821419146,-42.67208590159079L35.094850337367106,-49.19380771214821z" style="fill:rgb(242,166,166)"/><path d="M-61.254411711915346,109.23956522725992L-48.294882898152196,-51.89296849846326L-53.007552537902384,-45.63624377646045z" style="fill:rgb(17,173,173)"/><path d="M29.35543269715893,-55.045972878715226L40.57552732904671,105.7123625497592L35.094850337367106,-49.19380771214821z" style="fill:rgb(229,181,181)"/><path d="M-48.294882898152196,-51.89296849846326L-48.53346356292202,97.59702791351161L-41.92876760005472,-57.36529132573557z" style="fill:rgb(32,187,187)"/><path d="M22.098925000929466,-59.97754108283652L33.968260921700015,99.90234353043444L29.35543269715893,-55.045972878715226z" style="fill:rgb(212,194,194)"/><path d="M-41.92876760005472,-57.36529132573557L-39.551856994454695,93.16947024187557L-34.14762973591661,-61.8154229673266z" style="fill:rgb(50,199,199)"/><path d="M13.606881142998848,-63.771069732265346L25.589570148301807,94.9987140108952L22.098925000929466,-59.97754108283652z" style="fill:rgb(192,205,205)"/><path d="M-34.14762973591661,-61.8154229673266L-29.270778866611586,89.95263460420317L-25.259614703301438,-65.0451020424846z" style="fill:rgb(72,208,208)"/><path d="M4.223292299550963,-66.2556257205749L15.764737798604333,91.22195670746298L13.606881142998848,-63.771069732265346z" style="fill:rgb(169,212,212)"/><path d="M-25.259614703301438,-65.0451020424846L-18.1163253170718,88.0961068787779L-15.629549672973086,-66.90767810720892z" style="fill:rgb(95,214,214)"/><path d="M-5.661287313031939,-67.31750135477827L4.894790823466022,88.74615373368617L4.223292299550963,-66.2556257205749z" style="fill:rgb(145,216,216)"/><path d="M-18.1163253170718,88.0961068787779L-5.661287313031939,-67.31750135477827L-15.629549672973086,-66.90767810720892z" style="fill:rgb(120,217,217)"/><path d="M-55.905867121864624,-38.85890266664014L-65.63336152247363,122.88698587436188L-64.54104714688631,115.9491083466703z" style="fill:rgb(1,140,140)"/><path d="M47.621848478510024,119.02084469896391L39.1089821419146,-42.67208590159079L45.17435436365669,112.1756695785419z" style="fill:rgb(251,149,149)"/><path d="M-61.254411711915346,109.23956522725992L-55.905867121864624,-38.85890266664014L-64.54104714688631,115.9491083466703z" style="fill:rgb(7,157,157)"/><path d="M39.1089821419146,-42.67208590159079L40.57552732904671,105.7123625497592L45.17435436365669,112.1756695785419z" style="fill:rgb(242,166,166)"/><path d="M-48.294882898152196,-51.89296849846326L-61.254411711915346,109.23956522725992L-55.85856424890573,103.0338490406553z" style="fill:rgb(17,173,173)"/><path d="M40.57552732904671,105.7123625497592L29.35543269715893,-55.045972878715226L33.968260921700015,99.90234353043444z" style="fill:rgb(229,181,181)"/><path d="M-48.53346356292202,97.59702791351161L-48.294882898152196,-51.89296849846326L-55.85856424890573,103.0338490406553z" style="fill:rgb(32,187,187)"/><path d="M33.968260921700015,99.90234353043444L22.098925000929466,-59.97754108283652L25.589570148301807,94.9987140108952z" style="fill:rgb(212,194,194)"/><path d="M-39.551856994454695,93.16947024187557L-41.92876760005472,-57.36529132573557L-48.53346356292202,97.59702791351161z" style="fill:rgb(50,199,199)"/><path d="M25.589570148301807,94.9987140108952L13.606881142998848,-63.771069732265346L15.764737798604333,91.22195670746298z" style="fill:rgb(192,205,205)"/><path d="M-29.270778866611586,89.95263460420317L-34.14762973591661,-61.8154229673266L-39.551856994454695,93.16947024187557z" style="fill:rgb(72,208,208)"/><path d="M-6.5624256058533526,87.68748203810672L-10.846114452079147,158.4507166150957L-0.1422346718265528,158.10017803574894zM-18.1163253170718,88.0961068787779L-21.480482277290236,157.54135363231694L-10.846114452079147,158.4507166150957zM4.894790823466022,88.74615373368617L-0.1422346718265528,158.10017803574894L10.264697416926284,156.5002691095852zM-29.270778866611586,89.95263460420317L-31.680256168092733,155.3994368261417L-21.480482277290236,157.54135363231694zM15.764737798604333,91.22195670746298L10.264697416926284,156.5002691095852L20.014698964303562,153.69935079173206zM-39.551856994454695,93.16947024187557L-41.089674432552506,152.09015067461206L-31.680256168092733,155.3994368261417z" style="fill:rgb(127,37,217)"/><path d="M15.764737798604333,91.22195670746298L4.223292299550963,-66.2556257205749L4.894790823466022,88.74615373368617z" style="fill:rgb(169,212,212)"/><path d="M25.589570148301807,94.9987140108952L20.014698964303562,153.69935079173206L28.76246590269957,149.78354345347105z" style="fill:rgb(127,37,217)"/><path d="M-18.1163253170718,88.0961068787779L-25.259614703301438,-65.0451020424846L-29.270778866611586,89.95263460420317z" style="fill:rgb(95,214,214)"/><path d="M-48.53346356292202,97.59702791351161L-49.370815015987574,147.71627203074885L-41.089674432552506,152.09015067461206z" style="fill:rgb(127,37,217)"/><path d="M4.894790823466022,88.74615373368617L-5.661287313031939,-67.31750135477827L-6.5624256058533526,87.68748203810672z" style="fill:rgb(145,216,216)"/><path d="M33.968260921700015,99.90234353043444L28.76246590269957,149.78354345347105L36.18633872289938,144.87629474134422z" style="fill:rgb(127,37,217)"/><path d="M-5.661287313031939,-67.31750135477827L-18.1163253170718,88.0961068787779L-6.5624256058533526,87.68748203810672z" style="fill:rgb(120,217,217)"/><path d="M-55.85856424890573,103.0338490406553L-56.21297065942539,142.41757408347573L-49.370815015987574,147.71627203074885zM40.57552732904671,105.7123625497592L36.18633872289938,144.87629474134422L41.99826049182553,139.13740553920496zM-61.254411711915346,109.23956522725992L-61.343156222910764,136.36943344291205L-56.21297065942539,142.41757408347573zM45.17435436365669,112.1756695785419L41.99826049182553,139.13740553920496L45.954795355613314,132.76098249329178zM-64.54104714688631,115.9491083466703L-64.53750768669195,129.78022498526977L-61.343156222910764,136.36943344291205zM47.621848478510024,119.02084469896391L45.954795355613314,132.76098249329178L47.86889760573301,125.9719956141205zM-64.53750768669195,129.78022498526977L-64.54104714688631,115.9491083466703L-65.63336152247363,122.88698587436188zM45.17435436365669,112.1756695785419L45.954795355613314,132.76098249329178L47.621848478510024,119.02084469896391zM-64.54104714688631,115.9491083466703L-61.343156222910764,136.36943344291205L-61.254411711915346,109.23956522725992zM40.57552732904671,105.7123625497592L41.99826049182553,139.13740553920496L45.17435436365669,112.1756695785419zM-61.254411711915346,109.23956522725992L-56.21297065942539,142.41757408347573L-55.85856424890573,103.0338490406553zM33.968260921700015,99.90234353043444L36.18633872289938,144.87629474134422L40.57552732904671,105.7123625497592zM-55.85856424890573,103.0338490406553L-49.370815015987574,147.71627203074885L-48.53346356292202,97.59702791351161zM25.589570148301807,94.9987140108952L28.76246590269957,149.78354345347105L33.968260921700015,99.90234353043444zM-48.53346356292202,97.59702791351161L-41.089674432552506,152.09015067461206L-39.551856994454695,93.16947024187557zM15.764737798604333,91.22195670746298L20.014698964303562,153.69935079173206L25.589570148301807,94.9987140108952zM-39.551856994454695,93.16947024187557L-31.680256168092733,155.3994368261417L-29.270778866611586,89.95263460420317zM4.894790823466022,88.74615373368617L10.264697416926284,156.5002691095852L15.764737798604333,91.22195670746298zM-29.270778866611586,89.95263460420317L-21.480482277290236,157.54135363231694L-18.1163253170718,88.0961068787779zM-6.5624256058533526,87.68748203810672L-0.1422346718265528,158.10017803574894L4.894790823466022,88.74615373368617zM-18.1163253170718,88.0961068787779L-10.846114452079147,158.4507166150957L-6.5624256058533526,87.68748203810672z" style="fill:rgb(127,37,217)"/></svg>
