<svg viewBox="-250 -250 500 500" width="500" height="500" xmlns="http://www.w3.org/2000/svg"><path d="M45.02491979184559,-155.0492068563275L77.89290907768168,-27.38959726842439L73.39615282903337,-85.91204190743942z" style="fill:rgb(247,158,158)"/><path d="M35.62964796667908,-18.771994723993934L-17.496162011704854,-11.697070253287201L0.9046850718069506,-9.75242497727847zM35.62964796667908,-18.771994723993934L0.9046850718069506,-9.75242497727847L19.205165987815963,-12.179408648805191zM48.520050899316054,-28.954528841215936L-17.496162011704854,-11.697070253287201L35.62964796667908,-18.771994723993934zM56.464985345739166,-41.79137371988092L-34.2156677416135,-17.848509941971255L-17.496162011704854,-11.697070253287201zM56.464985345739166,-41.79137371988092L-17.496162011704854,-11.697070253287201L48.520050899316054,-28.954528841215936z" style="fill:rgb(127,37,217)"/><path d="M-11.012881235781727,55.192252418006596L0.9046850718069506,-9.75242497727847L-17.496162011704854,-11.697070253287201z" style="fill:rgb(146,216,216)"/><path d="M8.508413665520308,55.44050322084249L19.205165987815963,-12.179408648805191L0.9046850718069506,-9.75242497727847z" style="fill:rgb(104,216,216)"/><path d="M58.45237472521646,-56.0213211458092L-47.57666766193537,-27.671951340099145L-34.2156677416135,-17.848509941971255z" style="fill:rgb(127,37,217)"/><path d="M-14.046492744941641,-79.97011484452106L45.02491979184559,-155.0492068563275L-69.78734516482469,-121.47187728697202z" style="fill:rgb(83,212,212)"/><path d="M-29.492061806808714,50.69152429299391L-17.496162011704854,-11.697070253287201L-34.2156677416135,-17.848509941971255z" style="fill:rgb(186,207,207)"/><path d="M27.20030168390639,51.41558323556374L35.62964796667908,-18.771994723993934L19.205165987815963,-12.179408648805191z" style="fill:rgb(64,205,205)"/><path d="M58.45237472521646,-56.0213211458092L-34.2156677416135,-17.848509941971255L56.464985345739166,-41.79137371988092z" style="fill:rgb(127,37,217)"/><path d="M45.02491979184559,-155.0492068563275L63.40160257078664,-61.19870663832541L77.89290907768168,-27.38959726842439z" style="fill:rgb(247,158,158)"/><path d="M54.03511508136623,-70.1377372691654L-56.13295896279633,-40.270676957767094L-47.57666766193537,-27.671951340099145z" style="fill:rgb(127,37,217)"/><path d="M-45.11836417902585,42.31939576387133L-34.2156677416135,-17.848509941971255L-47.57666766193537,-27.671951340099145z" style="fill:rgb(219,189,189)"/><path d="M43.23941542922398,43.45721729004972L48.520050899316054,-28.954528841215936L35.62964796667908,-18.771994723993934z" style="fill:rgb(32,187,187)"/><path d="M-14.046492744941641,-79.97011484452106L-69.78734516482469,-121.47187728697202L-74.20639449880517,-63.2384534808718z" style="fill:rgb(83,212,212)"/><path d="M54.03511508136623,-70.1377372691654L-47.57666766193537,-27.671951340099145L58.45237472521646,-56.0213211458092zM54.03511508136623,-70.1377372691654L-58.819645702956926,-54.41675165799194L-56.13295896279633,-40.270676957767094z" style="fill:rgb(127,37,217)"/><path d="M8.508413665520308,55.44050322084249L0.9046850718069506,-9.75242497727847L0.9626931219364392,56.37825102787752z" style="fill:rgb(104,216,216)"/><path d="M-11.012881235781727,55.192252418006596L0.9626931219364392,56.37825102787752L0.9046850718069506,-9.75242497727847zM-11.012881235781727,55.192252418006596L-17.496162011704854,-11.697070253287201L-18.620217511021576,54.43885648423926z" style="fill:rgb(146,216,216)"/><path d="M8.508413665520308,55.44050322084249L20.439619305220212,53.957745370381474L19.205165987815963,-12.179408648805191z" style="fill:rgb(104,216,216)"/><path d="M-56.26193736020629,30.81559413589548L-47.57666766193537,-27.671951340099145L-56.13295896279633,-40.270676957767094z" style="fill:rgb(243,165,165)"/><path d="M-29.492061806808714,50.69152429299391L-18.620217511021576,54.43885648423926L-17.496162011704854,-11.697070253287201z" style="fill:rgb(186,207,207)"/><path d="M27.20030168390639,51.41558323556374L19.205165987815963,-12.179408648805191L20.439619305220212,53.957745370381474z" style="fill:rgb(64,205,205)"/><path d="M54.968509892766306,32.26427734134819L56.464985345739166,-41.79137371988092L48.520050899316054,-28.954528841215936z" style="fill:rgb(9,162,162)"/><path d="M63.40160257078664,-61.19870663832541L82.97663170345126,38.77184511717863L77.89290907768168,-27.38959726842439zM63.40160257078664,-61.19870663832541L45.02491979184559,-155.0492068563275L47.9636578240309,-97.21633900450973z" style="fill:rgb(247,158,158)"/><path d="M-29.492061806808714,50.69152429299391L-34.2156677416135,-17.848509941971255L-36.42755070552198,48.30099162061474z" style="fill:rgb(186,207,207)"/><path d="M27.20030168390639,51.41558323556374L37.93507588064282,47.379117731674725L35.62964796667908,-18.771994723993934z" style="fill:rgb(64,205,205)"/><path d="M-45.11836417902585,42.31939576387133L-36.42755070552198,48.30099162061474L-34.2156677416135,-17.848509941971255z" style="fill:rgb(219,189,189)"/><path d="M43.23941542922398,43.45721729004972L35.62964796667908,-18.771994723993934L37.93507588064282,47.379117731674725z" style="fill:rgb(32,187,187)"/><path d="M-14.046492744941641,-79.97011484452106L47.9636578240309,-97.21633900450973L45.02491979184559,-155.0492068563275z" style="fill:rgb(83,212,212)"/><path d="M-55.193146643521146,-67.61080737122536L-55.11858768067181,-68.62491766212226L-55.140406630764005,-68.54107518017737z" style="fill:rgb(3,148,148)"/><path d="M43.47477326114182,-82.53075808715288L-58.819645702956926,-54.41675165799194L54.03511508136623,-70.1377372691654zM-55.140406630764005,-68.54107518017737L-58.819645702956926,-54.41675165799194L27.288508933844177,-91.4661880580726z" style="fill:rgb(127,37,217)"/><path d="M-61.620087670633154,17.263211857192058L-56.13295896279633,-40.270676957767094L-58.819645702956926,-54.41675165799194z" style="fill:rgb(254,136,136)"/><path d="M61.03918106828897,18.88202667971949L58.45237472521646,-56.0213211458092L56.464985345739166,-41.79137371988092z" style="fill:rgb(0,133,133)"/><path d="M-45.11836417902585,42.31939576387133L-47.57666766193537,-27.671951340099145L-50.68265813012998,38.48967533472468z" style="fill:rgb(219,189,189)"/><path d="M-25.13034219416709,52.19492792216395L-40.23149110958476,68.69052377645444L-3.2949218028416163,59.72120535035448z" style="fill:rgb(127,37,217)"/><path d="M43.23941542922398,43.45721729004972L51.691677108917055,37.207780386243826L48.520050899316054,-28.954528841215936z" style="fill:rgb(32,187,187)"/><path d="M27.288508933844177,-91.4661880580726L-58.819645702956926,-54.41675165799194L43.47477326114182,-82.53075808715288zM-18.620217511021576,54.43885648423926L-3.2949218028416163,59.72120535035448L7.717066340494164,57.0471669104536z" style="fill:rgb(127,37,217)"/><path d="M-56.26193736020629,30.81559413589548L-50.68265813012998,38.48967533472468L-47.57666766193537,-27.671951340099145z" style="fill:rgb(243,165,165)"/><path d="M54.968509892766306,32.26427734134819L48.520050899316054,-28.954528841215936L51.691677108917055,37.207780386243826z" style="fill:rgb(9,162,162)"/><path d="M0.9626931219364392,56.37825102787752L7.717066340494164,57.0471669104536L20.439619305220212,53.957745370381474zM-25.13034219416709,52.19492792216395L-56.38463038366774,41.42212473498766L-40.23149110958476,68.69052377645444zM20.439619305220212,53.957745370381474L33.24230334854186,50.84884822499L37.93507588064282,47.379117731674725z" style="fill:rgb(127,37,217)"/><path d="M-55.140406630764005,-68.54107518017737L-55.19639164944791,-68.52549074822524L-57.69532527554043,-24.492888037328324z" style="fill:rgb(83,212,212)"/><path d="M-56.26193736020629,30.81559413589548L-56.13295896279633,-40.270676957767094L-59.84357277603161,25.889224331987236z" style="fill:rgb(243,165,165)"/><path d="M54.968509892766306,32.26427734134819L60.203141512620675,24.367044672423685L56.464985345739166,-41.79137371988092z" style="fill:rgb(9,162,162)"/><path d="M27.288508933844177,-91.4661880580726L43.47477326114182,-82.53075808715288L27.902407273246396,-91.63691457040666z" style="fill:rgb(127,37,217)"/><path d="M-55.19639164944791,-68.52549074822524L-74.20639449880517,-63.2384534808718L-79.22291794077499,2.868405209753249z" style="fill:rgb(83,212,212)"/><path d="M-61.620087670633154,17.263211857192058L-59.84357277603161,25.889224331987236L-56.13295896279633,-40.270676957767094z" style="fill:rgb(254,136,136)"/><path d="M-50.68265813012998,38.48967533472468L-45.93104489057403,45.02528688857802L-36.42755070552198,48.30099162061474z" style="fill:rgb(127,37,217)"/><path d="M64.3059252040515,-2.550392312288482L63.40160257078664,-61.19870663832541L60.21407793094622,-68.63538574416931z" style="fill:rgb(247,158,158)"/><path d="M61.03918106828897,18.88202667971949L56.464985345739166,-41.79137371988092L60.203141512620675,24.367044672423685z" style="fill:rgb(0,133,133)"/><path d="M33.24230334854186,50.84884822499L57.047869573882664,45.068152534307316L59.078400287817445,31.746245997600337z" style="fill:rgb(127,37,217)"/><path d="M61.817975521637706,-8.056719218034504L60.21407793094622,-68.63538574416931L57.86502056145777,-74.11584358436816zM64.3059252040515,-2.550392312288482L82.97663170345126,38.77184511717863L63.40160257078664,-61.19870663832541z" style="fill:rgb(247,158,158)"/><path d="M-61.620087670633154,17.263211857192058L-58.819645702956926,-54.41675165799194L-62.76210969940545,11.718141175494866z" style="fill:rgb(254,136,136)"/><path d="M61.03918106828897,18.88202667971949L62.37634517511476,10.109151407164228L58.45237472521646,-56.0213211458092z" style="fill:rgb(0,133,133)"/><path d="M-55.140406630764005,-68.54107518017737L-57.69532527554043,-24.492888037328324L-57.63325466451244,-24.57177345760836z" style="fill:rgb(83,212,212)"/><path d="M-70.39557097460725,11.37540085993355L-56.38463038366774,41.42212473498766L-45.93104489057403,45.02528688857802zM60.203141512620675,24.367044672423685L51.691677108917055,37.207780386243826L59.078400287817445,31.746245997600337z" style="fill:rgb(127,37,217)"/><path d="M61.817975521637706,-8.056719218034504L57.86502056145777,-74.11584358436816L48.05635474326594,-97.00009932638919z" style="fill:rgb(247,158,158)"/><path d="M-55.19639164944791,-68.52549074822524L-79.22291794077499,2.868405209753249L-57.69532527554043,-24.492888037328324z" style="fill:rgb(83,212,212)"/><path d="M57.047869573882664,45.068152534307316L82.97663170345126,38.77184511717863L64.3059252040515,-2.550392312288482zM-70.39557097460725,11.37540085993355L-72.60455057524594,14.041013047822016L-56.38463038366774,41.42212473498766z" style="fill:rgb(127,37,217)"/><path d="M29.84053034604599,-25.685343345040682L47.139248881945335,-96.98706541818025L27.902407273246396,-91.63691457040666z" style="fill:rgb(83,212,212)"/><path d="M61.817975521637706,-8.056719218034504L64.3059252040515,-2.550392312288482L60.21407793094622,-68.63538574416931z" style="fill:rgb(247,158,158)"/><path d="M50.43011654250145,-31.075871634380047L47.9636578240309,-97.21633900450973L47.139248881945335,-96.98706541818025z" style="fill:rgb(83,212,212)"/><path d="M48.05635474326594,-97.00009932638919L47.9636578240309,-97.21633900450973L51.312800452524705,-31.306958137441512z" style="fill:rgb(247,158,158)"/><path d="M-64.33811269462919,4.065694011044465L-70.39557097460725,11.37540085993355L-59.84357277603161,25.889224331987236z" style="fill:rgb(127,37,217)"/><path d="M-57.63325466451244,-24.57177345760836L-57.69532527554043,-24.492888037328324L-58.94686742579581,-2.4400183398253503z" style="fill:rgb(83,212,212)"/><path d="M-70.18187709518233,136.18475528961443L-55.140406630764005,-68.54107518017737L-58.819645702956926,-54.41675165799194z" style="fill:rgb(3,148,148)"/><path d="M-57.69532527554043,-24.492888037328324L-79.22291794077499,2.868405209753249L-58.94686742579581,-2.4400183398253503z" style="fill:rgb(83,212,212)"/><path d="M-70.18187709518233,136.18475528961443L-55.193146643521146,-67.61080737122536L-55.140406630764005,-68.54107518017737z" style="fill:rgb(3,148,148)"/><path d="M-57.63325466451244,-24.57177345760836L-58.94686742579581,-2.4400183398253503L-58.88713264416051,-2.455666477101765z" style="fill:rgb(83,212,212)"/><path d="M-58.94686742579581,-2.4400183398253503L-79.22291794077499,2.868405209753249L-72.60455057524594,14.041013047822016zM-58.88713264416051,-2.455666477101765L-64.33811269462919,4.065694011044465L-62.76210969940545,11.718141175494866zM62.37634517511476,10.109151407164228L63.54998703571971,2.40912241364874L57.71237825524689,-4.059464310783077z" style="fill:rgb(127,37,217)"/><path d="M54.03511508136623,-70.1377372691654L64.65226169739925,120.64612914746837L58.45237472521646,-56.0213211458092z" style="fill:rgb(250,151,151)"/><path d="M61.817975521637706,-8.056719218034504L48.05635474326594,-97.00009932638919L51.411286598813284,-31.08897038986735z" style="fill:rgb(247,158,158)"/><path d="M-58.88713264416051,-2.455666477101765L-58.94686742579581,-2.4400183398253503L-64.33811269462919,4.065694011044465z" style="fill:rgb(127,37,217)"/><path d="M-55.193146643521146,-67.61080737122536L-65.93099449793982,122.14515839856752L-55.11858768067181,-68.62491766212226z" style="fill:rgb(3,148,148)"/><path d="M63.54998703571971,2.40912241364874L64.3059252040515,-2.550392312288482L61.817975521637706,-8.056719218034504z" style="fill:rgb(127,37,217)"/><path d="M-55.11858768067181,-68.62491766212226L-65.93099449793982,122.14515839856752L-45.206917681613504,-81.28784135180376z" style="fill:rgb(19,175,175)"/><path d="M29.84053034604599,-25.685343345040682L50.43011654250145,-31.075871634380047L47.139248881945335,-96.98706541818025z" style="fill:rgb(83,212,212)"/><path d="M63.54998703571971,2.40912241364874L61.817975521637706,-8.056719218034504L46.46862688847602,-16.51857993710137z" style="fill:rgb(127,37,217)"/><path d="M48.05635474326594,-97.00009932638919L51.312800452524705,-31.306958137441512L51.411286598813284,-31.08897038986735z" style="fill:rgb(247,158,158)"/><path d="M50.43011654250145,-31.075871634380047L51.312800452524705,-31.306958137441512L47.9636578240309,-97.21633900450973z" style="fill:rgb(83,212,212)"/><path d="M43.47477326114182,-82.53075808715288L52.13115225261716,108.33587135201655L54.03511508136623,-70.1377372691654z" style="fill:rgb(232,178,178)"/><path d="M-45.206917681613504,-81.28784135180376L-54.19625472713871,109.57291568900486L-30.037136176377405,-90.87319306371869z" style="fill:rgb(47,197,197)"/><path d="M61.817975521637706,-8.056719218034504L51.10954883373569,-31.0849324683868L40.690602363584944,-19.703895838184078z" style="fill:rgb(127,37,217)"/><path d="M33.47297210192276,97.92154255889976L43.47477326114182,-82.53075808715288L27.902407273246396,-91.63691457040666zM33.4019870918807,99.20226450758626L27.902407273246396,-91.63691457040666L27.8103888505095,-91.69073975752201z" style="fill:rgb(203,199,199)"/><path d="M61.817975521637706,-8.056719218034504L51.411286598813284,-31.08897038986735L51.10954883373569,-31.0849324683868z" style="fill:rgb(127,37,217)"/><path d="M-30.037136176377405,-90.87319306371869L-36.07121538386899,100.01866349193293L-11.294262186225138,-96.15760618640546z" style="fill:rgb(83,212,212)"/><path d="M40.690602363584944,-19.703895838184078L50.43011654250145,-31.075871634380047L29.84053034604599,-25.685343345040682z" style="fill:rgb(127,37,217)"/><path d="M8.799453104039666,-96.44284526884397L10.577602293427628,94.45213242130798L27.8103888505095,-91.69073975752201z" style="fill:rgb(166,213,213)"/><path d="M40.690602363584944,-19.703895838184078L51.10954883373569,-31.0849324683868L50.43011654250145,-31.075871634380047z" style="fill:rgb(127,37,217)"/><path d="M-11.294262186225138,-96.15760618640546L-13.575862251653184,94.73748002104475L8.799453104039666,-96.44284526884397z" style="fill:rgb(125,217,217)"/><path d="M51.10954883373569,-31.0849324683868L51.312800452524705,-31.306958137441512L50.43011654250145,-31.075871634380047zM51.10954883373569,-31.0849324683868L51.411286598813284,-31.08897038986735L51.312800452524705,-31.306958137441512z" style="fill:rgb(127,37,217)"/><path d="M58.45237472521646,-56.0213211458092L64.65226169739925,120.64612914746837L69.76339028239843,134.60273780091376z" style="fill:rgb(250,151,151)"/><path d="M-55.193146643521146,-67.61080737122536L-70.18187709518233,136.18475528961443L-65.95611664237306,122.22821271405277z" style="fill:rgb(3,148,148)"/><path d="M42.246827496283636,171.099017654028L-20.719892646756904,177.9771894007997L1.0710121854703167,179.86477278834025zM42.246827496283636,171.099017654028L1.0710121854703167,179.86477278834025L22.745706184709963,177.50881050963832z" style="fill:rgb(127,37,217)"/><path d="M-55.193146643521146,-67.61080737122536L-65.95611664237306,122.22821271405277L-65.93099449793982,122.14515839856752z" style="fill:rgb(3,148,148)"/><path d="M57.634044100953965,161.16974560242176L-20.719892646756904,177.9771894007997L42.246827496283636,171.099017654028z" style="fill:rgb(127,37,217)"/><path d="M54.03511508136623,-70.1377372691654L52.13115225261716,108.33587135201655L64.65226169739925,120.64612914746837z" style="fill:rgb(232,178,178)"/><path d="M67.22277236878465,148.6014678503754L-40.56367981896061,171.99781797163243L-20.719892646756904,177.9771894007997z" style="fill:rgb(127,37,217)"/><path d="M-45.206917681613504,-81.28784135180376L-65.93099449793982,122.14515839856752L-54.19625472713871,109.57291568900486z" style="fill:rgb(19,175,175)"/><path d="M67.22277236878465,148.6014678503754L-20.719892646756904,177.9771894007997L57.634044100953965,161.16974560242176z" style="fill:rgb(127,37,217)"/><path d="M33.47297210192276,97.92154255889976L52.13115225261716,108.33587135201655L43.47477326114182,-82.53075808715288z" style="fill:rgb(203,199,199)"/><path d="M69.76339028239843,134.60273780091376L-56.500740598687344,162.42238027691846L-40.56367981896061,171.99781797163243z" style="fill:rgb(127,37,217)"/><path d="M-30.037136176377405,-90.87319306371869L-54.19625472713871,109.57291568900486L-36.07121538386899,100.01866349193293z" style="fill:rgb(47,197,197)"/><path d="M33.4019870918807,99.20226450758626L33.47297210192276,97.92154255889976L27.902407273246396,-91.63691457040666z" style="fill:rgb(203,199,199)"/><path d="M69.76339028239843,134.60273780091376L-40.56367981896061,171.99781797163243L67.22277236878465,148.6014678503754z" style="fill:rgb(127,37,217)"/><path d="M27.8103888505095,-91.69073975752201L10.577602293427628,94.45213242130798L33.4019870918807,99.20226450758626z" style="fill:rgb(166,213,213)"/><path d="M-11.294262186225138,-96.15760618640546L-36.07121538386899,100.01866349193293L-13.575862251653184,94.73748002104475z" style="fill:rgb(83,212,212)"/><path d="M8.799453104039666,-96.44284526884397L-13.575862251653184,94.73748002104475L10.577602293427628,94.45213242130798z" style="fill:rgb(125,217,217)"/><path d="M64.65226169739925,120.64612914746837L-66.8096202041243,150.09331458235263L-56.500740598687344,162.42238027691846zM64.65226169739925,120.64612914746837L-56.500740598687344,162.42238027691846L69.76339028239843,134.60273780091376zM64.65226169739925,120.64612914746837L-70.18187709518233,136.18475528961443L-66.8096202041243,150.09331458235263zM52.13115225261716,108.33587135201655L-70.18187709518233,136.18475528961443L64.65226169739925,120.64612914746837zM-65.95611664237306,122.22821271405277L-70.18187709518233,136.18475528961443L32.77387176660024,99.42652518035628zM32.77387176660024,99.42652518035628L-70.18187709518233,136.18475528961443L52.13115225261716,108.33587135201655zM-65.93099449793982,122.14515839856752L-65.95611664237306,122.22821271405277L32.77387176660024,99.42652518035628zM-54.19625472713871,109.57291568900486L-65.93099449793982,122.14515839856752L10.577602293427628,94.45213242130798zM-65.93099449793982,122.14515839856752L32.77387176660024,99.42652518035628L33.4019870918807,99.20226450758626zM-65.93099449793982,122.14515839856752L33.4019870918807,99.20226450758626L10.577602293427628,94.45213242130798z" style="fill:rgb(127,37,217)"/><path d="M33.47297210192276,97.92154255889976L33.51218697769573,99.25601488828889L52.13115225261716,108.33587135201655z" style="fill:rgb(203,199,199)"/><path d="M32.77387176660024,99.42652518035628L52.13115225261716,108.33587135201655L33.51218697769573,99.25601488828889zM-13.575862251653184,94.73748002104475L-36.07121538386899,100.01866349193293L-54.19625472713871,109.57291568900486z" style="fill:rgb(127,37,217)"/><path d="M33.47297210192276,97.92154255889976L33.4019870918807,99.20226450758626L33.51218697769573,99.25601488828889z" style="fill:rgb(203,199,199)"/><path d="M-54.19625472713871,109.57291568900486L10.577602293427628,94.45213242130798L-13.575862251653184,94.73748002104475zM32.77387176660024,99.42652518035628L33.51218697769573,99.25601488828889L33.4019870918807,99.20226450758626z" style="fill:rgb(127,37,217)"/></svg>