solid JSxCAD
facet normal 0 -0.475947107134705 -0.8794739059290534
outer loop
vertex 29.1 -6.00694 1.00238
vertex 104.1 -6.00694 1.00238
vertex 29.1 -11.36294 3.9009
endloop
endfacet
facet normal 0 -0.475947107134705 -0.8794739059290534
outer loop
vertex 29.1 -11.36294 3.9009
vertex 104.1 -6.00694 1.00238
vertex 104.1 -11.36294 3.9009
endloop
endfacet
facet normal 0 -0.7357244053049261 -0.6772810343119855
outer loop
vertex 29.1 -11.36294 3.9009
vertex 104.1 -11.36294 3.9009
vertex 29.1 -15.48758 8.38146
endloop
endfacet
facet normal 0 -0.7357244053049261 -0.6772810343119855
outer loop
vertex 29.1 -15.48758 8.38146
vertex 104.1 -11.36294 3.9009
vertex 104.1 -15.48758 8.38146
endloop
endfacet
facet normal 0 -0.9157736485752984 -0.4016946907479435
outer loop
vertex 29.1 -15.48758 8.38146
vertex 104.1 -15.48758 8.38146
vertex 29.1 -17.9339 13.95852
endloop
endfacet
facet normal 0 -0.9157736485752984 -0.4016946907479435
outer loop
vertex 29.1 -17.9339 13.95852
vertex 104.1 -15.48758 8.38146
vertex 104.1 -17.9339 13.95852
endloop
endfacet
facet normal 0 -0.9965844693604994 -0.08257963083867541
outer loop
vertex 29.1 -17.9339 13.95852
vertex 104.1 -17.9339 13.95852
vertex 29.1 -18.43681 20.02772
endloop
endfacet
facet normal 0 -0.9965844693604994 -0.08257963083867541
outer loop
vertex 29.1 -18.43681 20.02772
vertex 104.1 -17.9339 13.95852
vertex 104.1 -18.43681 20.02772
endloop
endfacet
facet normal 0 -0.9694005480486245 0.24548437311369983
outer loop
vertex 29.1 -18.43681 20.02772
vertex 104.1 -18.43681 20.02772
vertex 29.1 -16.94181 25.93137
endloop
endfacet
facet normal 0 -0.9694005480486245 0.24548437311369983
outer loop
vertex 29.1 -16.94181 25.93137
vertex 104.1 -18.43681 20.02772
vertex 104.1 -16.94181 25.93137
endloop
endfacet
facet normal 0 -0.8371658591694465 0.5469491057137603
outer loop
vertex 29.1 -16.94181 25.93137
vertex 104.1 -16.94181 25.93137
vertex 29.1 -13.61089 31.02971
endloop
endfacet
facet normal 0 -0.8371658591694465 0.5469491057137603
outer loop
vertex 29.1 -13.61089 31.02971
vertex 104.1 -16.94181 25.93137
vertex 104.1 -13.61089 31.02971
endloop
endfacet
facet normal 0 -0.6142126122673108 0.7891405875582411
outer loop
vertex 29.1 -13.61089 31.02971
vertex 104.1 -13.61089 31.02971
vertex 29.1 -8.80503 34.77026
endloop
endfacet
facet normal 0 -0.6142126122673108 0.7891405875582411
outer loop
vertex 29.1 -8.80503 34.77026
vertex 104.1 -13.61089 31.02971
vertex 104.1 -8.80503 34.77026
endloop
endfacet
facet normal 0 -0.3246993521781978 0.9458172818758699
outer loop
vertex 29.1 -8.80503 34.77026
vertex 104.1 -8.80503 34.77026
vertex 29.1 -3.045 36.74768
endloop
endfacet
facet normal 0 -0.3246993521781978 0.9458172818758699
outer loop
vertex 29.1 -3.045 36.74768
vertex 104.1 -8.80503 34.77026
vertex 104.1 -3.045 36.74768
endloop
endfacet
facet normal 0 0 1
outer loop
vertex 29.1 -3.045 36.74768
vertex 104.1 -3.045 36.74768
vertex 29.1 3.045 36.74768
endloop
endfacet
facet normal 0 0 1
outer loop
vertex 29.1 3.045 36.74768
vertex 104.1 -3.045 36.74768
vertex 104.1 3.045 36.74768
endloop
endfacet
facet normal 0 0.3246993521781978 0.9458172818758699
outer loop
vertex 29.1 3.045 36.74768
vertex 104.1 3.045 36.74768
vertex 29.1 8.80503 34.77026
endloop
endfacet
facet normal 0 0.3246993521781978 0.9458172818758699
outer loop
vertex 29.1 8.80503 34.77026
vertex 104.1 3.045 36.74768
vertex 104.1 8.80503 34.77026
endloop
endfacet
facet normal 0 0.6142126122673108 0.7891405875582411
outer loop
vertex 29.1 8.80503 34.77026
vertex 104.1 8.80503 34.77026
vertex 29.1 13.61089 31.02971
endloop
endfacet
facet normal 0 0.6142126122673108 0.7891405875582411
outer loop
vertex 29.1 13.61089 31.02971
vertex 104.1 8.80503 34.77026
vertex 104.1 13.61089 31.02971
endloop
endfacet
facet normal 0 0.8371658591694465 0.5469491057137603
outer loop
vertex 29.1 13.61089 31.02971
vertex 104.1 13.61089 31.02971
vertex 29.1 16.94181 25.93137
endloop
endfacet
facet normal 0 0.8371658591694465 0.5469491057137603
outer loop
vertex 29.1 16.94181 25.93137
vertex 104.1 13.61089 31.02971
vertex 104.1 16.94181 25.93137
endloop
endfacet
facet normal 0 0.9694005480486245 0.24548437311369983
outer loop
vertex 29.1 16.94181 25.93137
vertex 104.1 16.94181 25.93137
vertex 29.1 18.43681 20.02772
endloop
endfacet
facet normal 0 0.9694005480486245 0.24548437311369983
outer loop
vertex 29.1 18.43681 20.02772
vertex 104.1 16.94181 25.93137
vertex 104.1 18.43681 20.02772
endloop
endfacet
facet normal 0 0.9965844693604994 -0.08257963083867541
outer loop
vertex 29.1 18.43681 20.02772
vertex 104.1 18.43681 20.02772
vertex 29.1 17.9339 13.95852
endloop
endfacet
facet normal 0 0.9965844693604994 -0.08257963083867541
outer loop
vertex 29.1 17.9339 13.95852
vertex 104.1 18.43681 20.02772
vertex 104.1 17.9339 13.95852
endloop
endfacet
facet normal 0 0.9157736485752984 -0.4016946907479435
outer loop
vertex 29.1 17.9339 13.95852
vertex 104.1 17.9339 13.95852
vertex 29.1 15.48758 8.38146
endloop
endfacet
facet normal 0 0.9157736485752984 -0.4016946907479435
outer loop
vertex 29.1 15.48758 8.38146
vertex 104.1 17.9339 13.95852
vertex 104.1 15.48758 8.38146
endloop
endfacet
facet normal 0 0.7357244053049261 -0.6772810343119855
outer loop
vertex 29.1 15.48758 8.38146
vertex 104.1 15.48758 8.38146
vertex 29.1 11.36294 3.9009
endloop
endfacet
facet normal 0 0.7357244053049261 -0.6772810343119855
outer loop
vertex 29.1 11.36294 3.9009
vertex 104.1 15.48758 8.38146
vertex 104.1 11.36294 3.9009
endloop
endfacet
facet normal 0 0.475947107134705 -0.8794739059290534
outer loop
vertex 29.1 11.36294 3.9009
vertex 104.1 11.36294 3.9009
vertex 29.1 6.00694 1.00238
endloop
endfacet
facet normal 0 0.475947107134705 -0.8794739059290534
outer loop
vertex 29.1 6.00694 1.00238
vertex 104.1 11.36294 3.9009
vertex 104.1 6.00694 1.00238
endloop
endfacet
facet normal 0 0.1645944307726315 -0.9863613300199037
outer loop
vertex 29.1 6.00694 1.00238
vertex 104.1 6.00694 1.00238
vertex 29.1 0 0
endloop
endfacet
facet normal 0 0.1645944307726315 -0.9863613300199037
outer loop
vertex 29.1 0 0
vertex 104.1 6.00694 1.00238
vertex 104.1 0 0
endloop
endfacet
facet normal 0 -0.1645944307726315 -0.9863613300199037
outer loop
vertex 29.1 0 0
vertex 104.1 0 0
vertex 29.1 -6.00694 1.00238
endloop
endfacet
facet normal 0 -0.1645944307726315 -0.9863613300199037
outer loop
vertex 29.1 -6.00694 1.00238
vertex 104.1 0 0
vertex 104.1 -6.00694 1.00238
endloop
endfacet
facet normal 1 0 0
outer loop
vertex 104.1 6.00694 1.00238
vertex 104.1 -6.00694 1.00238
vertex 104.1 0 0
endloop
endfacet
facet normal 1 0 0
outer loop
vertex 104.1 6.00694 1.00238
vertex 104.1 -11.36294 3.9009
vertex 104.1 -6.00694 1.00238
endloop
endfacet
facet normal 1 0 0
outer loop
vertex 104.1 11.36294 3.9009
vertex 104.1 -11.36294 3.9009
vertex 104.1 6.00694 1.00238
endloop
endfacet
facet normal 1 0 0
outer loop
vertex 104.1 15.48758 8.38146
vertex 104.1 -11.36294 3.9009
vertex 104.1 11.36294 3.9009
endloop
endfacet
facet normal 1 0 0
outer loop
vertex 104.1 15.48758 8.38146
vertex 104.1 -15.48758 8.38146
vertex 104.1 -11.36294 3.9009
endloop
endfacet
facet normal 1 0 0
outer loop
vertex 104.1 17.9339 13.95852
vertex 104.1 -15.48758 8.38146
vertex 104.1 15.48758 8.38146
endloop
endfacet
facet normal 1 0 0
outer loop
vertex 104.1 17.9339 13.95852
vertex 104.1 -17.9339 13.95852
vertex 104.1 -15.48758 8.38146
endloop
endfacet
facet normal 1 0 0
outer loop
vertex 104.1 18.43681 20.02772
vertex 104.1 -17.9339 13.95852
vertex 104.1 17.9339 13.95852
endloop
endfacet
facet normal 1 0 0
outer loop
vertex 104.1 18.43681 20.02772
vertex 104.1 -18.43681 20.02772
vertex 104.1 -17.9339 13.95852
endloop
endfacet
facet normal 1 0 0
outer loop
vertex 104.1 18.43681 20.02772
vertex 104.1 -16.94181 25.93137
vertex 104.1 -18.43681 20.02772
endloop
endfacet
facet normal 1 0 0
outer loop
vertex 104.1 16.94181 25.93137
vertex 104.1 -16.94181 25.93137
vertex 104.1 18.43681 20.02772
endloop
endfacet
facet normal 1 0 0
outer loop
vertex 104.1 13.61089 31.02971
vertex 104.1 -16.94181 25.93137
vertex 104.1 16.94181 25.93137
endloop
endfacet
facet normal 1 0 0
outer loop
vertex 104.1 13.61089 31.02971
vertex 104.1 -13.61089 31.02971
vertex 104.1 -16.94181 25.93137
endloop
endfacet
facet normal 1 0 0
outer loop
vertex 104.1 8.80503 34.77026
vertex 104.1 -13.61089 31.02971
vertex 104.1 13.61089 31.02971
endloop
endfacet
facet normal 1 0 0
outer loop
vertex 104.1 8.80503 34.77026
vertex 104.1 -8.80503 34.77026
vertex 104.1 -13.61089 31.02971
endloop
endfacet
facet normal 1 0 0
outer loop
vertex 104.1 3.045 36.74768
vertex 104.1 -8.80503 34.77026
vertex 104.1 8.80503 34.77026
endloop
endfacet
facet normal 1 0 0
outer loop
vertex 104.1 -8.80503 34.77026
vertex 104.1 3.045 36.74768
vertex 104.1 -3.045 36.74768
endloop
endfacet
facet normal -1 0 0
outer loop
vertex 29.1 0 0
vertex 29.1 -6.00694 1.00238
vertex 29.1 6.00694 1.00238
endloop
endfacet
facet normal -1 0 0
outer loop
vertex 29.1 -6.00694 1.00238
vertex 29.1 -11.36294 3.9009
vertex 29.1 6.00694 1.00238
endloop
endfacet
facet normal -1 0 0
outer loop
vertex 29.1 6.00694 1.00238
vertex 29.1 -11.36294 3.9009
vertex 29.1 11.36294 3.9009
endloop
endfacet
facet normal -1 0 0
outer loop
vertex 29.1 11.36294 3.9009
vertex 29.1 -11.36294 3.9009
vertex 29.1 15.48758 8.38146
endloop
endfacet
facet normal -1 0 0
outer loop
vertex 29.1 -11.36294 3.9009
vertex 29.1 -15.48758 8.38146
vertex 29.1 15.48758 8.38146
endloop
endfacet
facet normal -1 0 0
outer loop
vertex 29.1 15.48758 8.38146
vertex 29.1 -15.48758 8.38146
vertex 29.1 17.9339 13.95852
endloop
endfacet
facet normal -1 0 0
outer loop
vertex 29.1 -15.48758 8.38146
vertex 29.1 -17.9339 13.95852
vertex 29.1 17.9339 13.95852
endloop
endfacet
facet normal -1 0 0
outer loop
vertex 29.1 17.9339 13.95852
vertex 29.1 -17.9339 13.95852
vertex 29.1 18.43681 20.02772
endloop
endfacet
facet normal -1 0 0
outer loop
vertex 29.1 -17.9339 13.95852
vertex 29.1 -18.43681 20.02772
vertex 29.1 18.43681 20.02772
endloop
endfacet
facet normal -1 0 0
outer loop
vertex 29.1 -18.43681 20.02772
vertex 29.1 -16.94181 25.93137
vertex 29.1 18.43681 20.02772
endloop
endfacet
facet normal -1 0 0
outer loop
vertex 29.1 18.43681 20.02772
vertex 29.1 -16.94181 25.93137
vertex 29.1 16.94181 25.93137
endloop
endfacet
facet normal -1 0 0
outer loop
vertex 29.1 16.94181 25.93137
vertex 29.1 -16.94181 25.93137
vertex 29.1 13.61089 31.02971
endloop
endfacet
facet normal -1 0 0
outer loop
vertex 29.1 -16.94181 25.93137
vertex 29.1 -13.61089 31.02971
vertex 29.1 13.61089 31.02971
endloop
endfacet
facet normal -1 0 0
outer loop
vertex 29.1 13.61089 31.02971
vertex 29.1 -13.61089 31.02971
vertex 29.1 8.80503 34.77026
endloop
endfacet
facet normal -1 0 0
outer loop
vertex 29.1 -13.61089 31.02971
vertex 29.1 -8.80503 34.77026
vertex 29.1 8.80503 34.77026
endloop
endfacet
facet normal -1 0 0
outer loop
vertex 29.1 8.80503 34.77026
vertex 29.1 -8.80503 34.77026
vertex 29.1 3.045 36.74768
endloop
endfacet
facet normal -1 0 0
outer loop
vertex 29.1 -3.045 36.74768
vertex 29.1 3.045 36.74768
vertex 29.1 -8.80503 34.77026
endloop
endfacet
facet normal 0.7071067811865475 0.7071067811865475 0
outer loop
vertex 0 -4 0
vertex 0 -4 -17.5
vertex -4 0 0
endloop
endfacet
facet normal 0.7071067811865475 0.7071067811865475 0
outer loop
vertex -4 0 0
vertex 0 -4 -17.5
vertex -4 0 -17.5
endloop
endfacet
facet normal 0.7071067811865475 -0.7071067811865475 0
outer loop
vertex -4 0 0
vertex -4 0 -17.5
vertex 0 4 0
endloop
endfacet
facet normal 0.7071067811865475 -0.7071067811865475 0
outer loop
vertex 0 4 0
vertex -4 0 -17.5
vertex 0 4 -17.5
endloop
endfacet
facet normal -0.7071067811865475 -0.7071067811865475 0
outer loop
vertex 0 4 0
vertex 0 4 -17.5
vertex 4 0 0
endloop
endfacet
facet normal -0.7071067811865475 -0.7071067811865475 0
outer loop
vertex 4 0 0
vertex 0 4 -17.5
vertex 4 0 -17.5
endloop
endfacet
facet normal -0.7071067811865475 0.7071067811865475 0
outer loop
vertex 4 0 0
vertex 4 0 -17.5
vertex 0 -4 0
endloop
endfacet
facet normal -0.7071067811865475 0.7071067811865475 0
outer loop
vertex 0 -4 0
vertex 4 0 -17.5
vertex 0 -4 -17.5
endloop
endfacet
facet normal 0 0 1
outer loop
vertex 0 4 -17.5
vertex 0 -4 -17.5
vertex 4 0 -17.5
endloop
endfacet
facet normal 0 0 1
outer loop
vertex 0 -4 -17.5
vertex 0 4 -17.5
vertex -4 0 -17.5
endloop
endfacet
facet normal 0 0 -1
outer loop
vertex 4 0 0
vertex 0 -4 0
vertex 0 4 0
endloop
endfacet
facet normal 0 0 -1
outer loop
vertex -4 0 0
vertex 0 4 0
vertex 0 -4 0
endloop
endfacet
endsolid JSxCAD
