solid JSxCAD
facet normal 0 -1 0
outer loop
vertex 29.1 -20.05 0
vertex 29.1 -20.05 31
vertex -29.1 -20.05 0
endloop
endfacet
facet normal 0 -1 0
outer loop
vertex -29.1 -20.05 0
vertex 29.1 -20.05 31
vertex -29.1 -20.05 31
endloop
endfacet
facet normal -1 0 0
outer loop
vertex -29.1 -20.05 0
vertex -29.1 -20.05 31
vertex -29.1 20.05 0
endloop
endfacet
facet normal -1 0 0
outer loop
vertex -29.1 20.05 0
vertex -29.1 -20.05 31
vertex -29.1 20.05 31
endloop
endfacet
facet normal 0 1 0
outer loop
vertex -29.1 20.05 0
vertex -29.1 20.05 31
vertex 29.1 20.05 0
endloop
endfacet
facet normal 0 1 0
outer loop
vertex 29.1 20.05 0
vertex -29.1 20.05 31
vertex 29.1 20.05 31
endloop
endfacet
facet normal 1 0 0
outer loop
vertex 29.1 20.05 0
vertex 29.1 20.05 31
vertex 29.1 -20.05 0
endloop
endfacet
facet normal 1 0 0
outer loop
vertex 29.1 -20.05 0
vertex 29.1 20.05 31
vertex 29.1 -20.05 31
endloop
endfacet
facet normal 0 0 1
outer loop
vertex -29.1 20.05 31
vertex 29.1 -20.05 31
vertex 29.1 20.05 31
endloop
endfacet
facet normal 0 0 1
outer loop
vertex 29.1 -20.05 31
vertex -29.1 20.05 31
vertex -29.1 -20.05 31
endloop
endfacet
facet normal 0 0 -1
outer loop
vertex 29.1 20.05 0
vertex 29.1 -20.05 0
vertex -29.1 20.05 0
endloop
endfacet
facet normal 0 0 -1
outer loop
vertex -29.1 -20.05 0
vertex -29.1 20.05 0
vertex 29.1 -20.05 0
endloop
endfacet
endsolid JSxCAD
