<svg viewBox="-250 -250 500 500" width="500" height="500" xmlns="http://www.w3.org/2000/svg"><path d="M-33.373454596476414,-37.85124890225038L-27.78517626832138,-27.258393260328745L-26.560629320667587,-28.463120429370665z" style="fill:rgb(212,85,213)"/><path d="M-22.171114059747136,-30.48747776835422L-41.64405265963206,-57.14902680511574L-26.560629320667587,-28.463120429370665z" style="fill:rgb(158,48,222)"/><path d="M-17.80983635389737,-30.792344548782722L-37.14044316622734,-59.23459234645667L-22.171114059747136,-30.48747776835422z" style="fill:rgb(96,32,206)"/><path d="M-14.631423140155256,-29.287891673070163L-32.69184539832599,-59.60495610220987L-17.80983635389737,-30.792344548782722z" style="fill:rgb(42,41,169)"/><path d="M-42.910325282394076,-55.92891957535841L-33.373454596476414,-37.85124890225038L-26.560629320667587,-28.463120429370665z" style="fill:rgb(212,85,213)"/><path d="M-37.48715774684968,-35.51304251760008L-30.01439175049964,-18.74887255914052L-28.044891447325444,-17.781572256562683z" style="fill:rgb(42,41,169)"/><path d="M-14.631423140155256,-29.287891673070163L-29.475671551429475,-58.15276765711625L-13.494626025586072,-26.360230068413667z" style="fill:rgb(243,180,133)"/><path d="M-37.14044316622734,-59.23459234645667L-41.64405265963206,-57.14902680511574L-22.171114059747136,-30.48747776835422z" style="fill:rgb(158,48,222)"/><path d="M-42.910325282394076,-55.92891957535841L-26.560629320667587,-28.463120429370665L-41.64405265963206,-57.14902680511574z" style="fill:rgb(212,85,213)"/><path d="M-13.494626025586072,-26.360230068413667L-28.361445965732177,-55.24959382261905L-14.725458964224527,-22.78489317920362z" style="fill:rgb(243,133,180)"/><path d="M-32.69184539832599,-59.60495610220987L-37.14044316622734,-59.23459234645667L-17.80983635389737,-30.792344548782722z" style="fill:rgb(96,32,206)"/><path d="M-42.119888525506504,-45.90594953571239L-28.044891447325444,-17.781572256562683L-26.85610598475052,-17.197740106750757z" style="fill:rgb(42,41,169)"/><path d="M-14.725458964224527,-22.78489317920362L-29.670250575261267,-51.663862228362746L-18.008399955217385,-19.52813759871856z" style="fill:rgb(212,85,213)"/><path d="M-22.45647443673689,-17.479852864738223L-37.63145823968807,-46.253624072720655L-26.85610598475052,-17.197740106750757z" style="fill:rgb(96,32,206)"/><path d="M-29.475671551429475,-58.15276765711625L-32.69184539832599,-59.60495610220987L-14.631423140155256,-29.287891673070163z" style="fill:rgb(42,41,169)"/><path d="M46.670137199411364,-121.24393649489879L65.11079029307159,3.244628374259845L59.20658115411102,-91.45746352226797z" style="fill:rgb(247,158,158)"/><path d="M-18.008399955217385,-19.52813759871856L-33.06623556233351,-48.364589041821134L-22.45647443673689,-17.479852864738223z" style="fill:rgb(158,48,222)"/><path d="M-37.48715774684968,-35.51304251760008L-45.31420873957248,-47.406283152474174L-30.01439175049964,-18.74887255914052zM-42.119888525506504,-45.90594953571239L-37.48715774684968,-35.51304251760008L-28.044891447325444,-17.781572256562683z" style="fill:rgb(42,41,169)"/><path d="M-13.494626025586072,-26.360230068413667L-29.475671551429475,-58.15276765711625L-28.361445965732177,-55.24959382261905z" style="fill:rgb(243,180,133)"/><path d="M-41.64405265963206,-57.14902680511574L-42.910325282394076,-55.92891957535841L-42.95722554848672,-54.85213043791303zM-32.69184539832599,-59.60495610220987L-37.14044316622734,-59.23459234645667L-41.64405265963206,-57.14902680511574z" style="fill:rgb(83,212,212)"/><path d="M46.670137199411364,-121.24393649489879L36.5394294788569,-145.31435593878643L48.64145851456071,-82.38900930797155z" style="fill:rgb(247,158,158)"/><path d="M-42.910325282394076,-55.92891957535841L-45.01818564893138,-53.897895290269126L-42.95722554848672,-54.85213043791303zM-41.64405265963206,-57.14902680511574L-42.95722554848672,-54.85213043791303L-32.69184539832599,-59.60495610220987zM-42.95722554848672,-54.85213043791303L-45.01818564893138,-53.897895290269126L-42.97441847483405,-54.457389600241406z" style="fill:rgb(83,212,212)"/><path d="M-14.725458964224527,-22.78489317920362L-28.361445965732177,-55.24959382261905L-29.670250575261267,-51.663862228362746z" style="fill:rgb(243,133,180)"/><path d="M-42.97441847483405,-54.457389600241406L-45.01818564893138,-53.897895290269126L-46.366799381199584,-50.334875036682156zM-42.95722554848672,-54.85213043791303L-42.97441847483405,-54.457389600241406L-29.475671551429475,-58.15276765711625zM-42.95722554848672,-54.85213043791303L-29.475671551429475,-58.15276765711625L-32.69184539832599,-59.60495610220987z" style="fill:rgb(83,212,212)"/><path d="M-26.85610598475052,-17.197740106750757L-37.63145823968807,-46.253624072720655L-42.119888525506504,-45.90594953571239z" style="fill:rgb(96,32,206)"/><path d="M-42.97441847483405,-54.457389600241406L-46.366799381199584,-50.334875036682156L-43.08787538773121,-51.85250689965279zM-42.97441847483405,-54.457389600241406L-43.08787538773121,-51.85250689965279L-29.475671551429475,-58.15276765711625z" style="fill:rgb(83,212,212)"/><path d="M-18.008399955217385,-19.52813759871856L-29.670250575261267,-51.663862228362746L-33.06623556233351,-48.364589041821134z" style="fill:rgb(212,85,213)"/><path d="M-22.45647443673689,-17.479852864738223L-33.06623556233351,-48.364589041821134L-37.63145823968807,-46.253624072720655z" style="fill:rgb(158,48,222)"/><path d="M-43.08787538773121,-51.85250689965279L-46.366799381199584,-50.334875036682156L-43.11531972813194,-51.22241073912667zM-43.11531972813194,-51.22241073912667L-46.366799381199584,-50.334875036682156L-45.31420873957248,-47.406283152474174z" style="fill:rgb(83,212,212)"/><path d="M-37.48715774684968,-35.51304251760008L-43.322282013133616,-46.47071263236468L-45.31420873957248,-47.406283152474174z" style="fill:rgb(42,41,169)"/><path d="M-43.08787538773121,-51.85250689965279L-43.11531972813194,-51.22241073912667L-28.361445965732177,-55.24959382261905zM-43.08787538773121,-51.85250689965279L-28.361445965732177,-55.24959382261905L-29.475671551429475,-58.15276765711625z" style="fill:rgb(83,212,212)"/><path d="M-37.48715774684968,-35.51304251760008L-42.119888525506504,-45.90594953571239L-43.322282013133616,-46.47071263236468z" style="fill:rgb(42,41,169)"/><path d="M-43.11531972813194,-51.22241073912667L-45.31420873957248,-47.406283152474174L-43.23972889063821,-48.366072897519zM-43.11531972813194,-51.22241073912667L-43.23972889063821,-48.366072897519L-28.361445965732177,-55.24959382261905zM-43.23972889063821,-48.366072897519L-45.31420873957248,-47.406283152474174L-43.257147781617476,-47.96612096212252zM-43.257147781617476,-47.96612096212252L-45.31420873957248,-47.406283152474174L-43.322282013133616,-46.47071263236468zM-43.23972889063821,-48.366072897519L-43.257147781617476,-47.96612096212252L-29.670250575261267,-51.663862228362746zM-43.23972889063821,-48.366072897519L-29.670250575261267,-51.663862228362746L-28.361445965732177,-55.24959382261905zM-43.257147781617476,-47.96612096212252L-43.322282013133616,-46.47071263236468L-42.119888525506504,-45.90594953571239zM-43.257147781617476,-47.96612096212252L-42.119888525506504,-45.90594953571239L-29.670250575261267,-51.663862228362746zM-29.670250575261267,-51.663862228362746L-42.119888525506504,-45.90594953571239L-33.06623556233351,-48.364589041821134zM-33.06623556233351,-48.364589041821134L-42.119888525506504,-45.90594953571239L-37.63145823968807,-46.253624072720655z" style="fill:rgb(83,212,212)"/><path d="M46.670137199411364,-121.24393649489879L48.64145851456071,-82.38900930797155L65.11079029307159,3.244628374259845z" style="fill:rgb(247,158,158)"/><path d="M-58.25142502701084,-24.918419544046245L36.5394294788569,-145.31435593878643L-52.839253898963534,-119.33394865765557z" style="fill:rgb(83,212,212)"/><path d="M48.64145851456071,-82.38900930797155L36.5394294788569,-145.31435593878643L40.37460828991414,-51.29093109782707z" style="fill:rgb(247,158,158)"/><path d="M8.763912778401213,-15.721969248890959L-45.27519633139326,-1.6333185759977724L-29.274322077242505,27.079344786486857z" style="fill:rgb(127,37,217)"/><path d="M48.64145851456071,-82.38900930797155L51.45909464192096,-26.853142792527247L65.11079029307159,3.244628374259845z" style="fill:rgb(247,158,158)"/><path d="M51.45909464192096,-26.853142792527247L-29.274322077242505,27.079344786486857L65.11079029307159,3.244628374259845zM51.45909464192096,-26.853142792527247L8.763912778401213,-15.721969248890959L-29.274322077242505,27.079344786486857z" style="fill:rgb(127,37,217)"/><path d="M36.5394294788569,-145.31435593878643L-58.25142502701084,-24.918419544046245L40.37460828991414,-51.29093109782707z" style="fill:rgb(83,212,212)"/><path d="M8.763912778401213,-15.721969248890959L-58.25142502701084,-24.918419544046245L-45.27519633139326,-1.6333185759977724z" style="fill:rgb(127,37,217)"/><path d="M48.64145851456071,-82.38900930797155L40.37460828991414,-51.29093109782707L51.45909464192096,-26.853142792527247z" style="fill:rgb(247,158,158)"/><path d="M-42.81650049964099,-28.272500205399464L-42.76503134266671,-29.119907776700085L-42.78344073810833,-29.054543128093066z" style="fill:rgb(3,148,148)"/><path d="M8.763912778401213,-15.721969248890959L40.37460828991414,-51.29093109782707L-58.25142502701084,-24.918419544046245zM51.45909464192096,-26.853142792527247L40.37460828991414,-51.29093109782707L8.763912778401213,-15.721969248890959z" style="fill:rgb(127,37,217)"/><path d="M-52.81752509487313,136.3987588541871L-42.78344073810833,-29.054543128093066L-45.89103905320357,-18.020515992767614zM-52.81752509487313,136.3987588541871L-42.81650049964099,-28.272500205399464L-42.78344073810833,-29.054543128093066z" style="fill:rgb(3,148,148)"/><path d="M45.42505784340607,-30.298477807383225L52.37281109260484,124.30596861750085L49.09064922956027,-19.276761064972938z" style="fill:rgb(250,151,151)"/><path d="M-42.81650049964099,-28.272500205399464L-49.29764313118166,125.46859047604386L-42.76503134266671,-29.119907776700085z" style="fill:rgb(3,148,148)"/><path d="M-42.76503134266671,-29.119907776700085L-49.29764313118166,125.46859047604386L-34.65998442859917,-38.96624784338887z" style="fill:rgb(19,175,175)"/><path d="M36.835044546317945,-39.93041481781108L42.5274098013364,114.78957727874776L45.42505784340607,-30.298477807383225z" style="fill:rgb(232,178,178)"/><path d="M-34.65998442859917,-38.96624784338887L-40.01071068035274,115.74336649590583L-22.376835784543424,-46.39103266674137z" style="fill:rgb(47,197,197)"/><path d="M28.010395398850534,106.76494712842803L36.835044546317945,-39.93041481781108L24.258701720238008,-46.98155238347531zM27.95022515395721,107.76519206790972L24.258701720238008,-46.98155238347531L24.184504097635774,-47.02313976749931z" style="fill:rgb(203,199,199)"/><path d="M-22.376835784543424,-46.39103266674137L-25.858750234122805,108.39177808056816L-7.275030868562573,-50.47380879739785z" style="fill:rgb(83,212,212)"/><path d="M8.884393250359729,-50.693971825737336L10.273158642922793,104.12412400334091L24.184504097635774,-47.02313976749931z" style="fill:rgb(166,213,213)"/><path d="M-7.275030868562573,-50.47380879739785L-8.411963484966815,104.34260962646256L8.884393250359729,-50.693971825737336z" style="fill:rgb(125,217,217)"/><path d="M49.09064922956027,-19.276761064972938L52.37281109260484,124.30596861750085L56.510175177443,135.16339609422926z" style="fill:rgb(250,151,151)"/><path d="M-42.81650049964099,-28.272500205399464L-52.81752509487313,136.3987588541871L-49.3184050039484,125.53306722307808z" style="fill:rgb(3,148,148)"/><path d="M35.24761872453336,163.90439092899337L-14.40918853142501,169.37831148614077L2.787701537885605,170.8837022203437zM35.24761872453336,163.90439092899337L2.787701537885605,170.8837022203437L19.897582294936065,169.00494138744028z" style="fill:rgb(127,37,217)"/><path d="M-42.81650049964099,-28.272500205399464L-49.3184050039484,125.53306722307808L-49.29764313118166,125.46859047604386z" style="fill:rgb(3,148,148)"/><path d="M47.2806292408246,156.03454983004522L-14.40918853142501,169.37831148614077L35.24761872453336,163.90439092899337z" style="fill:rgb(127,37,217)"/><path d="M45.42505784340607,-30.298477807383225L42.5274098013364,114.78957727874776L52.37281109260484,124.30596861750085z" style="fill:rgb(232,178,178)"/><path d="M-34.65998442859917,-38.96624784338887L-49.29764313118166,125.46859047604386L-40.01071068035274,115.74336649590583z" style="fill:rgb(19,175,175)"/><path d="M54.67944094870586,146.12737440991322L-30.014904854461477,164.6186269362958L-14.40918853142501,169.37831148614077zM54.67944094870586,146.12737440991322L-14.40918853142501,169.37831148614077L47.2806292408246,156.03454983004522z" style="fill:rgb(127,37,217)"/><path d="M28.010395398850534,106.76494712842803L42.5274098013364,114.78957727874776L36.835044546317945,-39.93041481781108z" style="fill:rgb(203,199,199)"/><path d="M-22.376835784543424,-46.39103266674137L-40.01071068035274,115.74336649590583L-25.858750234122805,108.39177808056816z" style="fill:rgb(47,197,197)"/><path d="M56.510175177443,135.16339609422926L-42.455342612077736,157.02527806549116L-30.014904854461477,164.6186269362958z" style="fill:rgb(127,37,217)"/><path d="M27.95022515395721,107.76519206790972L28.010395398850534,106.76494712842803L24.258701720238008,-46.98155238347531z" style="fill:rgb(203,199,199)"/><path d="M56.510175177443,135.16339609422926L-30.014904854461477,164.6186269362958L54.67944094870586,146.12737440991322z" style="fill:rgb(127,37,217)"/><path d="M24.184504097635774,-47.02313976749931L10.273158642922793,104.12412400334091L27.95022515395721,107.76519206790972z" style="fill:rgb(166,213,213)"/><path d="M-7.275030868562573,-50.47380879739785L-25.858750234122805,108.39177808056816L-8.411963484966815,104.34260962646256z" style="fill:rgb(83,212,212)"/><path d="M8.884393250359729,-50.693971825737336L-8.411963484966815,104.34260962646256L10.273158642922793,104.12412400334091z" style="fill:rgb(125,217,217)"/><path d="M52.37281109260484,124.30596861750085L-50.38287329663762,147.30019497690162L-42.455342612077736,157.02527806549116zM52.37281109260484,124.30596861750085L-42.455342612077736,157.02527806549116L56.510175177443,135.16339609422926zM52.37281109260484,124.30596861750085L-52.81752509487313,136.3987588541871L-50.38287329663762,147.30019497690162zM42.5274098013364,114.78957727874776L-52.81752509487313,136.3987588541871L52.37281109260484,124.30596861750085zM-49.3184050039484,125.53306722307808L-52.81752509487313,136.3987588541871L27.46477230889964,107.93726697741205zM27.46477230889964,107.93726697741205L-52.81752509487313,136.3987588541871L42.5274098013364,114.78957727874776zM-49.29764313118166,125.46859047604386L-49.3184050039484,125.53306722307808L27.46477230889964,107.93726697741205zM-40.01071068035274,115.74336649590583L-49.29764313118166,125.46859047604386L10.273158642922793,104.12412400334091zM-49.29764313118166,125.46859047604386L27.46477230889964,107.93726697741205L27.95022515395721,107.76519206790972zM-49.29764313118166,125.46859047604386L27.95022515395721,107.76519206790972L10.273158642922793,104.12412400334091z" style="fill:rgb(127,37,217)"/><path d="M28.010395398850534,106.76494712842803L28.035809151858583,107.80641691867868L42.5274098013364,114.78957727874776z" style="fill:rgb(203,199,199)"/><path d="M27.46477230889964,107.93726697741205L42.5274098013364,114.78957727874776L28.035809151858583,107.80641691867868zM-8.411963484966815,104.34260962646256L-25.858750234122805,108.39177808056816L-40.01071068035274,115.74336649590583z" style="fill:rgb(127,37,217)"/><path d="M28.010395398850534,106.76494712842803L27.95022515395721,107.76519206790972L28.035809151858583,107.80641691867868z" style="fill:rgb(203,199,199)"/><path d="M-40.01071068035274,115.74336649590583L10.273158642922793,104.12412400334091L-8.411963484966815,104.34260962646256zM27.46477230889964,107.93726697741205L28.035809151858583,107.80641691867868L27.95022515395721,107.76519206790972z" style="fill:rgb(127,37,217)"/></svg>