<?xml version="1.0" encoding="UTF-8"?>
<!-- Generated by jsxcad -->
<!DOCTYPE svg PUBLIC "-//W3C//DTD SVG 1.1 Tiny//EN" "http://www.w3.org/Graphics/SVG/1.1/DTD/svg11-tiny.dtd">
<svg viewBox="-250 -250 500 500" width="500" height="500" xmlns="http://www.w3.org/2000/svg"><path d="M14.507844353219006,-28.061107145640303L1.4548478778741338,-54.01365035962288L13.685646126082382,-28.949354494506917z" style="fill:rgb(21,57,142)"/><path d="M18.413465456830863,-62.274537239629986L30.467542528212608,-35.82102212305018L30.261753809908956,-37.009574188570184z" style="fill:rgb(246,167,149)"/><path d="M15.60970175213941,-27.380519508828364L2.2802169971270145,-53.137581922748325L14.507844353219006,-28.061107145640303z" style="fill:rgb(34,46,160)"/><path d="M30.467542528212608,-35.82102212305018L18.459810615160208,-59.810877606888056L30.336172213723096,-34.54031490963061z" style="fill:rgb(246,149,167)"/><path d="M16.949518170875088,-26.934725398497076L3.392638593282516,-52.47239625148837L15.60970175213941,-27.380519508828364z" style="fill:rgb(51,38,177)"/><path d="M30.336172213723096,-34.54031490963061L17.971374668417937,-58.48372405394532L29.871552870930902,-33.21683600372998z" style="fill:rgb(242,130,183)"/><path d="M6.3004650600516765,-51.87182253937263L16.949518170875088,-26.934725398497076L18.475972181460477,-26.741837166625338z" style="fill:rgb(71,33,192)"/><path d="M29.871552870930902,-33.21683600372998L17.16130632920445,-57.160995263057615L29.09072692217134,-31.90197577194711z" style="fill:rgb(233,112,197)"/><path d="M7.98396513053405,-51.961356638500575L18.475972181460477,-26.741837166625338L20.130062389879996,-26.810094911356096z" style="fill:rgb(92,32,204)"/><path d="M29.09072692217134,-31.90197577194711L16.060367007706127,-55.89435970924281L28.023332353265065,-30.64707792772521z" style="fill:rgb(220,94,208)"/><path d="M9.735025872905197,-52.31037451652564L20.130062389879996,-26.810094911356096L21.847422222768333,-27.137419451466013z" style="fill:rgb(115,34,214)"/><path d="M28.023332353265065,-30.64707792772521L14.7110279836969,-54.73349303357153L26.71053810669559,-29.50135080161858z" style="fill:rgb(203,77,216)"/><path d="M11.48517802797971,-52.90563636321486L21.847422222768333,-27.137419451466013L23.56092440124949,-27.711417896867854z" style="fill:rgb(139,40,220)"/><path d="M14.7110279836969,-54.73349303357153L25.203420577643982,-28.509813710717545L26.71053810669559,-29.50135080161858z" style="fill:rgb(183,62,221)"/><path d="M13.165812659939883,-53.72402856133054L23.56092440124949,-27.711417896867854L25.203420577643982,-28.509813710717545z" style="fill:rgb(162,50,222)"/><path d="M1.4548478778741338,-54.01365035962288L14.507844353219006,-28.061107145640303L2.2802169971270145,-53.137581922748325z" style="fill:rgb(21,57,142)"/><path d="M30.467542528212608,-35.82102212305018L18.413465456830863,-62.274537239629986L18.60868725788264,-61.09093099197365z" style="fill:rgb(246,167,149)"/><path d="M6.22612857379106,-63.54349426103782L15.445242058643545,-64.96637025653307L7.883958986132162,-64.35139220637011zM4.699598711284113,-62.54928843835421L15.445242058643545,-64.96637025653307L6.22612857379106,-63.54349426103782zM7.883958986132162,-64.35139220637011L15.445242058643545,-64.96637025653307L9.610659560895353,-64.9425175689494zM15.445242058643545,-64.96637025653307L4.699598711284113,-62.54928843835421L3.823470999070956,-61.800523735680294zM9.610659560895353,-64.9425175689494L15.445242058643545,-64.96637025653307L11.34119345706967,-65.29439911319704z" style="fill:rgb(83,212,212)"/><path d="M2.2802169971270145,-53.137581922748325L15.60970175213941,-27.380519508828364L3.392638593282516,-52.47239625148837z" style="fill:rgb(34,46,160)"/><path d="M18.459810615160208,-59.810877606888056L30.467542528212608,-35.82102212305018L18.60868725788264,-61.09093099197365z" style="fill:rgb(246,149,167)"/><path d="M11.34119345706967,-65.29439911319704L15.445242058643545,-64.96637025653307L13.010214964159143,-65.39334874236339zM13.010214964159143,-65.39334874236339L15.445242058643545,-64.96637025653307L14.554406669929445,-65.23504558770615z" style="fill:rgb(83,212,212)"/><path d="M3.392638593282516,-52.47239625148837L16.949518170875088,-26.934725398497076L4.750047486120739,-52.044662414225435z" style="fill:rgb(51,38,177)"/><path d="M17.971374668417937,-58.48372405394532L30.336172213723096,-34.54031490963061L18.459810615160208,-59.810877606888056z" style="fill:rgb(242,130,183)"/><path d="M2.264016611469976,-60.15693259311153L2.2802169971270145,-53.137581922748325L3.3619815594659426,-61.40612171881856z" style="fill:rgb(83,212,212)"/><path d="M16.949518170875088,-26.934725398497076L6.3004650600516765,-51.87182253937263L4.750047486120739,-52.044662414225435z" style="fill:rgb(71,33,192)"/><path d="M1.447721649681316,-58.848741145982785L1.4548478778741338,-54.01365035962288L2.264016611469976,-60.15693259311153zM3.3619815594659426,-61.40612171881856L3.392638593282516,-52.47239625148837L3.823470999070956,-61.800523735680294z" style="fill:rgb(83,212,212)"/><path d="M17.16130632920445,-57.160995263057615L29.871552870930902,-33.21683600372998L17.971374668417937,-58.48372405394532z" style="fill:rgb(233,112,197)"/><path d="M0.9448056084310218,-57.53100176172861L1.4548478778741338,-54.01365035962288L1.447721649681316,-58.848741145982785z" style="fill:rgb(83,212,212)"/><path d="M18.475972181460477,-26.741837166625338L7.98396513053405,-51.961356638500575L6.3004650600516765,-51.87182253937263z" style="fill:rgb(92,32,204)"/><path d="M0.9471733523476659,-55.06606792849326L0.9448056084310218,-57.53100176172861L0.775401695896997,-56.25380689102455z" style="fill:rgb(83,212,212)"/><path d="M16.060367007706127,-55.89435970924281L29.09072692217134,-31.90197577194711L17.16130632920445,-57.160995263057615z" style="fill:rgb(220,94,208)"/><path d="M3.823470999070956,-61.800523735680294L4.750047486120739,-52.044662414225435L15.445242058643545,-64.96637025653307z" style="fill:rgb(83,212,212)"/><path d="M20.130062389879996,-26.810094911356096L9.735025872905197,-52.31037451652564L7.98396513053405,-51.961356638500575z" style="fill:rgb(115,34,214)"/><path d="M14.7110279836969,-54.73349303357153L28.023332353265065,-30.64707792772521L16.060367007706127,-55.89435970924281z" style="fill:rgb(203,77,216)"/><path d="M0.9448056084310218,-57.53100176172861L0.9471733523476659,-55.06606792849326L1.4548478778741338,-54.01365035962288z" style="fill:rgb(83,212,212)"/><path d="M21.847422222768333,-27.137419451466013L11.48517802797971,-52.90563636321486L9.735025872905197,-52.31037451652564z" style="fill:rgb(139,40,220)"/><path d="M2.264016611469976,-60.15693259311153L1.4548478778741338,-54.01365035962288L2.2802169971270145,-53.137581922748325z" style="fill:rgb(83,212,212)"/><path d="M25.203420577643982,-28.509813710717545L14.7110279836969,-54.73349303357153L13.165812659939883,-53.72402856133054z" style="fill:rgb(183,62,221)"/><path d="M23.56092440124949,-27.711417896867854L13.165812659939883,-53.72402856133054L11.48517802797971,-52.90563636321486z" style="fill:rgb(162,50,222)"/><path d="M3.3619815594659426,-61.40612171881856L2.2802169971270145,-53.137581922748325L3.392638593282516,-52.47239625148837zM15.445242058643545,-64.96637025653307L16.060367007706127,-55.89435970924281L15.914790249531126,-64.82475800420896zM3.823470999070956,-61.800523735680294L3.392638593282516,-52.47239625148837L4.750047486120739,-52.044662414225435zM15.914790249531126,-64.82475800420896L16.060367007706127,-55.89435970924281L17.03893449179437,-64.17727158888765zM17.03893449179437,-64.17727158888765L17.971374668417937,-58.48372405394532L17.882988731251437,-63.316461556059956zM17.882988731251437,-63.316461556059956L17.971374668417937,-58.48372405394532L18.413465456830863,-62.274537239629986zM15.445242058643545,-64.96637025653307L4.750047486120739,-52.044662414225435L6.3004650600516765,-51.87182253937263zM18.413465456830863,-62.274537239629986L18.459810615160208,-59.810877606888056L18.60868725788264,-61.09093099197365zM-1.4253762110136254,-68.74071725638223L0.26023802206036467,-57.05001614078464L0.2567679779548625,-70.17168043498023zM-2.8084551862694243,-67.17833553002822L-1.4417346207035262,-57.58119000414891L-1.4253762110136254,-68.74071725638223zM15.445242058643545,-64.96637025653307L6.3004650600516765,-51.87182253937263L7.98396513053405,-51.961356638500575zM0.2567679779548625,-70.17168043498023L2.2070775168761845,-56.83853519900623L2.1743860042536727,-71.41779292155948zM-3.8396048436843335,-65.54302844540017L-2.833739407899064,-58.4100680780584L-2.8084551862694243,-67.17833553002822zM17.03893449179437,-64.17727158888765L17.16130632920445,-57.160995263057615L17.971374668417937,-58.48372405394532zM2.1743860042536727,-71.41779292155948L4.323432132810612,-56.9562042092867L4.255444492677907,-72.43250809324262zM-4.478672747875847,-63.89635197574263L-3.8633759863309214,-59.50320943843252L-3.8396048436843335,-65.54302844540017zM18.413465456830863,-62.274537239629986L17.971374668417937,-58.48372405394532L18.459810615160208,-59.810877606888056zM15.445242058643545,-64.96637025653307L7.98396513053405,-51.961356638500575L9.735025872905197,-52.31037451652564z" style="fill:rgb(83,212,212)"/><path d="M0.4281233704502802,-51.752192422582354L-3.8633759863309214,-59.50320943843252L-0.6006538105815121,-52.84967413586985z" style="fill:rgb(21,57,142)"/><path d="M15.445242058643545,-64.96637025653307L14.7110279836969,-54.73349303357153L16.060367007706127,-55.89435970924281zM17.03893449179437,-64.17727158888765L16.060367007706127,-55.89435970924281L17.16130632920445,-57.160995263057615zM15.445242058643545,-64.96637025653307L9.735025872905197,-52.31037451652564L11.48517802797971,-52.90563636321486zM4.255444492677907,-72.43250809324262L6.526671834438632,-57.3993618350157L6.421986818767921,-73.1777658059527zM-4.492784557042117,-60.817237287559216L-4.478672747875847,-63.89635197574263L-4.6998374161684335,-62.30073778713526zM15.445242058643545,-64.96637025653307L13.165812659939883,-53.72402856133054L14.7110279836969,-54.73349303357153zM15.445242058643545,-64.96637025653307L11.48517802797971,-52.90563636321486L13.165812659939883,-53.72402856133054z" style="fill:rgb(83,212,212)"/><path d="M17.465502288203268,-69.89774793112589L20.848903800458963,-61.6985691794946L20.601187253425373,-63.17742569974895z" style="fill:rgb(246,167,149)"/><path d="M6.421986818767921,-73.1777658059527L8.73026304639149,-58.15123944221291L8.592829361924503,-73.62529828288277zM8.592829361924503,-73.62529828288277L10.847382077597684,-59.18256537771222L10.686371475135514,-73.75767716029796zM-4.478672747875847,-63.89635197574263L-4.492784557042117,-60.817237287559216L-3.8633759863309214,-59.50320943843252z" style="fill:rgb(83,212,212)"/><path d="M1.8167950658589385,-50.917917755886435L-2.833739407899064,-58.4100680780584L0.4281233704502802,-51.752192422582354z" style="fill:rgb(34,46,160)"/><path d="M10.686371475135514,-73.75767716029796L12.794581359793513,-60.452746520600435L12.623455451117652,-73.56900293765513zM-3.8396048436843335,-65.54302844540017L-3.8633759863309214,-59.50320943843252L-2.833739407899064,-58.4100680780584zM12.623455451117652,-73.56900293765513L14.49532408783041,-61.91157839856472L14.330214620089814,-73.06524665639881z" style="fill:rgb(83,212,212)"/><path d="M-3.8633759863309214,-59.50320943843252L0.4281233704502802,-51.752192422582354L-2.833739407899064,-58.4100680780584z" style="fill:rgb(21,57,142)"/><path d="M20.848903800458963,-61.6985691794946L17.520833742609227,-66.82088041043873L20.666056817911365,-60.09806006367828z" style="fill:rgb(246,149,167)"/><path d="M-2.8084551862694243,-67.17833553002822L-2.833739407899064,-58.4100680780584L-1.4417346207035262,-57.58119000414891z" style="fill:rgb(83,212,212)"/><path d="M3.5130722754118797,-50.38048625725219L-1.4417346207035262,-57.58119000414891L1.8167950658589385,-50.917917755886435z" style="fill:rgb(51,38,177)"/><path d="M20.848903800458963,-61.6985691794946L17.465502288203268,-69.89774793112589L17.709601807917014,-68.42086717127657z" style="fill:rgb(246,167,149)"/><path d="M14.330214620089814,-73.06524665639881L15.883187745011417,-63.501387285714294L15.740818888856776,-72.26423614396097zM-1.4253762110136254,-68.74071725638223L-1.4417346207035262,-57.58119000414891L0.26023802206036467,-57.05001614078464z" style="fill:rgb(83,212,212)"/><path d="M20.666056817911365,-60.09806006367828L16.904579303060203,-65.15949602783293L20.05782003101277,-58.4376321845353z" style="fill:rgb(242,130,183)"/><path d="M0.2567679779548625,-70.17168043498023L0.26023802206036467,-57.05001614078464L2.2070775168761845,-56.83853519900623z" style="fill:rgb(83,212,212)"/><path d="M-2.833739407899064,-58.4100680780584L1.8167950658589385,-50.917917755886435L-1.4417346207035262,-57.58119000414891z" style="fill:rgb(34,46,160)"/><path d="M17.520833742609227,-66.82088041043873L20.848903800458963,-61.6985691794946L17.709601807917014,-68.42086717127657z" style="fill:rgb(246,149,167)"/><path d="M15.740818888856776,-72.26423614396097L15.883187745011417,-63.501387285714294L16.80003516290534,-71.19517003055111zM16.80003516290534,-71.19517003055111L17.520833742609227,-66.82088041043873L17.465502288203268,-69.89774793112589zM2.1743860042536727,-71.41779292155948L2.2070775168761845,-56.83853519900623L4.323432132810612,-56.9562042092867z" style="fill:rgb(83,212,212)"/><path d="M2.2070775168761845,-56.83853519900623L3.5130722754118797,-50.38048625725219L5.452063939525043,-50.16211751477558z" style="fill:rgb(71,33,192)"/><path d="M20.05782003101277,-58.4376321845353L15.883187745011417,-63.501387285714294L19.04624367466512,-56.781922514640634z" style="fill:rgb(233,112,197)"/><path d="M4.255444492677907,-72.43250809324262L4.323432132810612,-56.9562042092867L6.526671834438632,-57.3993618350157z" style="fill:rgb(83,212,212)"/><path d="M-1.4417346207035262,-57.58119000414891L3.5130722754118797,-50.38048625725219L0.26023802206036467,-57.05001614078464z" style="fill:rgb(51,38,177)"/><path d="M16.904579303060203,-65.15949602783293L20.666056817911365,-60.09806006367828L17.520833742609227,-66.82088041043873z" style="fill:rgb(242,130,183)"/><path d="M17.465502288203268,-69.89774793112589L17.520833742609227,-66.82088041043873L17.709601807917014,-68.42086717127657zM6.421986818767921,-73.1777658059527L6.526671834438632,-57.3993618350157L8.73026304639149,-58.15123944221291z" style="fill:rgb(83,212,212)"/><path d="M4.323432132810612,-56.9562042092867L5.452063939525043,-50.16211751477558L7.558721720844381,-50.27252793631585z" style="fill:rgb(92,32,204)"/><path d="M16.80003516290534,-71.19517003055111L16.904579303060203,-65.15949602783293L17.520833742609227,-66.82088041043873zM8.592829361924503,-73.62529828288277L8.73026304639149,-58.15123944221291L10.847382077597684,-59.18256537771222z" style="fill:rgb(83,212,212)"/><path d="M19.04624367466512,-56.781922514640634L14.49532408783041,-61.91157839856472L17.669618830096372,-55.195862599514356z" style="fill:rgb(220,94,208)"/><path d="M10.686371475135514,-73.75767716029796L10.847382077597684,-59.18256537771222L12.794581359793513,-60.452746520600435z" style="fill:rgb(83,212,212)"/><path d="M3.5130722754118797,-50.38048625725219L2.2070775168761845,-56.83853519900623L0.26023802206036467,-57.05001614078464z" style="fill:rgb(71,33,192)"/><path d="M14.330214620089814,-73.06524665639881L14.49532408783041,-61.91157839856472L15.883187745011417,-63.501387285714294zM12.623455451117652,-73.56900293765513L12.794581359793513,-60.452746520600435L14.49532408783041,-61.91157839856472z" style="fill:rgb(83,212,212)"/><path d="M6.526671834438632,-57.3993618350157L7.558721720844381,-50.27252793631585L9.75079836566918,-50.708334984485234z" style="fill:rgb(115,34,214)"/><path d="M16.80003516290534,-71.19517003055111L15.883187745011417,-63.501387285714294L16.904579303060203,-65.15949602783293z" style="fill:rgb(83,212,212)"/><path d="M15.883187745011417,-63.501387285714294L20.05782003101277,-58.4376321845353L16.904579303060203,-65.15949602783293z" style="fill:rgb(233,112,197)"/><path d="M17.669618830096372,-55.195862599514356L12.794581359793513,-60.452746520600435L15.981098951096108,-53.74196264286203z" style="fill:rgb(203,77,216)"/><path d="M8.73026304639149,-58.15123944221291L9.75079836566918,-50.708334984485234L11.942209638187792,-51.453057447177294z" style="fill:rgb(139,40,220)"/><path d="M12.794581359793513,-60.452746520600435L14.04662048405948,-52.47770806484751L15.981098951096108,-53.74196264286203z" style="fill:rgb(183,62,221)"/><path d="M10.847382077597684,-59.18256537771222L11.942209638187792,-51.453057447177294L14.04662048405948,-52.47770806484751z" style="fill:rgb(162,50,222)"/><path d="M5.452063939525043,-50.16211751477558L4.323432132810612,-56.9562042092867L2.2070775168761845,-56.83853519900623z" style="fill:rgb(92,32,204)"/><path d="M14.49532408783041,-61.91157839856472L19.04624367466512,-56.781922514640634L15.883187745011417,-63.501387285714294z" style="fill:rgb(220,94,208)"/><path d="M7.558721720844381,-50.27252793631585L6.526671834438632,-57.3993618350157L4.323432132810612,-56.9562042092867z" style="fill:rgb(115,34,214)"/><path d="M12.794581359793513,-60.452746520600435L17.669618830096372,-55.195862599514356L14.49532408783041,-61.91157839856472z" style="fill:rgb(203,77,216)"/><path d="M9.75079836566918,-50.708334984485234L8.73026304639149,-58.15123944221291L6.526671834438632,-57.3993618350157z" style="fill:rgb(139,40,220)"/><path d="M14.04662048405948,-52.47770806484751L12.794581359793513,-60.452746520600435L10.847382077597684,-59.18256537771222z" style="fill:rgb(183,62,221)"/><path d="M11.942209638187792,-51.453057447177294L10.847382077597684,-59.18256537771222L8.73026304639149,-58.15123944221291z" style="fill:rgb(162,50,222)"/><path d="M33.09870600050977,-62.95497401651394L50.24855269520127,-108.56112743306136L29.927659052261397,-156.66850924717426z" style="fill:rgb(247,158,158)"/><path d="M-25.99768094595275,-119.49961953962618L-24.566270841634747,-107.95366718968413L-24.223734678007357,-120.96508317152784zM-27.466543194300918,-117.9122058353794L-26.30984900612267,-108.43327034053932L-25.99768094595275,-119.49961953962618zM-24.223734678007357,-120.96508317152784L-22.56113610005543,-107.79804854778392L-22.211693451519967,-122.25394028439786zM-28.574222772253556,-116.26224441919508L-27.725243406822628,-109.21678330888217L-27.466543194300918,-117.9122058353794zM-22.211693451519967,-122.25394028439786L-20.372046021166696,-107.97375964449805L-20.037053959375363,-123.31809828285414zM-29.277626012298267,-114.61182322169186L-28.759284141120393,-110.27241586615828L-28.574222772253556,-116.26224441919508zM-20.037053959375363,-123.31809828285414L-18.084503687230864,-108.47490001735792L-17.7811805336037,-124.11767663815624zM-29.37412288751413,-111.55813214423183L-29.277626012298267,-114.61182322169186L-29.54837741482631,-113.02351826281426zM-17.7811805336037,-124.11767663815624L-15.788428138475023,-109.28244191465356L-15.528517030417868,-124.6224180797431zM-15.528517030417868,-124.6224180797431L-13.574380757349473,-110.36487866951681L-13.363668960900537,-124.81270943658092zM-29.277626012298267,-114.61182322169186L-29.37412288751413,-111.55813214423183L-28.759284141120393,-110.27241586615828zM-13.363668960900537,-124.81270943658092L-11.529727195878525,-111.6795738584668L-11.368450346800143,-124.68046648852315zM-28.574222772253556,-116.26224441919508L-28.759284141120393,-110.27241586615828L-27.725243406822628,-109.21678330888217z" style="fill:rgb(83,212,212)"/><path d="M-25.93499858955108,-105.56266551300936L-28.759284141120393,-110.27241586615828L-26.968849421268583,-106.62125467250712z" style="fill:rgb(21,57,142)"/><path d="M-6.461812528224359,-121.1781619143415L-4.524283761717227,-116.03105338158431L-4.740991675008874,-117.49014266284794z" style="fill:rgb(246,167,149)"/><path d="M-27.466543194300918,-117.9122058353794L-27.725243406822628,-109.21678330888217L-26.30984900612267,-108.43327034053932zM-11.368450346800143,-124.68046648852315L-11.529727195878525,-111.6795738584668L-9.618952891379765,-124.22944842371837zM-9.618952891379765,-124.22944842371837L-8.260151357426622,-114.7904911605799L-8.182707255529339,-123.47538769528245zM-25.99768094595275,-119.49961953962618L-26.30984900612267,-108.43327034053932L-24.566270841634747,-107.95366718968413z" style="fill:rgb(83,212,212)"/><path d="M-28.759284141120393,-110.27241586615828L-25.93499858955108,-105.56266551300936L-27.725243406822628,-109.21678330888217z" style="fill:rgb(21,57,142)"/><path d="M-24.52116562967919,-104.77564285062142L-27.725243406822628,-109.21678330888217L-25.93499858955108,-105.56266551300936z" style="fill:rgb(34,46,160)"/><path d="M-8.182707255529339,-123.47538769528245L-7.1623892320747125,-116.4638172198564L-7.116054266348458,-122.4455912020779zM-24.223734678007357,-120.96508317152784L-24.566270841634747,-107.95366718968413L-22.56113610005543,-107.79804854778392z" style="fill:rgb(83,212,212)"/><path d="M-4.524283761717227,-116.03105338158431L-6.461812528224359,-121.1781619143415L-6.2473572194291975,-119.72072997313802z" style="fill:rgb(246,167,149)"/><path d="M-7.116054266348458,-122.4455912020779L-6.4832315423515325,-118.1288353635995L-6.461812528224359,-121.1781619143415z" style="fill:rgb(83,212,212)"/><path d="M-4.524283761717227,-116.03105338158431L-6.4832315423515325,-118.1288353635995L-4.756656661194937,-114.4383344699921z" style="fill:rgb(246,149,167)"/><path d="M-22.211693451519967,-122.25394028439786L-22.56113610005543,-107.79804854778392L-20.372046021166696,-107.97375964449805zM-60.20728404293493,-130.17471877801205L33.09870600050977,-62.95497401651394L29.927659052261397,-156.66850924717426z" style="fill:rgb(83,212,212)"/><path d="M-22.780467922200266,-104.29210529328097L-26.30984900612267,-108.43327034053932L-24.52116562967919,-104.77564285062142z" style="fill:rgb(51,38,177)"/><path d="M-27.725243406822628,-109.21678330888217L-24.52116562967919,-104.77564285062142L-26.30984900612267,-108.43327034053932z" style="fill:rgb(34,46,160)"/><path d="M-6.4832315423515325,-118.1288353635995L-4.524283761717227,-116.03105338158431L-6.2473572194291975,-119.72072997313802z" style="fill:rgb(246,149,167)"/><path d="M-20.037053959375363,-123.31809828285414L-20.372046021166696,-107.97375964449805L-18.084503687230864,-108.47490001735792zM-6.461812528224359,-121.1781619143415L-6.4832315423515325,-118.1288353635995L-6.2473572194291975,-119.72072997313802zM-17.7811805336037,-124.11767663815624L-18.084503687230864,-108.47490001735792L-15.788428138475023,-109.28244191465356zM-7.116054266348458,-122.4455912020779L-7.1623892320747125,-116.4638172198564L-6.4832315423515325,-118.1288353635995z" style="fill:rgb(83,212,212)"/><path d="M-4.756656661194937,-114.4383344699921L-7.1623892320747125,-116.4638172198564L-5.431188114354304,-112.77336058518709z" style="fill:rgb(242,130,183)"/><path d="M-15.528517030417868,-124.6224180797431L-15.788428138475023,-109.28244191465356L-13.574380757349473,-110.36487866951681zM-8.182707255529339,-123.47538769528245L-8.260151357426622,-114.7904911605799L-7.1623892320747125,-116.4638172198564zM-13.363668960900537,-124.81270943658092L-13.574380757349473,-110.36487866951681L-11.529727195878525,-111.6795738584668zM-9.618952891379765,-124.22944842371837L-9.734928979129059,-113.17450092728521L-8.260151357426622,-114.7904911605799z" style="fill:rgb(83,212,212)"/><path d="M-26.30984900612267,-108.43327034053932L-22.780467922200266,-104.29210529328097L-24.566270841634747,-107.95366718968413z" style="fill:rgb(51,38,177)"/><path d="M-7.1623892320747125,-116.4638172198564L-4.756656661194937,-114.4383344699921L-6.4832315423515325,-118.1288353635995z" style="fill:rgb(242,130,183)"/><path d="M-22.56113610005543,-107.79804854778392L-22.780467922200266,-104.29210529328097L-20.7794342804725,-104.13227404598166z" style="fill:rgb(71,33,192)"/><path d="M-9.618952891379765,-124.22944842371837L-11.529727195878525,-111.6795738584668L-9.734928979129059,-113.17450092728521z" style="fill:rgb(83,212,212)"/><path d="M-5.431188114354304,-112.77336058518709L-8.260151357426622,-114.7904911605799L-6.523370814272931,-111.10094687505061z" style="fill:rgb(233,112,197)"/><path d="M-22.780467922200266,-104.29210529328097L-22.56113610005543,-107.79804854778392L-24.566270841634747,-107.95366718968413z" style="fill:rgb(71,33,192)"/><path d="M-8.260151357426622,-114.7904911605799L-5.431188114354304,-112.77336058518709L-7.1623892320747125,-116.4638172198564z" style="fill:rgb(233,112,197)"/><path d="M-20.372046021166696,-107.97375964449805L-20.7794342804725,-104.13227404598166L-18.59549985945504,-104.30365405656192z" style="fill:rgb(92,32,204)"/><path d="M-6.523370814272931,-111.10094687505061L-9.734928979129059,-113.17450092728521L-7.991829452435926,-109.48669960280534z" style="fill:rgb(220,94,208)"/><path d="M-20.7794342804725,-104.13227404598166L-20.372046021166696,-107.97375964449805L-22.56113610005543,-107.79804854778392z" style="fill:rgb(92,32,204)"/><path d="M-18.084503687230864,-108.47490001735792L-18.59549985945504,-104.30365405656192L-16.313969780237,-104.800512033227z" style="fill:rgb(115,34,214)"/><path d="M-7.991829452435926,-109.48669960280534L-11.529727195878525,-111.6795738584668L-9.779817339757045,-107.99427460987812z" style="fill:rgb(203,77,216)"/><path d="M-9.734928979129059,-113.17450092728521L-6.523370814272931,-111.10094687505061L-8.260151357426622,-114.7904911605799z" style="fill:rgb(220,94,208)"/><path d="M-15.788428138475023,-109.28244191465356L-16.313969780237,-104.800512033227L-14.024516950242875,-105.60398856098678z" style="fill:rgb(139,40,220)"/><path d="M-11.529727195878525,-111.6795738584668L-11.817438241057996,-106.68273812890824L-9.779817339757045,-107.99427460987812z" style="fill:rgb(183,62,221)"/><path d="M-13.574380757349473,-110.36487866951681L-14.024516950242875,-105.60398856098678L-11.817438241057996,-106.68273812890824z" style="fill:rgb(162,50,222)"/><path d="M-18.59549985945504,-104.30365405656192L-18.084503687230864,-108.47490001735792L-20.372046021166696,-107.97375964449805z" style="fill:rgb(115,34,214)"/><path d="M-11.529727195878525,-111.6795738584668L-7.991829452435926,-109.48669960280534L-9.734928979129059,-113.17450092728521z" style="fill:rgb(203,77,216)"/><path d="M-16.313969780237,-104.800512033227L-15.788428138475023,-109.28244191465356L-18.084503687230864,-108.47490001735792z" style="fill:rgb(139,40,220)"/><path d="M-11.817438241057996,-106.68273812890824L-11.529727195878525,-111.6795738584668L-13.574380757349473,-110.36487866951681z" style="fill:rgb(183,62,221)"/><path d="M-14.024516950242875,-105.60398856098678L-13.574380757349473,-110.36487866951681L-15.788428138475023,-109.28244191465356z" style="fill:rgb(162,50,222)"/><path d="M50.24855269520127,-108.56112743306136L33.09870600050977,-62.95497401651394L55.33732927541863,-14.119268940287514z" style="fill:rgb(247,158,158)"/><path d="M33.09870600050977,-62.95497401651394L-60.20728404293493,-130.17471877801205L-66.43103345680593,-36.008796604488374z" style="fill:rgb(83,212,212)"/><path d="M33.09870600050977,-62.95497401651394L-40.41348433317745,10.523286345868717L55.33732927541863,-14.119268940287514zM-40.41348433317745,10.523286345868717L33.09870600050977,-62.95497401651394L-66.43103345680593,-36.008796604488374z" style="fill:rgb(127,37,217)"/><path d="M-65.63336152247363,122.88698587436188L-55.905867121864624,-38.85890266664014L-56.909109484196335,-31.837091716765748z" style="fill:rgb(1,140,140)"/><path d="M39.1089821419146,-42.67208590159079L47.621848478510024,119.02084469896391L41.26867351195041,-35.751747099718266z" style="fill:rgb(251,149,149)"/><path d="M-55.905867121864624,-38.85890266664014L-61.254411711915346,109.23956522725992L-53.007552537902384,-45.63624377646045z" style="fill:rgb(7,157,157)"/><path d="M40.57552732904671,105.7123625497592L39.1089821419146,-42.67208590159079L35.094850337367106,-49.19380771214821z" style="fill:rgb(242,166,166)"/><path d="M-61.254411711915346,109.23956522725992L-48.294882898152196,-51.89296849846326L-53.007552537902384,-45.63624377646045z" style="fill:rgb(17,173,173)"/><path d="M29.35543269715893,-55.045972878715226L40.57552732904671,105.7123625497592L35.094850337367106,-49.19380771214821z" style="fill:rgb(229,181,181)"/><path d="M-48.294882898152196,-51.89296849846326L-48.53346356292202,97.59702791351161L-41.92876760005472,-57.36529132573557z" style="fill:rgb(32,187,187)"/><path d="M22.098925000929466,-59.97754108283652L33.968260921700015,99.90234353043444L29.35543269715893,-55.045972878715226z" style="fill:rgb(212,194,194)"/><path d="M-41.92876760005472,-57.36529132573557L-39.551856994454695,93.16947024187557L-34.14762973591661,-61.8154229673266z" style="fill:rgb(50,199,199)"/><path d="M13.606881142998848,-63.771069732265346L25.589570148301807,94.9987140108952L22.098925000929466,-59.97754108283652z" style="fill:rgb(192,205,205)"/><path d="M-34.14762973591661,-61.8154229673266L-29.270778866611586,89.95263460420317L-25.259614703301438,-65.0451020424846z" style="fill:rgb(72,208,208)"/><path d="M4.223292299550963,-66.2556257205749L15.764737798604333,91.22195670746298L13.606881142998848,-63.771069732265346z" style="fill:rgb(169,212,212)"/><path d="M-25.259614703301438,-65.0451020424846L-18.1163253170718,88.0961068787779L-15.629549672973086,-66.90767810720892z" style="fill:rgb(95,214,214)"/><path d="M-5.661287313031939,-67.31750135477827L4.894790823466022,88.74615373368617L4.223292299550963,-66.2556257205749z" style="fill:rgb(145,216,216)"/><path d="M-18.1163253170718,88.0961068787779L-5.661287313031939,-67.31750135477827L-15.629549672973086,-66.90767810720892z" style="fill:rgb(120,217,217)"/><path d="M-55.905867121864624,-38.85890266664014L-65.63336152247363,122.88698587436188L-64.54104714688631,115.9491083466703z" style="fill:rgb(1,140,140)"/><path d="M47.621848478510024,119.02084469896391L39.1089821419146,-42.67208590159079L45.17435436365669,112.1756695785419z" style="fill:rgb(251,149,149)"/><path d="M-61.254411711915346,109.23956522725992L-55.905867121864624,-38.85890266664014L-64.54104714688631,115.9491083466703z" style="fill:rgb(7,157,157)"/><path d="M39.1089821419146,-42.67208590159079L40.57552732904671,105.7123625497592L45.17435436365669,112.1756695785419z" style="fill:rgb(242,166,166)"/><path d="M-48.294882898152196,-51.89296849846326L-61.254411711915346,109.23956522725992L-55.85856424890573,103.0338490406553z" style="fill:rgb(17,173,173)"/><path d="M40.57552732904671,105.7123625497592L29.35543269715893,-55.045972878715226L33.968260921700015,99.90234353043444z" style="fill:rgb(229,181,181)"/><path d="M-48.53346356292202,97.59702791351161L-48.294882898152196,-51.89296849846326L-55.85856424890573,103.0338490406553z" style="fill:rgb(32,187,187)"/><path d="M33.968260921700015,99.90234353043444L22.098925000929466,-59.97754108283652L25.589570148301807,94.9987140108952z" style="fill:rgb(212,194,194)"/><path d="M-39.551856994454695,93.16947024187557L-41.92876760005472,-57.36529132573557L-48.53346356292202,97.59702791351161z" style="fill:rgb(50,199,199)"/><path d="M25.589570148301807,94.9987140108952L13.606881142998848,-63.771069732265346L15.764737798604333,91.22195670746298z" style="fill:rgb(192,205,205)"/><path d="M-29.270778866611586,89.95263460420317L-34.14762973591661,-61.8154229673266L-39.551856994454695,93.16947024187557z" style="fill:rgb(72,208,208)"/><path d="M-6.5624256058533526,87.68748203810672L-10.846114452079147,158.4507166150957L-0.1422346718265528,158.10017803574894zM-18.1163253170718,88.0961068787779L-21.480482277290236,157.54135363231694L-10.846114452079147,158.4507166150957zM4.894790823466022,88.74615373368617L-0.1422346718265528,158.10017803574894L10.264697416926284,156.5002691095852zM-29.270778866611586,89.95263460420317L-31.680256168092733,155.3994368261417L-21.480482277290236,157.54135363231694zM15.764737798604333,91.22195670746298L10.264697416926284,156.5002691095852L20.014698964303562,153.69935079173206zM-39.551856994454695,93.16947024187557L-41.089674432552506,152.09015067461206L-31.680256168092733,155.3994368261417z" style="fill:rgb(127,37,217)"/><path d="M15.764737798604333,91.22195670746298L4.223292299550963,-66.2556257205749L4.894790823466022,88.74615373368617z" style="fill:rgb(169,212,212)"/><path d="M25.589570148301807,94.9987140108952L20.014698964303562,153.69935079173206L28.76246590269957,149.78354345347105z" style="fill:rgb(127,37,217)"/><path d="M-18.1163253170718,88.0961068787779L-25.259614703301438,-65.0451020424846L-29.270778866611586,89.95263460420317z" style="fill:rgb(95,214,214)"/><path d="M-48.53346356292202,97.59702791351161L-49.370815015987574,147.71627203074885L-41.089674432552506,152.09015067461206z" style="fill:rgb(127,37,217)"/><path d="M4.894790823466022,88.74615373368617L-5.661287313031939,-67.31750135477827L-6.5624256058533526,87.68748203810672z" style="fill:rgb(145,216,216)"/><path d="M33.968260921700015,99.90234353043444L28.76246590269957,149.78354345347105L36.18633872289938,144.87629474134422z" style="fill:rgb(127,37,217)"/><path d="M-5.661287313031939,-67.31750135477827L-18.1163253170718,88.0961068787779L-6.5624256058533526,87.68748203810672z" style="fill:rgb(120,217,217)"/><path d="M-55.85856424890573,103.0338490406553L-56.21297065942539,142.41757408347573L-49.370815015987574,147.71627203074885zM40.57552732904671,105.7123625497592L36.18633872289938,144.87629474134422L41.99826049182553,139.13740553920496zM-61.254411711915346,109.23956522725992L-61.343156222910764,136.36943344291205L-56.21297065942539,142.41757408347573zM45.17435436365669,112.1756695785419L41.99826049182553,139.13740553920496L45.954795355613314,132.76098249329178zM-64.54104714688631,115.9491083466703L-64.53750768669195,129.78022498526977L-61.343156222910764,136.36943344291205zM47.621848478510024,119.02084469896391L45.954795355613314,132.76098249329178L47.86889760573301,125.9719956141205zM-64.53750768669195,129.78022498526977L-64.54104714688631,115.9491083466703L-65.63336152247363,122.88698587436188zM45.17435436365669,112.1756695785419L45.954795355613314,132.76098249329178L47.621848478510024,119.02084469896391zM-64.54104714688631,115.9491083466703L-61.343156222910764,136.36943344291205L-61.254411711915346,109.23956522725992zM40.57552732904671,105.7123625497592L41.99826049182553,139.13740553920496L45.17435436365669,112.1756695785419zM-61.254411711915346,109.23956522725992L-56.21297065942539,142.41757408347573L-55.85856424890573,103.0338490406553zM33.968260921700015,99.90234353043444L36.18633872289938,144.87629474134422L40.57552732904671,105.7123625497592zM-55.85856424890573,103.0338490406553L-49.370815015987574,147.71627203074885L-48.53346356292202,97.59702791351161zM25.589570148301807,94.9987140108952L28.76246590269957,149.78354345347105L33.968260921700015,99.90234353043444zM-48.53346356292202,97.59702791351161L-41.089674432552506,152.09015067461206L-39.551856994454695,93.16947024187557zM15.764737798604333,91.22195670746298L20.014698964303562,153.69935079173206L25.589570148301807,94.9987140108952zM-39.551856994454695,93.16947024187557L-31.680256168092733,155.3994368261417L-29.270778866611586,89.95263460420317zM4.894790823466022,88.74615373368617L10.264697416926284,156.5002691095852L15.764737798604333,91.22195670746298zM-29.270778866611586,89.95263460420317L-21.480482277290236,157.54135363231694L-18.1163253170718,88.0961068787779zM-6.5624256058533526,87.68748203810672L-0.1422346718265528,158.10017803574894L4.894790823466022,88.74615373368617zM-18.1163253170718,88.0961068787779L-10.846114452079147,158.4507166150957L-6.5624256058533526,87.68748203810672z" style="fill:rgb(127,37,217)"/></svg>
