<svg viewBox="-250 -250 500 500" width="500" height="500" xmlns="http://www.w3.org/2000/svg"><path d="M15.174100363437768,-44.99507597694742L36.03037233467912,-50.57427030854682L25.385420666392417,-55.1613437967664zM36.03037233467912,-50.57427030854682L15.174100363437768,-44.99507597694742L25.768512199221917,-40.282285732522496z" style="fill:rgb(83,212,212)"/><path d="M9.290905829254472,-89.72521693023013L15.174100363437768,-44.99507597694742L25.385420666392417,-55.1613437967664z" style="fill:rgb(212,85,213)"/><path d="M20.1075104355439,-85.35144604385661L25.385420666392417,-55.1613437967664L36.03037233467912,-50.57427030854682z" style="fill:rgb(42,41,169)"/><path d="M-1.3254882845599147,-79.41219662975179L15.174100363437768,-44.99507597694742L9.290905829254472,-89.72521693023013z" style="fill:rgb(212,85,213)"/><path d="M9.290905829254472,-89.72521693023013L25.385420666392417,-55.1613437967664L20.1075104355439,-85.35144604385661z" style="fill:rgb(42,41,169)"/><path d="M26.05926243434005,-31.85208309288245L-26.27012958664865,-24.788760899414463L-8.106851097759684,-22.84707660196992zM26.05926243434005,-31.85208309288245L-8.106851097759684,-22.84707660196992L9.920346382631086,-25.270351297837525zM38.678238959634704,-42.0156197588603L-26.27012958664865,-24.788760899414463L26.05926243434005,-31.85208309288245zM46.394021854615744,-54.82465040567581L-42.807984179561664,-30.930188535728995L-26.27012958664865,-24.788760899414463zM46.394021854615744,-54.82465040567581L-26.27012958664865,-24.788760899414463L38.678238959634704,-42.0156197588603zM48.22245443092396,-69.01873045587455L-56.06032382299364,-40.73558624241259L-42.807984179561664,-30.930188535728995zM48.22245443092396,-69.01873045587455L-42.807984179561664,-30.930188535728995L46.394021854615744,-54.82465040567581zM43.73985312907126,-83.09430435327305L-64.59387973806868,-53.30747667377009L-56.06032382299364,-40.73558624241259zM43.73985312907126,-83.09430435327305L-56.06032382299364,-40.73558624241259L48.22245443092396,-69.01873045587455zM43.73985312907126,-83.09430435327305L-67.35103947358127,-67.41846802101946L-64.59387973806868,-53.30747667377009zM33.22188374774326,-95.44724091236773L-67.35103947358127,-67.41846802101946L43.73985312907126,-83.09430435327305zM17.70766017135515,-104.57499727938831L-63.81279574361822,-81.58614001093427L-67.35103947358127,-67.41846802101946z" style="fill:rgb(127,37,217)"/><path d="M-26.27012958664865,-24.788760899414463L-9.573048411134918,161.31619214843514L-8.106851097759684,-22.84707660196992z" style="fill:rgb(146,216,216)"/><path d="M-8.106851097759684,-22.84707660196992L11.719356045506846,158.9487973451354L9.920346382631086,-25.270351297837525z" style="fill:rgb(104,216,216)"/><path d="M17.70766017135515,-104.57499727938831L-67.35103947358127,-67.41846802101946L33.22188374774326,-95.44724091236773z" style="fill:rgb(127,37,217)"/><path d="M-42.807984179561664,-30.930188535728995L-31.031558279581823,159.41943514976688L-26.27012958664865,-24.788760899414463z" style="fill:rgb(186,207,207)"/><path d="M9.920346382631086,-25.270351297837525L30.81947369083259,152.5089625657598L26.05926243434005,-31.85208309288245z" style="fill:rgb(64,205,205)"/><path d="M-1.0617465826795995,-109.30947685412808L-54.144578998724015,-94.20853175429866L-63.81279574361822,-81.58614001093427zM-1.0617465826795995,-109.30947685412808L-63.81279574361822,-81.58614001093427L17.70766017135515,-104.57499727938831z" style="fill:rgb(127,37,217)"/><path d="M-56.06032382299364,-40.73558624241259L-50.61971916095019,153.41183933630774L-42.807984179561664,-30.930188535728995z" style="fill:rgb(219,189,189)"/><path d="M-54.144578998724015,-94.20853175429866L-20.853736451803055,-109.02531600967298L-39.274910875158156,-103.760419331358zM-20.853736451803055,-109.02531600967298L-54.144578998724015,-94.20853175429866L-1.0617465826795995,-109.30947685412808z" style="fill:rgb(127,37,217)"/><path d="M26.05926243434005,-31.85208309288245L45.8227970986664,142.53613349856943L38.678238959634704,-42.0156197588603z" style="fill:rgb(32,187,187)"/><path d="M-64.59387973806868,-53.30747667377009L-66.40117416676671,143.79405019334945L-56.06032382299364,-40.73558624241259z" style="fill:rgb(243,165,165)"/><path d="M38.678238959634704,-42.0156197588603L55.08410480566012,129.9181390660645L46.394021854615744,-54.82465040567581z" style="fill:rgb(9,162,162)"/><path d="M-67.35103947358127,-67.41846802101946L-76.6731140869126,131.41557917789953L-64.59387973806868,-53.30747667377009z" style="fill:rgb(254,136,136)"/><path d="M46.394021854615744,-54.82465040567581L57.39420400173655,115.8710949518575L48.22245443092396,-69.01873045587455z" style="fill:rgb(0,133,133)"/><path d="M-67.35103947358127,-67.41846802101946L-80.13902144176306,117.45818764004754L-63.81279574361822,-81.58614001093427z" style="fill:rgb(3,148,148)"/><path d="M43.73985312907126,-83.09430435327305L52.18482742459592,101.8736864824155L48.22245443092396,-69.01873045587455z" style="fill:rgb(250,151,151)"/><path d="M-9.573048411134918,161.31619214843514L11.719356045506846,158.9487973451354L-8.106851097759684,-22.84707660196992z" style="fill:rgb(104,216,216)"/><path d="M-31.031558279581823,159.41943514976688L-9.573048411134918,161.31619214843514L-26.27012958664865,-24.788760899414463z" style="fill:rgb(146,216,216)"/><path d="M11.719356045506846,158.9487973451354L30.81947369083259,152.5089625657598L9.920346382631086,-25.270351297837525z" style="fill:rgb(64,205,205)"/><path d="M-63.81279574361822,-81.58614001093427L-76.11360112694028,103.3767364313832L-54.144578998724015,-94.20853175429866z" style="fill:rgb(19,175,175)"/><path d="M-50.61971916095019,153.41183933630774L-31.031558279581823,159.41943514976688L-42.807984179561664,-30.930188535728995z" style="fill:rgb(186,207,207)"/><path d="M33.22188374774326,-95.44724091236773L39.72035846242568,89.53355498077424L43.73985312907126,-83.09430435327305z" style="fill:rgb(232,178,178)"/><path d="M30.81947369083259,152.5089625657598L45.8227970986664,142.53613349856943L26.05926243434005,-31.85208309288245z" style="fill:rgb(32,187,187)"/><path d="M-66.40117416676671,143.79405019334945L-50.61971916095019,153.41183933630774L-56.06032382299364,-40.73558624241259z" style="fill:rgb(219,189,189)"/><path d="M-54.144578998724015,-94.20853175429866L-64.72191450452296,90.77334510180819L-39.274910875158156,-103.760419331358z" style="fill:rgb(47,197,197)"/><path d="M17.70766017135515,-104.57499727938831L21.204724292307702,80.3814892399497L33.22188374774326,-95.44724091236773z" style="fill:rgb(203,199,199)"/><path d="M-39.274910875158156,-103.760419331358L-47.02466299641674,81.1994098547812L-20.853736451803055,-109.02531600967298z" style="fill:rgb(83,212,212)"/><path d="M45.8227970986664,142.53613349856943L55.08410480566012,129.9181390660645L38.678238959634704,-42.0156197588603z" style="fill:rgb(9,162,162)"/><path d="M-1.0617465826795995,-109.30947685412808L-1.2724677293553484,75.62300716801022L17.70766017135515,-104.57499727938831z" style="fill:rgb(166,213,213)"/><path d="M-76.6731140869126,131.41557917789953L-66.40117416676671,143.79405019334945L-64.59387973806868,-53.30747667377009z" style="fill:rgb(243,165,165)"/><path d="M-20.853736451803055,-109.02531600967298L-24.991279917441865,75.90882389041357L-1.0617465826795995,-109.30947685412808z" style="fill:rgb(125,217,217)"/><path d="M55.08410480566012,129.9181390660645L57.39420400173655,115.8710949518575L46.394021854615744,-54.82465040567581z" style="fill:rgb(0,133,133)"/><path d="M-80.13902144176306,117.45818764004754L-76.6731140869126,131.41557917789953L-67.35103947358127,-67.41846802101946z" style="fill:rgb(254,136,136)"/><path d="M48.22245443092396,-69.01873045587455L52.18482742459592,101.8736864824155L57.39420400173655,115.8710949518575z" style="fill:rgb(250,151,151)"/><path d="M-63.81279574361822,-81.58614001093427L-80.13902144176306,117.45818764004754L-76.11360112694028,103.3767364313832z" style="fill:rgb(3,148,148)"/><path d="M30.81947369083259,152.5089625657598L-31.031558279581823,159.41943514976688L-9.573048411134918,161.31619214843514zM30.81947369083259,152.5089625657598L-9.573048411134918,161.31619214843514L11.719356045506846,158.9487973451354zM45.8227970986664,142.53613349856943L-31.031558279581823,159.41943514976688L30.81947369083259,152.5089625657598z" style="fill:rgb(127,37,217)"/><path d="M43.73985312907126,-83.09430435327305L39.72035846242568,89.53355498077424L52.18482742459592,101.8736864824155z" style="fill:rgb(232,178,178)"/><path d="M55.08410480566012,129.9181390660645L-50.61971916095019,153.41183933630774L-31.031558279581823,159.41943514976688z" style="fill:rgb(127,37,217)"/><path d="M-54.144578998724015,-94.20853175429866L-76.11360112694028,103.3767364313832L-64.72191450452296,90.77334510180819z" style="fill:rgb(19,175,175)"/><path d="M55.08410480566012,129.9181390660645L-31.031558279581823,159.41943514976688L45.8227970986664,142.53613349856943z" style="fill:rgb(127,37,217)"/><path d="M33.22188374774326,-95.44724091236773L21.204724292307702,80.3814892399497L39.72035846242568,89.53355498077424z" style="fill:rgb(203,199,199)"/><path d="M57.39420400173655,115.8710949518575L-66.40117416676671,143.79405019334945L-50.61971916095019,153.41183933630774z" style="fill:rgb(127,37,217)"/><path d="M-39.274910875158156,-103.760419331358L-64.72191450452296,90.77334510180819L-47.02466299641674,81.1994098547812z" style="fill:rgb(47,197,197)"/><path d="M57.39420400173655,115.8710949518575L-50.61971916095019,153.41183933630774L55.08410480566012,129.9181390660645z" style="fill:rgb(127,37,217)"/><path d="M17.70766017135515,-104.57499727938831L-1.2724677293553484,75.62300716801022L21.204724292307702,80.3814892399497z" style="fill:rgb(166,213,213)"/><path d="M-20.853736451803055,-109.02531600967298L-47.02466299641674,81.1994098547812L-24.991279917441865,75.90882389041357z" style="fill:rgb(83,212,212)"/><path d="M-1.0617465826795995,-109.30947685412808L-24.991279917441865,75.90882389041357L-1.2724677293553484,75.62300716801022z" style="fill:rgb(125,217,217)"/><path d="M52.18482742459592,101.8736864824155L-76.6731140869126,131.41557917789953L-66.40117416676671,143.79405019334945zM52.18482742459592,101.8736864824155L-66.40117416676671,143.79405019334945L57.39420400173655,115.8710949518575zM52.18482742459592,101.8736864824155L-80.13902144176306,117.45818764004754L-76.6731140869126,131.41557917789953zM39.72035846242568,89.53355498077424L-80.13902144176306,117.45818764004754L52.18482742459592,101.8736864824155zM21.204724292307702,80.3814892399497L-76.11360112694028,103.3767364313832L-80.13902144176306,117.45818764004754zM21.204724292307702,80.3814892399497L-80.13902144176306,117.45818764004754L39.72035846242568,89.53355498077424zM-1.2724677293553484,75.62300716801022L-64.72191450452296,90.77334510180819L-76.11360112694028,103.3767364313832zM-1.2724677293553484,75.62300716801022L-76.11360112694028,103.3767364313832L21.204724292307702,80.3814892399497zM-64.72191450452296,90.77334510180819L-24.991279917441865,75.90882389041357L-47.02466299641674,81.1994098547812zM-24.991279917441865,75.90882389041357L-64.72191450452296,90.77334510180819L-1.2724677293553484,75.62300716801022z" style="fill:rgb(127,37,217)"/></svg>